<?xml version="1.0" encoding="UTF-8" standalone="no"?>
<!-- Created with Inkscape (http://www.inkscape.org/) -->

<svg
   xmlns:dc="http://purl.org/dc/elements/1.1/"
   xmlns:cc="http://creativecommons.org/ns#"
   xmlns:rdf="http://www.w3.org/1999/02/22-rdf-syntax-ns#"
   xmlns:svg="http://www.w3.org/2000/svg"
   xmlns="http://www.w3.org/2000/svg"
   xmlns:inkscape="http://www.inkscape.org/namespaces/inkscape"
   version="1.1"
   width="40"
   height="40"
   id="svg2"
   xml:space="preserve"><metadata
     id="metadata8"><rdf:RDF><cc:Work
         rdf:about=""><dc:format>image/svg+xml</dc:format><dc:type
           rdf:resource="http://purl.org/dc/dcmitype/StillImage" /></cc:Work></rdf:RDF></metadata><defs
     id="defs6"><clipPath
       id="clipPath16"><path
         d="M 0,32 32,32 32,0 0,0 0,32 z"
         inkscape:connector-curvature="0"
         id="path18" /></clipPath></defs><g
     transform="matrix(1.25,0,0,-1.25,0,40)"
     id="g10"><g
       id="g12"><g
         clip-path="url(#clipPath16)"
         id="g14"><g
           transform="translate(16.0986,22.9292)"
           id="g20"><path
             d="m 0,0 c -5.178,0.035 -10.341,-2.101 -14.131,-5.856 l -0.006,-0.007 c -0.872,-0.871 -0.872,-2.209 0.025,-3.094 0.887,-0.888 2.221,-0.918 3.099,-0.043 2.972,2.916 6.893,4.551 11.032,4.569 4.03,0.026 8.023,-1.647 10.996,-4.563 0.88,-0.861 2.223,-0.845 3.115,0.037 0.431,0.44 0.681,1.012 0.681,1.592 0,0.564 -0.238,1.074 -0.66,1.502 C 10.361,-2.121 5.333,-0.032 0,0"
             inkscape:connector-curvature="0"
             id="path22"
             style="fill:#444443;fill-opacity:1;fill-rule:nonzero;stroke:none" /></g></g></g></g></svg>