<?xml version="1.0" encoding="UTF-8" standalone="no"?>
<!-- Created with Inkscape (http://www.inkscape.org/) -->

<svg
   xmlns:dc="http://purl.org/dc/elements/1.1/"
   xmlns:cc="http://creativecommons.org/ns#"
   xmlns:rdf="http://www.w3.org/1999/02/22-rdf-syntax-ns#"
   xmlns:svg="http://www.w3.org/2000/svg"
   xmlns="http://www.w3.org/2000/svg"
   xmlns:inkscape="http://www.inkscape.org/namespaces/inkscape"
   version="1.1"
   width="40"
   height="40"
   id="svg2"
   xml:space="preserve"><metadata
     id="metadata8"><rdf:RDF><cc:Work
         rdf:about=""><dc:format>image/svg+xml</dc:format><dc:type
           rdf:resource="http://purl.org/dc/dcmitype/StillImage" /></cc:Work></rdf:RDF></metadata><defs
     id="defs6"><clipPath
       id="clipPath16"><path
         d="M 0,32 32,32 32,0 0,0 0,32 z"
         inkscape:connector-curvature="0"
         id="path18" /></clipPath></defs><g
     transform="matrix(1.25,0,0,-1.25,0,40)"
     id="g10"><g
       id="g12"><g
         clip-path="url(#clipPath16)"
         id="g14"><g
           transform="translate(16.6377,3.2803)"
           id="g20"><path
             d="m 0,0 0.005,2.831 c 0.746,0.02 1.489,0.146 2.222,0.307 0.946,0.233 1.876,0.591 2.745,1.064 0.963,0.526 1.866,1.177 2.675,1.969 4.624,4.533 4.795,11.874 0.267,16.492 -4.527,4.617 -11.972,4.694 -16.596,0.161 -3.246,-3.182 -4.482,-8.112 -2.966,-12.408 0.431,-1.221 1.772,-1.862 2.997,-1.42 1.219,0.428 1.868,1.759 1.436,2.974 -0.907,2.581 -0.121,5.589 1.825,7.497 2.771,2.719 7.24,2.674 9.952,-0.092 C 7.279,16.603 7.136,12.237 4.362,9.52 3.177,8.355 1.658,7.688 0.088,7.543 l 0.025,2.762 c 0.011,0.635 -0.783,0.973 -1.238,0.529 L -3.804,8.215 -6.316,5.753 C -6.446,5.624 -6.515,5.456 -6.53,5.287 -6.546,5.088 -6.487,4.877 -6.336,4.718 l 0.081,-0.083 0.677,-0.693 4.323,-4.44 C -0.813,-0.951 -0.013,-0.634 0,0"
             inkscape:connector-curvature="0"
             id="path22"
             style="fill:#444443;fill-opacity:1;fill-rule:nonzero;stroke:none" /></g></g></g></g></svg>