<?xml version="1.0" encoding="UTF-8" standalone="no"?>
<!-- Created with Inkscape (http://www.inkscape.org/) -->

<svg
   xmlns:dc="http://purl.org/dc/elements/1.1/"
   xmlns:cc="http://creativecommons.org/ns#"
   xmlns:rdf="http://www.w3.org/1999/02/22-rdf-syntax-ns#"
   xmlns:svg="http://www.w3.org/2000/svg"
   xmlns="http://www.w3.org/2000/svg"
   xmlns:inkscape="http://www.inkscape.org/namespaces/inkscape"
   version="1.1"
   width="40"
   height="40"
   id="svg2"
   xml:space="preserve"><metadata
     id="metadata8"><rdf:RDF><cc:Work
         rdf:about=""><dc:format>image/svg+xml</dc:format><dc:type
           rdf:resource="http://purl.org/dc/dcmitype/StillImage" /></cc:Work></rdf:RDF></metadata><defs
     id="defs6"><clipPath
       id="clipPath16"><path
         d="M 0,32 32,32 32,0 0,0 0,32 z"
         inkscape:connector-curvature="0"
         id="path18" /></clipPath></defs><g
     transform="matrix(1.25,0,0,-1.25,0,40)"
     id="g10"><g
       id="g12"><g
         clip-path="url(#clipPath16)"
         id="g14"><g
           transform="translate(15.5615,3.2803)"
           id="g20"><path
             d="m 0,0 -0.005,2.831 c -0.746,0.02 -1.489,0.146 -2.222,0.307 -0.946,0.233 -1.876,0.591 -2.745,1.064 -0.963,0.526 -1.866,1.177 -2.675,1.969 -4.624,4.533 -4.795,11.874 -0.267,16.492 4.527,4.617 11.972,4.694 16.597,0.161 3.245,-3.182 4.48,-8.112 2.965,-12.408 C 11.217,9.195 9.876,8.554 8.651,8.996 7.433,9.424 6.783,10.755 7.216,11.97 c 0.906,2.581 0.121,5.589 -1.826,7.497 -2.771,2.719 -7.24,2.674 -9.952,-0.092 -2.717,-2.772 -2.574,-7.138 0.2,-9.855 1.185,-1.165 2.704,-1.832 4.274,-1.977 l -0.025,2.762 c -0.011,0.635 0.783,0.973 1.238,0.529 L 3.804,8.215 6.315,5.753 C 6.446,5.624 6.515,5.456 6.53,5.287 6.546,5.088 6.487,4.877 6.336,4.718 L 6.255,4.635 5.577,3.942 1.255,-0.498 C 0.813,-0.951 0.013,-0.634 0,0"
             inkscape:connector-curvature="0"
             id="path22"
             style="fill:#444443;fill-opacity:1;fill-rule:nonzero;stroke:none" /></g></g></g></g></svg>