<?xml version="1.0" encoding="UTF-8" standalone="no"?>
<!-- Created with Inkscape (http://www.inkscape.org/) -->

<svg
   xmlns:dc="http://purl.org/dc/elements/1.1/"
   xmlns:cc="http://creativecommons.org/ns#"
   xmlns:rdf="http://www.w3.org/1999/02/22-rdf-syntax-ns#"
   xmlns:svg="http://www.w3.org/2000/svg"
   xmlns="http://www.w3.org/2000/svg"
   xmlns:inkscape="http://www.inkscape.org/namespaces/inkscape"
   version="1.1"
   width="40"
   height="40"
   id="svg2"
   xml:space="preserve"><metadata
     id="metadata8"><rdf:RDF><cc:Work
         rdf:about=""><dc:format>image/svg+xml</dc:format><dc:type
           rdf:resource="http://purl.org/dc/dcmitype/StillImage" /></cc:Work></rdf:RDF></metadata><defs
     id="defs6"><clipPath
       id="clipPath16"><path
         d="M 0,32 32,32 32,0 0,0 0,32 z"
         inkscape:connector-curvature="0"
         id="path18" /></clipPath></defs><g
     transform="matrix(1.25,0,0,-1.25,0,40)"
     id="g10"><g
       id="g12"><g
         clip-path="url(#clipPath16)"
         id="g14"><g
           transform="translate(1.0601,10.4346)"
           id="g20"><path
             d="m 0,0 c -0.588,0 -1.06,-0.547 -1.06,-1.233 0,-0.691 0.472,-1.248 1.06,-1.248 l 8.792,0 c 0.585,0 1.068,0.557 1.068,1.248 C 9.86,-0.547 9.377,0 8.792,0"
             inkscape:connector-curvature="0"
             id="path22"
             style="fill:#444443;fill-opacity:1;fill-rule:nonzero;stroke:none" /></g><g
           transform="translate(1.0464,23.8433)"
           id="g24"><path
             d="m 0,0 c -0.58,0 -1.046,-0.547 -1.046,-1.233 0,-0.691 0.466,-1.248 1.046,-1.248 l 9.073,0 c 0.578,0 0.036,0.626 0.036,1.316 C 9.109,-0.478 9.651,0 9.073,0"
             inkscape:connector-curvature="0"
             id="path26"
             style="fill:#444443;fill-opacity:1;fill-rule:nonzero;stroke:none" /></g><g
           transform="translate(24.5449,17.3335)"
           id="g28"><path
             d="m 0,0 c -0.588,0 -1.06,-0.547 -1.06,-1.233 0,-0.691 0.472,-1.249 1.06,-1.249 l 6.347,0 c 0.586,0 1.068,0.558 1.068,1.249 C 7.415,-0.547 6.933,0 6.347,0"
             inkscape:connector-curvature="0"
             id="path30"
             style="fill:#444443;fill-opacity:1;fill-rule:nonzero;stroke:none" /></g><g
           transform="translate(10.1191,31.0142)"
           id="g32"><path
             d="m 0,0 0,-30 c 0,0 13.896,1.533 13.896,14.34 C 13.896,-1.44 2.666,0 0,0 z"
             inkscape:connector-curvature="0"
             id="path34"
             style="fill:none;stroke:#444443;stroke-width:2;stroke-linecap:butt;stroke-linejoin:round;stroke-miterlimit:10;stroke-opacity:1;stroke-dasharray:none" /></g><path
           d="m 32,7.947 -20.891,0 0,15.895 20.891,0 0,-15.895 z"
           inkscape:connector-curvature="0"
           id="path36"
           style="fill:#b4b3b3;fill-opacity:1;fill-rule:nonzero;stroke:none" /><g
           transform="translate(18,18.228)"
           id="g38"><path
             d="m 0,0 -0.032,0 -1.223,-4.25 2.463,0 L 0,0 z m -0.816,2.917 c 0.127,0.423 0.297,0.8 0.799,0.8 0.518,0 0.707,-0.392 0.817,-0.8 L 3.827,-7.701 c 0.109,-0.377 -0.314,-0.785 -0.754,-0.785 -0.485,0 -0.736,0.408 -0.846,0.785 l -0.581,1.883 -3.34,0 -0.597,-1.883 c -0.109,-0.377 -0.36,-0.785 -0.846,-0.785 -0.44,0 -0.863,0.408 -0.753,0.785 l 3.074,10.618 z"
             inkscape:connector-curvature="0"
             id="path40"
             style="fill:#444443;fill-opacity:1;fill-rule:nonzero;stroke:none" /></g><g
           transform="translate(22.8516,20.376)"
           id="g42"><path
             d="m 0,0 0,-0.564 c 0,-0.502 -0.22,-0.785 -0.785,-0.785 -0.564,0 -0.782,0.283 -0.782,0.785 l 0,2.133 7.748,0 0,-2.133 c 0,-0.502 -0.22,-0.785 -0.785,-0.785 -0.565,0 -0.785,0.283 -0.785,0.785 l 0,0.564 -1.52,0 0,-9.849 c 0,-0.502 -0.22,-0.785 -0.785,-0.785 -0.566,0 -0.785,0.283 -0.785,0.785 L 1.521,0 0,0 z"
             inkscape:connector-curvature="0"
             id="path44"
             style="fill:#444443;fill-opacity:1;fill-rule:nonzero;stroke:none" /></g></g></g></g></svg>