<?xml version="1.0" encoding="UTF-8" standalone="no"?>
<!-- Created with Inkscape (http://www.inkscape.org/) -->

<svg
   xmlns:dc="http://purl.org/dc/elements/1.1/"
   xmlns:cc="http://creativecommons.org/ns#"
   xmlns:rdf="http://www.w3.org/1999/02/22-rdf-syntax-ns#"
   xmlns:svg="http://www.w3.org/2000/svg"
   xmlns="http://www.w3.org/2000/svg"
   xmlns:inkscape="http://www.inkscape.org/namespaces/inkscape"
   version="1.1"
   width="40"
   height="40"
   id="svg2"
   xml:space="preserve"><metadata
     id="metadata8"><rdf:RDF><cc:Work
         rdf:about=""><dc:format>image/svg+xml</dc:format><dc:type
           rdf:resource="http://purl.org/dc/dcmitype/StillImage" /></cc:Work></rdf:RDF></metadata><defs
     id="defs6"><clipPath
       id="clipPath16"><path
         d="M 0,32 32,32 32,0 0,0 0,32 z"
         inkscape:connector-curvature="0"
         id="path18" /></clipPath></defs><g
     transform="matrix(1.25,0,0,-1.25,0,40)"
     id="g10"><g
       id="g12"><g
         clip-path="url(#clipPath16)"
         id="g14"><g
           transform="translate(32,16.0005)"
           id="g20"><path
             d="m 0,0 c 0,-8.836 -7.163,-16 -16,-16 -8.836,0 -16,7.164 -16,16 0,8.836 7.164,16 16,16 C -7.163,16 0,8.836 0,0"
             inkscape:connector-curvature="0"
             id="path22"
             style="fill:#ffcd00;fill-opacity:1;fill-rule:nonzero;stroke:none" /></g><g
           transform="translate(14.3389,18.4238)"
           id="g24"><path
             d="m 0,0 -2.667,0 c -0.899,0 -1.73,0.416 -1.73,1.661 0,1.248 0.831,1.662 1.73,1.662 l 2.667,0 0,2.528 c 0,1.108 0.414,1.732 1.66,1.732 1.248,0 1.664,-0.624 1.664,-1.732 l 0,-2.528 2.665,0 C 6.889,3.323 7.72,2.909 7.72,1.661 7.72,0.416 6.889,0 5.989,0 l -2.665,0 0,-4.846 2.665,0 c 0.9,0 1.731,-0.416 1.731,-1.662 0,-1.248 -0.831,-1.662 -1.731,-1.662 l -2.665,0 0,-2.527 c 0,-1.108 -0.416,-1.733 -1.664,-1.733 -1.246,0 -1.66,0.625 -1.66,1.733 l 0,2.527 -2.667,0 c -0.899,0 -1.73,0.414 -1.73,1.662 0,1.246 0.831,1.662 1.73,1.662 L 0,-4.846 0,0 z"
             inkscape:connector-curvature="0"
             id="path26"
             style="fill:#444443;fill-opacity:1;fill-rule:nonzero;stroke:none" /></g></g></g></g></svg>