<?xml version="1.0" encoding="UTF-8" standalone="no"?>
<!-- Created with Inkscape (http://www.inkscape.org/) -->

<svg
   xmlns:dc="http://purl.org/dc/elements/1.1/"
   xmlns:cc="http://creativecommons.org/ns#"
   xmlns:rdf="http://www.w3.org/1999/02/22-rdf-syntax-ns#"
   xmlns:svg="http://www.w3.org/2000/svg"
   xmlns="http://www.w3.org/2000/svg"
   xmlns:inkscape="http://www.inkscape.org/namespaces/inkscape"
   version="1.1"
   width="40"
   height="40"
   id="svg2"
   xml:space="preserve"><metadata
     id="metadata8"><rdf:RDF><cc:Work
         rdf:about=""><dc:format>image/svg+xml</dc:format><dc:type
           rdf:resource="http://purl.org/dc/dcmitype/StillImage" /></cc:Work></rdf:RDF></metadata><defs
     id="defs6"><clipPath
       id="clipPath16"><path
         d="M 0,32 32,32 32,0 0,0 0,32 z"
         inkscape:connector-curvature="0"
         id="path18" /></clipPath></defs><g
     transform="matrix(1.25,0,0,-1.25,0,40)"
     id="g10"><g
       id="g12"><g
         clip-path="url(#clipPath16)"
         id="g14"><g
           transform="translate(26.4629,27)"
           id="g20"><path
             d="m 0,0 c 0,0.817 -0.308,1.555 -0.847,2.125 -0.545,0.573 -1.272,0.873 -2.038,0.873 l -13.366,0 c -0.774,0 -1.494,-0.3 -2.029,-0.873 C -18.825,1.555 -19.124,0.817 -19.124,0 l 0,-22.004 c 0,-1.648 1.29,-2.994 2.873,-2.994 l 4.795,0 3.771,0 1.933,0 0.016,0 0,6.143 5.736,0 L 0,0 z m 1.904,-19.07 c -0.031,-0.504 -0.229,-0.98 -0.559,-1.34 l -5.734,-6.004 C -4.759,-26.787 -5.232,-27 -5.752,-27 l -1.933,0 -3.771,0 -4.795,0 c -2.655,0 -4.782,2.241 -4.782,4.996 l 0,22.004 c 0,1.388 0.541,2.642 1.403,3.547 C -18.76,4.439 -17.577,5 -16.251,5 L -2.885,5 C -1.56,5 -0.362,4.439 0.497,3.547 1.359,2.642 1.904,1.388 1.904,0 l 0,-18.855 0,-0.215 z"
             inkscape:connector-curvature="0"
             id="path22"
             style="fill:#444443;fill-opacity:1;fill-rule:nonzero;stroke:none" /></g><path
           d="m 26.463,12.164 -22.83,0 0,14 22.83,0 0,-14 z"
           inkscape:connector-curvature="0"
           id="path24"
           style="fill:#b4b3b3;fill-opacity:1;fill-rule:nonzero;stroke:none" /><g
           transform="translate(6.9902,15.8345)"
           id="g26"><path
             d="m 0,0 2.087,0 c 0.835,0 1.322,0.371 1.322,1.253 0,0.974 -0.266,1.519 -1.322,1.519 L 0,2.772 0,0 z m 0,3.932 2.087,0 c 0.835,0 1.322,0.371 1.322,1.252 0,0.974 -0.266,1.519 -1.322,1.519 L 0,6.703 0,3.932 z m -1.16,3.931 3.247,0 c 1.705,0 2.482,-1.044 2.482,-2.679 0,-0.672 -0.151,-1.287 -0.765,-1.832 0.66,-0.626 0.765,-1.241 0.765,-2.099 0,-1.52 -1.009,-2.412 -2.482,-2.412 l -3.247,0 0,9.022 z"
             inkscape:connector-curvature="0"
             id="path28"
             style="fill:#42ab3d;fill-opacity:1;fill-rule:nonzero;stroke:none" /></g><g
           transform="translate(13.9497,20.729)"
           id="g30"><path
             d="M 0,0 2.574,0 C 2.899,0 3.41,0.023 3.41,0.487 l 0,0.8 c 0,0.464 -0.476,0.522 -0.824,0.522 L 0,1.809 0,0 z m 0,-5.474 c 0,-0.37 -0.163,-0.579 -0.58,-0.579 -0.418,0 -0.58,0.209 -0.58,0.579 l 0,8.443 3.897,0 c 0.917,0 1.833,-0.65 1.833,-1.682 l 0,-0.8 C 4.57,-0.604 3.666,-1.16 2.737,-1.16 l -1.067,0 2.609,-3.735 c 0.127,-0.173 0.291,-0.393 0.291,-0.614 0,-0.324 -0.268,-0.544 -0.592,-0.544 -0.232,0 -0.383,0.138 -0.51,0.324 L 0.267,-1.16 0,-1.16 0,-5.474 z"
             inkscape:connector-curvature="0"
             id="path32"
             style="fill:#42ab3d;fill-opacity:1;fill-rule:nonzero;stroke:none" /></g><g
           transform="translate(21.6543,15.8345)"
           id="g34"><path
             d="m 0,0 0.221,0 c 0.488,0 0.603,0.059 0.812,0.487 l 1.02,2.065 c 0.129,0.266 0.22,0.464 0.22,0.754 0,0.394 -0.127,0.614 -0.289,0.95 L 1.021,6.216 C 0.777,6.715 0.674,6.703 0.141,6.703 L 0,6.703 0,0 z m -1.158,6.703 -0.43,0 c -0.383,0 -0.707,0.14 -0.707,0.58 0,0.418 0.313,0.58 0.672,0.58 l 1.937,0 c 0.905,0 1.356,-0.371 1.75,-1.16 L 3.086,4.662 C 3.316,4.187 3.434,3.851 3.434,3.317 3.434,2.854 3.307,2.459 3.098,2.042 L 2.041,-0.069 C 1.637,-0.893 1.113,-1.159 0.209,-1.159 l -1.924,0 c -0.303,0 -0.58,0.162 -0.58,0.58 0,0.417 0.277,0.579 0.58,0.579 l 0.557,0 0,6.703 z"
             inkscape:connector-curvature="0"
             id="path36"
             style="fill:#42ab3d;fill-opacity:1;fill-rule:nonzero;stroke:none" /></g></g></g></g></svg>