<?xml version="1.0" encoding="UTF-8" standalone="no"?>
<!-- Created with Inkscape (http://www.inkscape.org/) -->

<svg
   xmlns:dc="http://purl.org/dc/elements/1.1/"
   xmlns:cc="http://creativecommons.org/ns#"
   xmlns:rdf="http://www.w3.org/1999/02/22-rdf-syntax-ns#"
   xmlns:svg="http://www.w3.org/2000/svg"
   xmlns="http://www.w3.org/2000/svg"
   xmlns:inkscape="http://www.inkscape.org/namespaces/inkscape"
   version="1.1"
   width="40"
   height="40"
   id="svg2"
   xml:space="preserve"><metadata
     id="metadata8"><rdf:RDF><cc:Work
         rdf:about=""><dc:format>image/svg+xml</dc:format><dc:type
           rdf:resource="http://purl.org/dc/dcmitype/StillImage" /></cc:Work></rdf:RDF></metadata><defs
     id="defs6"><clipPath
       id="clipPath16"><path
         d="M 0,32 32,32 32,0 0,0 0,32 z"
         inkscape:connector-curvature="0"
         id="path18" /></clipPath></defs><g
     transform="matrix(1.25,0,0,-1.25,0,40)"
     id="g10"><g
       id="g12"><g
         clip-path="url(#clipPath16)"
         id="g14"><g
           transform="translate(32.0059,20.146)"
           id="g20"><path
             d="m 0,0 c 0,0 -3.185,-9.735 -9.729,-9.735 -1.813,0 -3.531,0.422 -5.066,1.142 l -10.568,-10.551 c -1.422,-1.425 -3.855,-1.325 -5.405,0.24 -1.565,1.535 -1.662,3.972 -0.24,5.404 l 10.565,10.564 c -0.72,1.536 -1.131,3.257 -1.131,5.063 0,6.548 8.87,9.727 9.091,9.727 0,0 1.988,0 3.8,-0.432 l -5.051,-5.051 c -2.109,-2.101 -1.961,-5.638 0.318,-7.917 2.282,-2.272 5.826,-2.43 7.93,-0.322 l 5.058,5.052 C -0.144,2.159 0,1.103 0,0"
             inkscape:connector-curvature="0"
             id="path22"
             style="fill:#444443;fill-opacity:1;fill-rule:nonzero;stroke:none" /></g><g
           transform="translate(3.3174,5.3301)"
           id="g24"><path
             d="m 0,0 c -0.561,-0.553 -0.569,-1.442 -0.02,-2.002 0.551,-0.559 1.449,-0.57 2.01,-0.018 l 1.944,1.879 C 4.49,0.408 4.503,1.318 3.953,1.877 3.402,2.436 2.501,2.428 1.944,1.879"
             inkscape:connector-curvature="0"
             id="path26"
             style="fill:#ffffff;fill-opacity:1;fill-rule:nonzero;stroke:none" /></g></g></g></g></svg>