<?xml version="1.0" encoding="UTF-8" standalone="no"?>
<!-- Created with Inkscape (http://www.inkscape.org/) -->

<svg
   xmlns:dc="http://purl.org/dc/elements/1.1/"
   xmlns:cc="http://creativecommons.org/ns#"
   xmlns:rdf="http://www.w3.org/1999/02/22-rdf-syntax-ns#"
   xmlns:svg="http://www.w3.org/2000/svg"
   xmlns="http://www.w3.org/2000/svg"
   xmlns:inkscape="http://www.inkscape.org/namespaces/inkscape"
   version="1.1"
   width="40"
   height="40"
   id="svg2"
   xml:space="preserve"><metadata
     id="metadata8"><rdf:RDF><cc:Work
         rdf:about=""><dc:format>image/svg+xml</dc:format><dc:type
           rdf:resource="http://purl.org/dc/dcmitype/StillImage" /></cc:Work></rdf:RDF></metadata><defs
     id="defs6"><clipPath
       id="clipPath16"><path
         d="M 0,32 32,32 32,0 0,0 0,32 z"
         inkscape:connector-curvature="0"
         id="path18" /></clipPath></defs><g
     transform="matrix(1.25,0,0,-1.25,0,40)"
     id="g10"><g
       id="g12"><g
         clip-path="url(#clipPath16)"
         id="g14"><g
           transform="translate(26.5684,15.9941)"
           id="g20"><path
             d="m 0,0 c 0,0.027 -0.009,0.083 -0.009,0.12 -0.013,-0.735 -0.052,-1.468 -0.207,-2.184 -0.983,-4.224 -4.584,-7.567 -8.863,-8.146 -4.443,-0.612 -8.991,1.953 -10.846,6.031 -1.86,4.065 -0.769,9.13 2.561,12.105 3.378,3.026 8.649,3.47 12.487,1.043 C -1.875,7.073 -0.022,3.663 -0.009,0.12 0,0.333 0,0.535 0,0.761 0,0.704 0.013,0.669 0.013,0.612 c 0,1.766 0,0.764 0,0 C 0.013,0.415 0.013,0.206 0,0 m -2.511,11.563 c -3.751,2.592 -8.734,3.154 -12.977,1.497 -0.923,-0.354 -2.595,-1.347 -3.452,-1.962 -0.376,-0.269 -0.723,-0.606 -1.059,-0.911 -1.326,-1.275 -2.396,-2.791 -3.145,-4.478 -1.052,-2.395 -1.399,-5.079 -1.008,-7.683 0.377,-2.433 1.415,-4.777 2.96,-6.703 0.022,-0.024 0.035,-0.055 0.057,-0.075 l 0,0.016 c -0.015,0 1.099,-1.168 1.21,-1.27 0.45,-0.429 0.94,-0.823 1.466,-1.189 1.013,-0.735 2.124,-1.309 3.302,-1.746 l 0,-0.021 c 2.469,-0.88 5.196,-1.076 7.771,-0.49 2.365,0.557 4.61,1.714 6.402,3.361 2.781,2.596 4.434,6.316 4.461,10.118 0.019,4.517 -2.272,8.961 -5.988,11.536"
             inkscape:connector-curvature="0"
             id="path22"
             style="fill:#444443;fill-opacity:1;fill-rule:nonzero;stroke:none" /></g></g></g></g></svg>