<?xml version="1.0" encoding="UTF-8" standalone="no"?>
<!-- Created with Inkscape (http://www.inkscape.org/) -->

<svg
   xmlns:dc="http://purl.org/dc/elements/1.1/"
   xmlns:cc="http://creativecommons.org/ns#"
   xmlns:rdf="http://www.w3.org/1999/02/22-rdf-syntax-ns#"
   xmlns:svg="http://www.w3.org/2000/svg"
   xmlns="http://www.w3.org/2000/svg"
   xmlns:inkscape="http://www.inkscape.org/namespaces/inkscape"
   version="1.1"
   width="40"
   height="40"
   id="svg2"
   xml:space="preserve"><metadata
     id="metadata8"><rdf:RDF><cc:Work
         rdf:about=""><dc:format>image/svg+xml</dc:format><dc:type
           rdf:resource="http://purl.org/dc/dcmitype/StillImage" /></cc:Work></rdf:RDF></metadata><defs
     id="defs6"><clipPath
       id="clipPath20"><path
         d="M 0,32 32,32 32,0 0,0 0,32 z"
         inkscape:connector-curvature="0"
         id="path22" /></clipPath></defs><g
     transform="matrix(1.25,0,0,-1.25,0,40)"
     id="g10"><g
       transform="translate(0,28.7037)"
       id="g12"><path
         d="m 0,0 0,-25.063 23.625,0 L 32,-12.688 23.687,0 0,0 z"
         inkscape:connector-curvature="0"
         id="path14"
         style="fill:#444443;fill-opacity:1;fill-rule:nonzero;stroke:none" /></g><g
       id="g16"><g
         clip-path="url(#clipPath20)"
         id="g18"><g
           transform="translate(16.791,23.3027)"
           id="g24"><path
             d="M 0,0 -2.916,-2.908 -5.866,0 c -1.14,1.15 -3.013,1.15 -4.184,0 -1.155,-1.17 -1.155,-3.024 0,-4.195 l 2.908,-2.926 -2.908,-2.927 c -1.155,-1.167 -1.155,-3.041 0,-4.214 1.171,-1.148 3.044,-1.148 4.184,0 l 2.95,2.926 L 0,-14.262 c 1.16,-1.148 3.057,-1.148 4.218,0 1.155,1.173 1.155,3.047 0,4.214 l -2.936,2.927 2.936,2.926 C 5.373,-3.024 5.373,-1.17 4.218,0 3.057,1.15 1.16,1.15 0,0"
             inkscape:connector-curvature="0"
             id="path26"
             style="fill:#ffffff;fill-opacity:1;fill-rule:nonzero;stroke:none" /></g><g
           transform="translate(16.791,23.3027)"
           id="g28"><path
             d="M 0,0 -2.916,-2.908 -5.866,0 c -1.14,1.15 -3.013,1.15 -4.184,0 -1.155,-1.17 -1.155,-3.024 0,-4.195 l 2.908,-2.926 -2.908,-2.927 c -1.155,-1.167 -1.155,-3.041 0,-4.214 1.171,-1.148 3.044,-1.148 4.184,0 l 2.95,2.926 L 0,-14.262 c 1.16,-1.148 3.057,-1.148 4.218,0 1.155,1.173 1.155,3.047 0,4.214 l -2.936,2.927 2.936,2.926 C 5.373,-3.024 5.373,-1.17 4.218,0 3.057,1.15 1.16,1.15 0,0 z"
             inkscape:connector-curvature="0"
             id="path30"
             style="fill:none;stroke:#444443;stroke-width:1;stroke-linecap:butt;stroke-linejoin:miter;stroke-miterlimit:10;stroke-opacity:1;stroke-dasharray:none" /></g></g></g></g></svg>