<?xml version="1.0" encoding="UTF-8" standalone="no"?>
<!-- Created with Inkscape (http://www.inkscape.org/) -->

<svg
   xmlns:dc="http://purl.org/dc/elements/1.1/"
   xmlns:cc="http://creativecommons.org/ns#"
   xmlns:rdf="http://www.w3.org/1999/02/22-rdf-syntax-ns#"
   xmlns:svg="http://www.w3.org/2000/svg"
   xmlns="http://www.w3.org/2000/svg"
   xmlns:inkscape="http://www.inkscape.org/namespaces/inkscape"
   version="1.1"
   width="40"
   height="40"
   id="svg2"
   xml:space="preserve"><metadata
     id="metadata8"><rdf:RDF><cc:Work
         rdf:about=""><dc:format>image/svg+xml</dc:format><dc:type
           rdf:resource="http://purl.org/dc/dcmitype/StillImage" /></cc:Work></rdf:RDF></metadata><defs
     id="defs6"><clipPath
       id="clipPath20"><path
         d="M 0,32 32,32 32,0 0,0 0,32 z"
         inkscape:connector-curvature="0"
         id="path22" /></clipPath></defs><g
     transform="matrix(1.25,0,0,-1.25,0,40)"
     id="g10"><g
       transform="translate(6.3126,32.0004)"
       id="g12"><path
         d="M 0,0 0,-11.688 0,0 z"
         inkscape:connector-curvature="0"
         id="path14"
         style="fill:#2b74b9;fill-opacity:1;fill-rule:nonzero;stroke:none" /></g><g
       id="g16"><g
         clip-path="url(#clipPath20)"
         id="g18"><g
           transform="translate(6.3125,20.3125)"
           id="g24"><path
             d="M 0,0 0,11.688"
             inkscape:connector-curvature="0"
             id="path26"
             style="fill:none;stroke:#2b74b9;stroke-width:3.5;stroke-linecap:butt;stroke-linejoin:miter;stroke-miterlimit:10;stroke-opacity:1;stroke-dasharray:none" /></g><g
           transform="translate(4.4561,13.6367)"
           id="g28"><path
             d="M 0,0 C 1.335,-0.939 3.158,-0.618 4.086,0.701 5.032,2.042 4.735,3.885 3.401,4.827 2.067,5.767 0.233,5.425 -0.713,4.082 -1.642,2.765 -1.335,0.941 0,0 M 5.219,7.406 C 7.97,5.468 8.652,1.648 6.691,-1.137 4.758,-3.876 0.92,-4.533 -1.83,-2.597 c -2.757,1.945 -3.402,5.763 -1.471,8.502 1.963,2.785 5.763,3.447 8.52,1.501"
             inkscape:connector-curvature="0"
             id="path30"
             style="fill:#42ab3d;fill-opacity:1;fill-rule:nonzero;stroke:none" /></g><g
           transform="translate(24.1426,13.6367)"
           id="g32"><path
             d="M 0,0 C 1.336,-0.939 3.158,-0.618 4.086,0.701 5.033,2.043 4.736,3.885 3.402,4.827 2.068,5.767 0.234,5.425 -0.713,4.082 -1.641,2.765 -1.334,0.941 0,0 M 5.221,7.406 C 7.971,5.468 8.652,1.648 6.691,-1.137 4.76,-3.876 0.922,-4.533 -1.83,-2.597 -4.586,-0.652 -5.232,3.166 -3.301,5.905 -1.338,8.69 2.463,9.352 5.221,7.406"
             inkscape:connector-curvature="0"
             id="path34"
             style="fill:#42ab3d;fill-opacity:1;fill-rule:nonzero;stroke:none" /></g></g></g></g></svg>