<?xml version="1.0" encoding="UTF-8" standalone="no"?>
<!-- Created with Inkscape (http://www.inkscape.org/) -->

<svg
   xmlns:dc="http://purl.org/dc/elements/1.1/"
   xmlns:cc="http://creativecommons.org/ns#"
   xmlns:rdf="http://www.w3.org/1999/02/22-rdf-syntax-ns#"
   xmlns:svg="http://www.w3.org/2000/svg"
   xmlns="http://www.w3.org/2000/svg"
   xmlns:inkscape="http://www.inkscape.org/namespaces/inkscape"
   version="1.1"
   width="40"
   height="40"
   id="svg2"
   xml:space="preserve"><metadata
     id="metadata8"><rdf:RDF><cc:Work
         rdf:about=""><dc:format>image/svg+xml</dc:format><dc:type
           rdf:resource="http://purl.org/dc/dcmitype/StillImage" /></cc:Work></rdf:RDF></metadata><defs
     id="defs6"><clipPath
       id="clipPath16"><path
         d="M 0,32 32,32 32,0 0,0 0,32 z"
         inkscape:connector-curvature="0"
         id="path18" /></clipPath></defs><g
     transform="matrix(1.25,0,0,-1.25,0,40)"
     id="g10"><g
       id="g12"><g
         clip-path="url(#clipPath16)"
         id="g14"><g
           transform="translate(21.9063,4.21)"
           id="g20"><path
             d="m 0,0 c 0,-0.688 -0.271,-1.309 -0.746,-1.789 -0.481,-0.482 -1.121,-0.734 -1.795,-0.734 l -11.783,0 c -0.683,0 -1.316,0.252 -1.788,0.734 -0.48,0.48 -0.743,1.101 -0.743,1.789 l 0,18.531 c 0,1.387 1.135,2.521 2.531,2.521 l 4.226,0 3.325,0 1.702,0 0.014,0 0,-5.173 5.057,0 L 0,0 z m 1.678,16.061 c -0.026,0.424 -0.201,0.825 -0.492,1.126 l -5.053,5.057 c -0.326,0.315 -0.743,0.493 -1.204,0.493 l -1.702,0 -3.325,0 -4.226,0 c -2.341,0 -4.215,-1.887 -4.215,-4.206 l 0,-18.531 c 0,-1.168 0.477,-2.223 1.237,-2.985 0.767,-0.752 1.81,-1.225 2.978,-1.225 l 11.783,0 c 1.166,0 2.223,0.473 2.978,1.225 0.762,0.762 1.241,1.817 1.241,2.985 l 0,15.879 0,0.182 z"
             inkscape:connector-curvature="0"
             id="path22"
             style="fill:#444443;fill-opacity:1;fill-rule:nonzero;stroke:none" /></g><g
           transform="translate(28.625,25.3193)"
           id="g24"><path
             d="m 0,0 c -0.023,0.426 -0.195,0.837 -0.494,1.135 l -5.049,5.05 C -5.861,6.5 -6.283,6.681 -6.732,6.681 l -1.713,0 -3.32,0 -4.232,0 c -2.053,0 -3.736,-1.446 -4.128,-3.378 l 1.743,0 c 0.351,0.987 1.288,1.689 2.385,1.689 l 4.232,0 3.32,0 1.713,0 0.013,-0.011 0,-5.168 5.026,0 0,-15.872 c 0,-0.675 -0.256,-1.319 -0.729,-1.782 -0.267,-0.271 -0.58,-0.462 -0.943,-0.599 l 0,-1.741 c 0.83,0.165 1.566,0.573 2.125,1.148 0.773,0.763 1.24,1.805 1.24,2.974 l 0,15.872 0.008,0 c 0,0.068 0,0.129 -0.008,0.187"
             inkscape:connector-curvature="0"
             id="path26"
             style="fill:#444443;fill-opacity:1;fill-rule:nonzero;stroke:none" /></g><path
           d="m 15.838,5.021 -7.619,0 0,7.617 7.619,0 0,-7.617 z"
           inkscape:connector-curvature="0"
           id="path28"
           style="fill:#737372;fill-opacity:1;fill-rule:nonzero;stroke:none" /></g></g></g></svg>