<?xml version="1.0" encoding="UTF-8" standalone="no"?>
<!-- Created with Inkscape (http://www.inkscape.org/) -->

<svg
   xmlns:dc="http://purl.org/dc/elements/1.1/"
   xmlns:cc="http://creativecommons.org/ns#"
   xmlns:rdf="http://www.w3.org/1999/02/22-rdf-syntax-ns#"
   xmlns:svg="http://www.w3.org/2000/svg"
   xmlns="http://www.w3.org/2000/svg"
   xmlns:inkscape="http://www.inkscape.org/namespaces/inkscape"
   version="1.1"
   width="40"
   height="40"
   id="svg2"
   xml:space="preserve"><metadata
     id="metadata8"><rdf:RDF><cc:Work
         rdf:about=""><dc:format>image/svg+xml</dc:format><dc:type
           rdf:resource="http://purl.org/dc/dcmitype/StillImage" /></cc:Work></rdf:RDF></metadata><defs
     id="defs6"><clipPath
       id="clipPath16"><path
         d="M 0,32 32,32 32,0 0,0 0,32 z"
         inkscape:connector-curvature="0"
         id="path18" /></clipPath></defs><g
     transform="matrix(1.25,0,0,-1.25,0,40)"
     id="g10"><g
       id="g12"><g
         clip-path="url(#clipPath16)"
         id="g14"><g
           transform="translate(25.2666,9.9482)"
           id="g20"><path
             d="m 0,0 c 0,-1.108 0.896,-2.005 2.008,-2.005 1.109,0 2.007,0.897 2.007,2.005 0,1.112 -0.898,2.013 -2.007,2.013 C 0.896,2.013 0,1.112 0,0 m 2.008,4.696 c 2.582,0 4.68,-2.101 4.68,-4.696 0,-2.589 -2.098,-4.685 -4.68,-4.685 -2.592,0 -4.687,2.096 -4.687,4.685 0,2.595 2.095,4.696 4.687,4.696"
             inkscape:connector-curvature="0"
             id="path22"
             style="fill:#444443;fill-opacity:1;fill-rule:nonzero;stroke:none" /></g><g
           transform="translate(25.2666,23.2236)"
           id="g24"><path
             d="m 0,0 c 0,-1.109 0.896,-2.012 2.008,-2.012 1.109,0 2.007,0.903 2.007,2.012 0,1.108 -0.898,2.008 -2.007,2.008 C 0.896,2.008 0,1.108 0,0 m 2.008,4.677 c 2.582,0 4.68,-2.093 4.68,-4.677 0,-2.597 -2.098,-4.696 -4.68,-4.696 -2.592,0 -4.687,2.099 -4.687,4.696 0,2.584 2.095,4.677 4.687,4.677"
             inkscape:connector-curvature="0"
             id="path26"
             style="fill:#444443;fill-opacity:1;fill-rule:nonzero;stroke:none" /></g><g
           transform="translate(1.6279,22.1255)"
           id="g28"><path
             d="M 0,0 21.56,-5.598 -0.02,-12.171"
             inkscape:connector-curvature="0"
             id="path30"
             style="fill:none;stroke:#444443;stroke-width:3.20000005;stroke-linecap:round;stroke-linejoin:round;stroke-miterlimit:10;stroke-opacity:1;stroke-dasharray:none" /></g></g></g></g></svg>