<?xml version="1.0" encoding="UTF-8" standalone="no"?>
<!-- Created with Inkscape (http://www.inkscape.org/) -->

<svg
   xmlns:dc="http://purl.org/dc/elements/1.1/"
   xmlns:cc="http://creativecommons.org/ns#"
   xmlns:rdf="http://www.w3.org/1999/02/22-rdf-syntax-ns#"
   xmlns:svg="http://www.w3.org/2000/svg"
   xmlns="http://www.w3.org/2000/svg"
   xmlns:inkscape="http://www.inkscape.org/namespaces/inkscape"
   version="1.1"
   width="40"
   height="40"
   id="svg2"
   xml:space="preserve"><metadata
     id="metadata8"><rdf:RDF><cc:Work
         rdf:about=""><dc:format>image/svg+xml</dc:format><dc:type
           rdf:resource="http://purl.org/dc/dcmitype/StillImage" /></cc:Work></rdf:RDF></metadata><defs
     id="defs6"><clipPath
       id="clipPath16"><path
         d="M 0,32 32,32 32,0 0,0 0,32 z"
         inkscape:connector-curvature="0"
         id="path18" /></clipPath></defs><g
     transform="matrix(1.25,0,0,-1.25,0,40)"
     id="g10"><g
       id="g12"><g
         clip-path="url(#clipPath16)"
         id="g14"><g
           transform="translate(23.8145,6.2764)"
           id="g20"><path
             d="m 0,0 c 0,-0.748 -0.508,-1.361 -1.125,-1.361 -0.609,0 -1.115,0.613 -1.115,1.361 l 0,14.572 c 0,0.736 0.506,1.345 1.115,1.345 C -0.508,15.917 0,15.308 0,14.572 L 0,0 z m -6.68,0 c 0,-0.748 -0.518,-1.361 -1.128,-1.361 -0.615,0 -1.125,0.613 -1.125,1.361 l 0,14.572 c 0,0.736 0.51,1.345 1.125,1.345 0.61,0 1.128,-0.609 1.128,-1.345 L -6.68,0 z m -6.703,0 c 0,-0.748 -0.498,-1.361 -1.132,-1.361 -0.614,0 -1.103,0.613 -1.103,1.361 l 0,14.502 c 0,0.736 0.489,1.346 1.103,1.346 0.634,0 1.132,-0.61 1.132,-1.346 l 0,-14.502 z m -5.103,18.644 0,-20.067 c 0,-2.665 1.795,-4.816 4.011,-4.816 l 13.334,0 c 2.207,0 3.998,2.151 3.998,4.816 l 0,20.067 -21.343,0 z"
             inkscape:connector-curvature="0"
             id="path22"
             style="fill:#444443;fill-opacity:1;fill-rule:nonzero;stroke:none" /></g><g
           transform="translate(25.0957,30.4751)"
           id="g24"><path
             d="m 0,0 -6.062,0 c 0,0.845 -0.684,1.522 -1.514,1.522 l -3.035,0 c -0.842,0 -1.517,-0.677 -1.517,-1.522 l -6.073,0 c -0.838,0 -1.515,-0.67 -1.515,-1.515 0,-0.832 0.677,-1.51 1.515,-1.51 l 18.201,0 c 0.838,0 1.525,0.678 1.525,1.51 C 1.525,-0.67 0.838,0 0,0"
             inkscape:connector-curvature="0"
             id="path26"
             style="fill:#444443;fill-opacity:1;fill-rule:nonzero;stroke:none" /></g></g></g></g></svg>