<?xml version="1.0" encoding="UTF-8" standalone="no"?>
<!-- Created with Inkscape (http://www.inkscape.org/) -->

<svg
   xmlns:dc="http://purl.org/dc/elements/1.1/"
   xmlns:cc="http://creativecommons.org/ns#"
   xmlns:rdf="http://www.w3.org/1999/02/22-rdf-syntax-ns#"
   xmlns:svg="http://www.w3.org/2000/svg"
   xmlns="http://www.w3.org/2000/svg"
   xmlns:inkscape="http://www.inkscape.org/namespaces/inkscape"
   version="1.1"
   width="40"
   height="40"
   id="svg2"
   xml:space="preserve"><metadata
     id="metadata8"><rdf:RDF><cc:Work
         rdf:about=""><dc:format>image/svg+xml</dc:format><dc:type
           rdf:resource="http://purl.org/dc/dcmitype/StillImage" /></cc:Work></rdf:RDF></metadata><defs
     id="defs6"><clipPath
       id="clipPath16"><path
         d="M 0,32 32,32 32,0 0,0 0,32 z"
         inkscape:connector-curvature="0"
         id="path18" /></clipPath></defs><g
     transform="matrix(1.25,0,0,-1.25,0,40)"
     id="g10"><g
       id="g12"><g
         clip-path="url(#clipPath16)"
         id="g14"><g
           transform="translate(8.502,19.3887)"
           id="g20"><path
             d="m 0,0 -2.975,-3.004 c -0.176,-0.164 -0.178,-0.441 0.003,-0.602 l 3.005,-2.978 c 0.261,-0.267 0.725,-0.071 0.723,0.311 L 0.752,-4.998 0.733,-1.581 0.727,-0.29 C 0.723,0.075 0.258,0.264 0,0"
             inkscape:connector-curvature="0"
             id="path22"
             style="fill:#444443;fill-opacity:1;fill-rule:nonzero;stroke:none" /></g><g
           transform="translate(23.5,12.6104)"
           id="g24"><path
             d="M 0,0 2.975,3.007 C 3.148,3.17 3.15,3.448 2.974,3.605 L -0.034,6.586 C -0.291,6.851 -0.758,6.657 -0.756,6.275 L -0.728,4.098 -14.367,4.085 -14.396,2.66 -0.758,2.667 -0.727,0.292 C -0.725,-0.073 -0.259,-0.264 0,0"
             inkscape:connector-curvature="0"
             id="path26"
             style="fill:#444443;fill-opacity:1;fill-rule:nonzero;stroke:none" /></g><g
           transform="translate(30.5,16)"
           id="g28"><path
             d="m 0,0 c 0,-8.008 -6.492,-14.5 -14.5,-14.5 -8.008,0 -14.5,6.492 -14.5,14.5 0,8.008 6.492,14.5 14.5,14.5 C -6.492,14.5 0,8.008 0,0 z"
             inkscape:connector-curvature="0"
             id="path30"
             style="fill:none;stroke:#8a8a89;stroke-width:3;stroke-linecap:round;stroke-linejoin:round;stroke-miterlimit:10;stroke-opacity:1;stroke-dasharray:none" /></g></g></g></g></svg>