<?xml version="1.0" encoding="UTF-8" standalone="no"?>
<!-- Created with Inkscape (http://www.inkscape.org/) -->

<svg
   xmlns:dc="http://purl.org/dc/elements/1.1/"
   xmlns:cc="http://creativecommons.org/ns#"
   xmlns:rdf="http://www.w3.org/1999/02/22-rdf-syntax-ns#"
   xmlns:svg="http://www.w3.org/2000/svg"
   xmlns="http://www.w3.org/2000/svg"
   xmlns:inkscape="http://www.inkscape.org/namespaces/inkscape"
   version="1.1"
   width="40"
   height="40"
   id="svg2"
   xml:space="preserve"><metadata
     id="metadata8"><rdf:RDF><cc:Work
         rdf:about=""><dc:format>image/svg+xml</dc:format><dc:type
           rdf:resource="http://purl.org/dc/dcmitype/StillImage" /></cc:Work></rdf:RDF></metadata><defs
     id="defs6"><clipPath
       id="clipPath16"><path
         d="M 0,32 32,32 32,0 0,0 0,32 z"
         inkscape:connector-curvature="0"
         id="path18" /></clipPath></defs><g
     transform="matrix(1.25,0,0,-1.25,0,40)"
     id="g10"><g
       id="g12"><g
         clip-path="url(#clipPath16)"
         id="g14"><g
           transform="translate(22.8252,20.2598)"
           id="g20"><path
             d="M 0,0 -0.66,4.179 C -0.687,4.414 -0.911,4.582 -1.143,4.531 L -5.325,3.875 C -5.692,3.825 -5.812,3.335 -5.503,3.109 l 1.873,-1.342 -6.565,-8.927 1.056,-0.776 6.541,8.907 1.932,-1.383 C -0.371,-0.627 0.059,-0.365 0,0"
             inkscape:connector-curvature="0"
             id="path22"
             style="fill:#444443;fill-opacity:1;fill-rule:nonzero;stroke:none" /></g><g
           transform="translate(30.5,16)"
           id="g24"><path
             d="m 0,0 c 0,-8.008 -6.492,-14.5 -14.5,-14.5 -8.008,0 -14.5,6.492 -14.5,14.5 0,8.008 6.492,14.5 14.5,14.5 C -6.492,14.5 0,8.008 0,0 z"
             inkscape:connector-curvature="0"
             id="path26"
             style="fill:none;stroke:#8a8a89;stroke-width:3;stroke-linecap:round;stroke-linejoin:round;stroke-miterlimit:10;stroke-opacity:1;stroke-dasharray:none" /></g></g></g></g></svg>