<?xml version="1.0" encoding="UTF-8" standalone="no"?>
<!-- Created with Inkscape (http://www.inkscape.org/) -->

<svg
   xmlns:dc="http://purl.org/dc/elements/1.1/"
   xmlns:cc="http://creativecommons.org/ns#"
   xmlns:rdf="http://www.w3.org/1999/02/22-rdf-syntax-ns#"
   xmlns:svg="http://www.w3.org/2000/svg"
   xmlns="http://www.w3.org/2000/svg"
   xmlns:inkscape="http://www.inkscape.org/namespaces/inkscape"
   version="1.1"
   width="40"
   height="40"
   id="svg2"
   xml:space="preserve"><metadata
     id="metadata8"><rdf:RDF><cc:Work
         rdf:about=""><dc:format>image/svg+xml</dc:format><dc:type
           rdf:resource="http://purl.org/dc/dcmitype/StillImage" /></cc:Work></rdf:RDF></metadata><defs
     id="defs6"><clipPath
       id="clipPath18"><path
         d="M 0,32 32,32 32,0 0,0 0,32 z"
         inkscape:connector-curvature="0"
         id="path20" /></clipPath></defs><g
     transform="matrix(1.25,0,0,-1.25,0,40)"
     id="g10"><path
       d="m 0.043,7.968 25.8,0 0,24.033 -25.8,0 0,-24.033 z"
       inkscape:connector-curvature="0"
       id="path12"
       style="fill:#b4b3b3;fill-opacity:1;fill-rule:nonzero;stroke:none" /><g
       id="g14"><g
         clip-path="url(#clipPath18)"
         id="g16"><g
           transform="translate(32.4365,9.1211)"
           id="g22"><path
             d="m 0,0 c 0,-5.312 -4.306,-9.618 -9.618,-9.618 -5.314,0 -9.619,4.306 -9.619,9.618 0,5.313 4.305,9.619 9.619,9.619 C -4.306,9.619 0,5.313 0,0"
             inkscape:connector-curvature="0"
             id="path24"
             style="fill:#79b935;fill-opacity:1;fill-rule:nonzero;stroke:none" /></g><g
           transform="translate(32.4365,9.1211)"
           id="g26"><path
             d="m 0,0 c 0,-5.312 -4.306,-9.618 -9.618,-9.618 -5.314,0 -9.619,4.306 -9.619,9.618 0,5.313 4.305,9.619 9.619,9.619 C -4.306,9.619 0,5.313 0,0 z"
             inkscape:connector-curvature="0"
             id="path28"
             style="fill:none;stroke:#ffffff;stroke-width:1;stroke-linecap:butt;stroke-linejoin:miter;stroke-miterlimit:10;stroke-opacity:1;stroke-dasharray:none" /></g><g
           transform="translate(27.0498,12.1143)"
           id="g30"><path
             d="m 0,0 c -0.448,0.446 -1.172,0.446 -1.616,0 l -3.612,-3.562 -1.622,1.625 c -0.443,0.446 -1.169,0.446 -1.617,0 -0.445,-0.45 -0.445,-1.175 0,-1.625 l 2.428,-2.427 c 0.449,-0.444 1.175,-0.444 1.623,0 L 0,-1.617 C 0.451,-1.169 0.451,-0.448 0,0"
             inkscape:connector-curvature="0"
             id="path32"
             style="fill:#ffffff;fill-opacity:1;fill-rule:nonzero;stroke:none" /></g><g
           transform="translate(6.896,25.5195)"
           id="g34"><path
             d="M 0,0 C -0.694,-0.988 -0.457,-2.336 0.52,-3.022 1.512,-3.723 2.874,-3.503 3.571,-2.516 4.266,-1.529 4.014,-0.173 3.02,0.527 2.045,1.214 0.697,0.987 0,0 M 5.479,-3.86 C 4.045,-5.896 1.221,-6.4 -0.84,-4.949 -2.866,-3.52 -3.352,-0.681 -1.92,1.353 -0.482,3.392 2.342,3.87 4.369,2.441 6.428,0.99 6.918,-1.822 5.479,-3.86"
             inkscape:connector-curvature="0"
             id="path36"
             style="fill:#444443;fill-opacity:1;fill-rule:nonzero;stroke:none" /></g><g
           transform="translate(12.1353,24.6284)"
           id="g38"><path
             d="M 0,0 13.718,0"
             inkscape:connector-curvature="0"
             id="path40"
             style="fill:none;stroke:#444443;stroke-width:3;stroke-linecap:butt;stroke-linejoin:miter;stroke-miterlimit:10;stroke-opacity:1;stroke-dasharray:none" /></g><g
           transform="translate(5e-4,24.6284)"
           id="g42"><path
             d="M 0,0 4.551,0"
             inkscape:connector-curvature="0"
             id="path44"
             style="fill:none;stroke:#444443;stroke-width:3;stroke-linecap:butt;stroke-linejoin:miter;stroke-miterlimit:10;stroke-opacity:1;stroke-dasharray:none" /></g></g></g></g></svg>