<?xml version="1.0" encoding="UTF-8" standalone="no"?>
<!-- Created with Inkscape (http://www.inkscape.org/) -->

<svg
   xmlns:dc="http://purl.org/dc/elements/1.1/"
   xmlns:cc="http://creativecommons.org/ns#"
   xmlns:rdf="http://www.w3.org/1999/02/22-rdf-syntax-ns#"
   xmlns:svg="http://www.w3.org/2000/svg"
   xmlns="http://www.w3.org/2000/svg"
   xmlns:inkscape="http://www.inkscape.org/namespaces/inkscape"
   version="1.1"
   width="40"
   height="40"
   id="svg2"
   xml:space="preserve"><metadata
     id="metadata8"><rdf:RDF><cc:Work
         rdf:about=""><dc:format>image/svg+xml</dc:format><dc:type
           rdf:resource="http://purl.org/dc/dcmitype/StillImage" /></cc:Work></rdf:RDF></metadata><defs
     id="defs6"><clipPath
       id="clipPath22"><path
         d="M 0,32 32,32 32,0 0,0 0,32 z"
         inkscape:connector-curvature="0"
         id="path24" /></clipPath></defs><g
     transform="matrix(1.25,0,0,-1.25,0,40)"
     id="g10"><path
       d="m 0.013,0.026 31.954,0 0,31.974 -31.954,0 0,-31.974 z"
       inkscape:connector-curvature="0"
       id="path12"
       style="fill:#b4b3b3;fill-opacity:1;fill-rule:nonzero;stroke:none" /><g
       transform="translate(16.2189,23.7096)"
       id="g14"><path
         d="M 0,0 15.781,0 0,0 z"
         inkscape:connector-curvature="0"
         id="path16"
         style="fill:#444443;fill-opacity:1;fill-rule:nonzero;stroke:none" /></g><g
       id="g18"><g
         clip-path="url(#clipPath22)"
         id="g20"><g
           transform="translate(16.2188,23.7095)"
           id="g26"><path
             d="M 0,0 15.781,0"
             inkscape:connector-curvature="0"
             id="path28"
             style="fill:none;stroke:#444443;stroke-width:2;stroke-linecap:butt;stroke-linejoin:miter;stroke-miterlimit:10;stroke-opacity:1;stroke-dasharray:none" /></g><g
           transform="translate(0.0479,23.7095)"
           id="g30"><path
             d="M 0,0 7.155,0"
             inkscape:connector-curvature="0"
             id="path32"
             style="fill:none;stroke:#444443;stroke-width:2;stroke-linecap:butt;stroke-linejoin:miter;stroke-miterlimit:10;stroke-opacity:1;stroke-dasharray:none" /></g><g
           transform="translate(26.4854,10.0908)"
           id="g34"><path
             d="M 0,0 5.48,0"
             inkscape:connector-curvature="0"
             id="path36"
             style="fill:none;stroke:#444443;stroke-width:2;stroke-linecap:butt;stroke-linejoin:miter;stroke-miterlimit:10;stroke-opacity:1;stroke-dasharray:none" /></g><g
           transform="translate(0.022,10.0908)"
           id="g38"><path
             d="M 0,0 18.967,0"
             inkscape:connector-curvature="0"
             id="path40"
             style="fill:none;stroke:#444443;stroke-width:2;stroke-linecap:butt;stroke-linejoin:miter;stroke-miterlimit:10;stroke-opacity:1;stroke-dasharray:none" /></g><g
           transform="translate(9.3525,24.9863)"
           id="g42"><path
             d="m 0,0 c -0.927,-1.32 -0.61,-3.122 0.692,-4.04 1.323,-0.935 3.139,-0.64 4.07,0.679 0.925,1.317 0.59,3.13 -0.736,4.066 C 2.726,1.622 0.929,1.317 0,0 M 6.43,-4.535 C 4.857,-6.766 1.761,-7.32 -0.5,-5.728 -2.724,-4.16 -3.255,-1.048 -1.685,1.184 -0.107,3.42 2.989,3.943 5.213,2.377 7.471,0.784 8.008,-2.299 6.43,-4.535"
             inkscape:connector-curvature="0"
             id="path44"
             style="fill:#444443;fill-opacity:1;fill-rule:nonzero;stroke:none" /></g><g
           transform="translate(20.3174,11.3682)"
           id="g46"><path
             d="m 0,0 c -0.927,-1.321 -0.609,-3.121 0.693,-4.04 1.326,-0.933 3.14,-0.643 4.069,0.679 0.925,1.317 0.592,3.129 -0.737,4.066 C 2.727,1.621 0.93,1.318 0,0 M 6.431,-4.536 C 4.859,-6.768 1.762,-7.318 -0.498,-5.729 -2.722,-4.16 -3.254,-1.048 -1.683,1.184 -0.106,3.42 2.989,3.942 5.214,2.377 7.469,0.785 8.009,-2.3 6.431,-4.536"
             inkscape:connector-curvature="0"
             id="path48"
             style="fill:#444443;fill-opacity:1;fill-rule:nonzero;stroke:none" /></g></g></g></g></svg>