<?xml version="1.0" encoding="UTF-8" standalone="no"?>
<!-- Created with Inkscape (http://www.inkscape.org/) -->

<svg
   xmlns:dc="http://purl.org/dc/elements/1.1/"
   xmlns:cc="http://creativecommons.org/ns#"
   xmlns:rdf="http://www.w3.org/1999/02/22-rdf-syntax-ns#"
   xmlns:svg="http://www.w3.org/2000/svg"
   xmlns="http://www.w3.org/2000/svg"
   xmlns:inkscape="http://www.inkscape.org/namespaces/inkscape"
   version="1.1"
   width="40"
   height="40"
   id="svg2"
   xml:space="preserve"><metadata
     id="metadata8"><rdf:RDF><cc:Work
         rdf:about=""><dc:format>image/svg+xml</dc:format><dc:type
           rdf:resource="http://purl.org/dc/dcmitype/StillImage" /></cc:Work></rdf:RDF></metadata><defs
     id="defs6"><clipPath
       id="clipPath20"><path
         d="M 0,32 32,32 32,0 0,0 0,32 z"
         inkscape:connector-curvature="0"
         id="path22" /></clipPath></defs><g
     transform="matrix(1.25,0,0,-1.25,0,40)"
     id="g10"><path
       d="m 0.043,7.968 25.8,0 0,24.033 -25.8,0 0,-24.033 z"
       inkscape:connector-curvature="0"
       id="path14"
       style="fill:#b4b3b3;fill-opacity:1;fill-rule:nonzero;stroke:none" /><g
       id="g16"><g
         clip-path="url(#clipPath20)"
         id="g18"><g
           transform="translate(6.896,25.5195)"
           id="g24"><path
             d="M 0,0 C -0.694,-0.988 -0.457,-2.336 0.52,-3.022 1.512,-3.723 2.874,-3.503 3.571,-2.516 4.266,-1.529 4.014,-0.173 3.02,0.527 2.045,1.214 0.697,0.987 0,0 M 5.479,-3.86 C 4.045,-5.896 1.221,-6.4 -0.84,-4.949 -2.866,-3.52 -3.352,-0.681 -1.92,1.353 -0.482,3.392 2.342,3.87 4.369,2.441 6.428,0.99 6.918,-1.822 5.479,-3.86"
             inkscape:connector-curvature="0"
             id="path26"
             style="fill:#444443;fill-opacity:1;fill-rule:nonzero;stroke:none" /></g><g
           transform="translate(12.1353,24.6284)"
           id="g28"><path
             d="M 0,0 13.718,0"
             inkscape:connector-curvature="0"
             id="path30"
             style="fill:none;stroke:#444443;stroke-width:3;stroke-linecap:butt;stroke-linejoin:miter;stroke-miterlimit:10;stroke-opacity:1;stroke-dasharray:none" /></g><g
           transform="translate(5e-4,24.6284)"
           id="g32"><path
             d="M 0,0 4.551,0"
             inkscape:connector-curvature="0"
             id="path34"
             style="fill:none;stroke:#444443;stroke-width:3;stroke-linecap:butt;stroke-linejoin:miter;stroke-miterlimit:10;stroke-opacity:1;stroke-dasharray:none" /></g><g
           transform="translate(21.5557,6.499)"
           id="g36"><path
             d="m 0,0 0,-0.258 c 0,-1.006 1.217,-1.588 2.003,-0.928 l 7.324,6.102 c 0.58,0.479 0.58,2.387 0,2.873 l -7.324,6.103 c -0.785,0.651 -2.892,0.077 -2.892,-0.941 l 0,-4.654 -9.666,0 0,-8.297 L 0,0 z"
             inkscape:connector-curvature="0"
             id="path38"
             style="fill:#ffffff;fill-opacity:1;fill-rule:nonzero;stroke:none" /></g><g
           transform="translate(22.5488,7.9355)"
           id="g40"><path
             d="M 0,0 0,-3.553 C 0,-4.527 1.178,-5.091 1.938,-4.451 L 9.03,1.457 c 0.562,0.463 0.562,1.342 0,1.813 L 1.938,9.18 C 1.178,9.812 0,9.254 0,8.268 l 0,-3.539 -9.59,0 L -9.59,0 0,0 z"
             inkscape:connector-curvature="0"
             id="path42"
             style="fill:#444443;fill-opacity:1;fill-rule:nonzero;stroke:none" /></g></g></g></g></svg>