<?xml version="1.0" encoding="UTF-8" standalone="no"?>
<!-- Created with Inkscape (http://www.inkscape.org/) -->

<svg
   xmlns:dc="http://purl.org/dc/elements/1.1/"
   xmlns:cc="http://creativecommons.org/ns#"
   xmlns:rdf="http://www.w3.org/1999/02/22-rdf-syntax-ns#"
   xmlns:svg="http://www.w3.org/2000/svg"
   xmlns="http://www.w3.org/2000/svg"
   xmlns:inkscape="http://www.inkscape.org/namespaces/inkscape"
   version="1.1"
   width="40"
   height="40"
   id="svg2"
   xml:space="preserve"><metadata
     id="metadata8"><rdf:RDF><cc:Work
         rdf:about=""><dc:format>image/svg+xml</dc:format><dc:type
           rdf:resource="http://purl.org/dc/dcmitype/StillImage" /></cc:Work></rdf:RDF></metadata><defs
     id="defs6"><clipPath
       id="clipPath18"><path
         d="M 0,32 32,32 32,0 0,0 0,32 z"
         inkscape:connector-curvature="0"
         id="path20" /></clipPath></defs><g
     transform="matrix(1.25,0,0,-1.25,0,40)"
     id="g10"><g
       id="g14"><g
         clip-path="url(#clipPath18)"
         id="g16"><g
           transform="translate(1.0601,10.4346)"
           id="g22"><path
             d="m 0,0 c -0.588,0 -1.06,-0.547 -1.06,-1.233 0,-0.691 0.472,-1.248 1.06,-1.248 l 8.792,0 c 0.585,0 1.068,0.557 1.068,1.248 C 9.86,-0.547 9.377,0 8.792,0"
             inkscape:connector-curvature="0"
             id="path24"
             style="fill:#444443;fill-opacity:1;fill-rule:nonzero;stroke:none" /></g><g
           transform="translate(1.0464,23.8433)"
           id="g26"><path
             d="m 0,0 c -0.58,0 -1.046,-0.547 -1.046,-1.233 0,-0.691 0.466,-1.248 1.046,-1.248 l 9.073,0 c 0.578,0 0.036,0.626 0.036,1.316 C 9.109,-0.478 9.651,0 9.073,0"
             inkscape:connector-curvature="0"
             id="path28"
             style="fill:#444443;fill-opacity:1;fill-rule:nonzero;stroke:none" /></g><g
           transform="translate(10.1191,31.0142)"
           id="g30"><path
             d="m 0,0 0,-30 c 0,0 13.896,1.533 13.896,14.34 C 13.896,-1.44 2.666,0 0,0 z"
             inkscape:connector-curvature="0"
             id="path32"
             style="fill:none;stroke:#444443;stroke-width:2;stroke-linecap:butt;stroke-linejoin:round;stroke-miterlimit:10;stroke-opacity:1;stroke-dasharray:none" /></g><g
           transform="translate(31.7236,23.7573)"
           id="g34"><path
             d="m 0,0 c -0.998,0.998 -2.61,0.998 -3.604,0 l -8.042,-7.932 -3.613,3.62 c -0.991,0.992 -2.607,0.992 -3.606,0 -0.99,-1.002 -0.99,-2.62 0,-3.62 l 5.412,-5.406 c 0.999,-0.99 2.615,-0.99 3.614,0 L 0,-3.603 C 1.002,-2.604 1.002,-0.994 0,0"
             inkscape:connector-curvature="0"
             id="path36"
             style="fill:#79b935;fill-opacity:1;fill-rule:nonzero;stroke:none" /></g><g
           transform="translate(31.7236,23.7573)"
           id="g38"><path
             d="m 0,0 c -0.998,0.998 -2.61,0.998 -3.604,0 l -8.042,-7.932 -3.613,3.62 c -0.991,0.992 -2.607,0.992 -3.606,0 -0.99,-1.002 -0.99,-2.62 0,-3.62 l 5.412,-5.406 c 0.999,-0.99 2.615,-0.99 3.614,0 L 0,-3.603 C 1.002,-2.604 1.002,-0.994 0,0 z"
             inkscape:connector-curvature="0"
             id="path40"
             style="fill:none;stroke:#ffffff;stroke-width:1;stroke-linecap:butt;stroke-linejoin:miter;stroke-miterlimit:10;stroke-opacity:1;stroke-dasharray:none" /></g></g></g></g></svg>