<?xml version="1.0" encoding="UTF-8" standalone="no"?>
<!-- Created with Inkscape (http://www.inkscape.org/) -->

<svg
   xmlns:dc="http://purl.org/dc/elements/1.1/"
   xmlns:cc="http://creativecommons.org/ns#"
   xmlns:rdf="http://www.w3.org/1999/02/22-rdf-syntax-ns#"
   xmlns:svg="http://www.w3.org/2000/svg"
   xmlns="http://www.w3.org/2000/svg"
   xmlns:inkscape="http://www.inkscape.org/namespaces/inkscape"
   version="1.1"
   width="40"
   height="40"
   id="svg2"
   xml:space="preserve"><metadata
     id="metadata8"><rdf:RDF><cc:Work
         rdf:about=""><dc:format>image/svg+xml</dc:format><dc:type
           rdf:resource="http://purl.org/dc/dcmitype/StillImage" /></cc:Work></rdf:RDF></metadata><defs
     id="defs6"><clipPath
       id="clipPath16"><path
         d="M 0,32 32,32 32,0 0,0 0,32 z"
         inkscape:connector-curvature="0"
         id="path18" /></clipPath></defs><g
     transform="matrix(1.25,0,0,-1.25,0,40)"
     id="g10"><g
       id="g12"><g
         clip-path="url(#clipPath16)"
         id="g14"><g
           transform="translate(29.4512,0.0107)"
           id="g20"><path
             d="m 0,0 c 2.271,0 3.193,1.806 2.07,4.018 l -13.451,26.32 c -1.139,2.215 -2.995,2.215 -4.122,0 L -28.969,4.018 C -30.099,1.806 -29.177,0 -26.899,0 L 0,0 z"
             inkscape:connector-curvature="0"
             id="path22"
             style="fill:#ffcd00;fill-opacity:1;fill-rule:nonzero;stroke:none" /></g><g
           transform="translate(16.4189,7.2803)"
           id="g24"><path
             d="m 0,0 c 1.212,0 1.785,-0.607 1.785,-1.817 l 0,-0.83 C 1.785,-3.856 1.212,-4.465 0,-4.465 l -0.829,0 c -1.212,0 -1.785,0.609 -1.785,1.818 l 0,0.83 c 0,1.21 0.573,1.817 1.785,1.817 L 0,0 z m 0.415,17.578 c 1.37,0 1.433,-0.83 1.37,-2.362 L 1.212,4.285 C 1.146,3.168 0.893,2.246 -0.415,2.246 c -1.307,0 -1.561,0.922 -1.626,2.039 l -0.573,10.931 c -0.096,1.532 0.033,2.362 1.403,2.362 l 1.626,0 z"
             inkscape:connector-curvature="0"
             id="path26"
             style="fill:#444443;fill-opacity:1;fill-rule:nonzero;stroke:none" /></g></g></g></g></svg>