<?xml version="1.0" encoding="UTF-8" standalone="no"?>
<!-- Created with Inkscape (http://www.inkscape.org/) -->

<svg
   xmlns:dc="http://purl.org/dc/elements/1.1/"
   xmlns:cc="http://creativecommons.org/ns#"
   xmlns:rdf="http://www.w3.org/1999/02/22-rdf-syntax-ns#"
   xmlns:svg="http://www.w3.org/2000/svg"
   xmlns="http://www.w3.org/2000/svg"
   xmlns:inkscape="http://www.inkscape.org/namespaces/inkscape"
   version="1.1"
   width="40"
   height="40"
   id="svg2"
   xml:space="preserve"><metadata
     id="metadata8"><rdf:RDF><cc:Work
         rdf:about=""><dc:format>image/svg+xml</dc:format><dc:type
           rdf:resource="http://purl.org/dc/dcmitype/StillImage" /></cc:Work></rdf:RDF></metadata><defs
     id="defs6"><clipPath
       id="clipPath20"><path
         d="M 0,32 32,32 32,0 0,0 0,32 z"
         inkscape:connector-curvature="0"
         id="path22" /></clipPath></defs><g
     transform="matrix(1.25,0,0,-1.25,0,40)"
     id="g10"><g
       transform="translate(0,32.0004)"
       id="g12"><path
         d="m 0,0 0,-31.962 22.687,0 9.313,0 L 32,0 0,0 z"
         inkscape:connector-curvature="0"
         id="path14"
         style="fill:#b4b3b3;fill-opacity:1;fill-rule:nonzero;stroke:none" /></g><g
       id="g16"><g
         clip-path="url(#clipPath20)"
         id="g18"><g
           transform="translate(23.1035,19.0195)"
           id="g24"><path
             d="M 0,0 -4.118,0.005 -4.146,4.147 C -4.141,5.767 -5.465,7.091 -7.105,7.106 -8.75,7.095 -10.061,5.784 -10.072,4.14 L -10.085,0.015 -14.21,0.001 c -1.643,-0.008 -2.968,-1.334 -2.98,-2.98 0.016,-1.64 1.34,-2.964 2.959,-2.958 l 4.154,-0.018 -0.007,-4.131 c 0.008,-1.631 1.35,-2.973 2.982,-2.982 1.647,0.013 2.971,1.338 2.98,2.98 l -0.007,4.145 4.146,-0.006 c 1.644,0.01 2.956,1.322 2.965,2.967 C 2.975,-1.349 1.634,-0.007 0,0"
             inkscape:connector-curvature="0"
             id="path26"
             style="fill:#444443;fill-opacity:1;fill-rule:nonzero;stroke:none" /></g><g
           transform="translate(23.1035,19.0195)"
           id="g28"><path
             d="M 0,0 -4.118,0.005 -4.146,4.147 C -4.141,5.767 -5.465,7.091 -7.105,7.106 -8.75,7.095 -10.061,5.784 -10.072,4.14 L -10.085,0.015 -14.21,0.001 c -1.643,-0.008 -2.968,-1.334 -2.98,-2.98 0.016,-1.64 1.34,-2.964 2.959,-2.958 l 4.154,-0.018 -0.007,-4.131 c 0.008,-1.631 1.35,-2.973 2.982,-2.982 1.647,0.013 2.971,1.338 2.98,2.98 l -0.007,4.145 4.146,-0.006 c 1.644,0.01 2.956,1.322 2.965,2.967 C 2.975,-1.349 1.634,-0.007 0,0 z"
             inkscape:connector-curvature="0"
             id="path30"
             style="fill:none;stroke:#b4b3b3;stroke-width:2;stroke-linecap:butt;stroke-linejoin:miter;stroke-miterlimit:10;stroke-opacity:1;stroke-dasharray:none" /></g></g></g></g></svg>