<?xml version="1.0" encoding="UTF-8" standalone="no"?>
<!-- Created with Inkscape (http://www.inkscape.org/) -->

<svg
   xmlns:dc="http://purl.org/dc/elements/1.1/"
   xmlns:cc="http://creativecommons.org/ns#"
   xmlns:rdf="http://www.w3.org/1999/02/22-rdf-syntax-ns#"
   xmlns:svg="http://www.w3.org/2000/svg"
   xmlns="http://www.w3.org/2000/svg"
   xmlns:inkscape="http://www.inkscape.org/namespaces/inkscape"
   version="1.1"
   width="40"
   height="40"
   id="svg2"
   xml:space="preserve"><metadata
     id="metadata8"><rdf:RDF><cc:Work
         rdf:about=""><dc:format>image/svg+xml</dc:format><dc:type
           rdf:resource="http://purl.org/dc/dcmitype/StillImage" /></cc:Work></rdf:RDF></metadata><defs
     id="defs6"><clipPath
       id="clipPath18"><path
         d="M 0,32 32,32 32,0 0,0 0,32 z"
         inkscape:connector-curvature="0"
         id="path20" /></clipPath></defs><g
     transform="matrix(1.25,0,0,-1.25,0,40)"
     id="g10"><path
       d="m 6.008,0 19.991,0 0,11.219 -19.991,0 0,-11.219 z"
       inkscape:connector-curvature="0"
       id="path12"
       style="fill:#b4b3b3;fill-opacity:1;fill-rule:nonzero;stroke:none" /><g
       id="g14"><g
         clip-path="url(#clipPath18)"
         id="g16"><path
           d="m 6.008,27.136 19.99,0 0,-9.546 -19.99,0 0,9.546 z m 0,-27.136 0,11.219 19.99,0 0,-11.219 C 28.838,0.283 32,2.693 32,5.61 l 0,20.78 C 32,29.476 29.471,32 26.38,32 L 5.621,32 C 2.53,32 0,29.476 0,26.39 L 0,5.61 C 0,2.693 3.162,0.283 6.008,0"
           inkscape:connector-curvature="0"
           id="path22"
           style="fill:#444443;fill-opacity:1;fill-rule:nonzero;stroke:none" /><g
           transform="translate(20.2773,7.3105)"
           id="g24"><path
             d="M 0,0 C 0,1.011 0.827,1.841 1.858,1.841 2.877,1.841 3.701,1.011 3.701,0 l 0,-4.015 C 3.701,-5.029 2.877,-5.876 1.858,-5.876 0.827,-5.876 0,-5.029 0,-4.015 L 0,0 z"
             inkscape:connector-curvature="0"
             id="path26"
             style="fill:#ededed;fill-opacity:1;fill-rule:nonzero;stroke:none" /></g></g></g></g></svg>