<?xml version="1.0" encoding="UTF-8" standalone="no"?>
<!-- Created with Inkscape (http://www.inkscape.org/) -->

<svg
   xmlns:dc="http://purl.org/dc/elements/1.1/"
   xmlns:cc="http://creativecommons.org/ns#"
   xmlns:rdf="http://www.w3.org/1999/02/22-rdf-syntax-ns#"
   xmlns:svg="http://www.w3.org/2000/svg"
   xmlns="http://www.w3.org/2000/svg"
   xmlns:inkscape="http://www.inkscape.org/namespaces/inkscape"
   version="1.1"
   width="40"
   height="40"
   id="svg2"
   xml:space="preserve"><metadata
     id="metadata8"><rdf:RDF><cc:Work
         rdf:about=""><dc:format>image/svg+xml</dc:format><dc:type
           rdf:resource="http://purl.org/dc/dcmitype/StillImage" /></cc:Work></rdf:RDF></metadata><defs
     id="defs6"><clipPath
       id="clipPath18"><path
         d="M 0,32 32,32 32,0 0,0 0,32 z"
         inkscape:connector-curvature="0"
         id="path20" /></clipPath></defs><g
     transform="matrix(1.25,0,0,-1.25,0,40)"
     id="g10"><g
       id="g14"><g
         clip-path="url(#clipPath18)"
         id="g16"><g
           transform="translate(6.7383,8.1445)"
           id="g22"><path
             d="m 0,0 5.736,0 0,-6.143 0.016,0 1.933,0 3.771,0 4.795,0 c 1.583,0 2.873,1.346 2.873,2.995 l 0,22.003 c 0,0.818 -0.299,1.555 -0.844,2.125 -0.535,0.574 -1.255,0.874 -2.029,0.874 l -13.366,0 c -0.766,0 -1.493,-0.3 -2.038,-0.874 C 0.308,20.41 0,19.673 0,18.855 L 0,0 z m -1.904,0 0,0 0,18.855 c 0,1.388 0.545,2.642 1.407,3.547 0.859,0.893 2.057,1.453 3.382,1.453 l 13.366,0 c 1.326,0 2.509,-0.56 3.379,-1.453 0.862,-0.905 1.403,-2.159 1.403,-3.547 l 0,-22.003 c 0,-2.755 -2.127,-4.997 -4.782,-4.997 l -4.795,0 -3.771,0 -1.933,0 c -0.52,0 -0.993,0.213 -1.363,0.586 l -5.734,6.004 c -0.33,0.361 -0.528,0.836 -0.559,1.34 l 0,0.215 z"
             inkscape:connector-curvature="0"
             id="path24"
             style="fill:#737372;fill-opacity:1;fill-rule:nonzero;stroke:none" /></g><g
           transform="translate(23.2383,18.4058)"
           id="g26"><path
             d="m 0,0 0,-3.669 c 0,-1.006 1.217,-1.588 2.003,-0.928 0,0 7.339,8.151 6.759,8.637 L 2.003,9.481 C 1.217,10.133 0,9.557 0,8.539 l 0,-3.654 -9.904,0 L -9.904,0 0,0 z"
             inkscape:connector-curvature="0"
             id="path28"
             style="fill:#ffffff;fill-opacity:1;fill-rule:nonzero;stroke:none" /></g><g
           transform="translate(22.2383,13.5605)"
           id="g30"><path
             d="m 0,0 0,-3.67 c 0,-1.006 1.217,-1.588 2.003,-0.928 l 7.324,6.102 c 0.58,0.478 0.58,1.387 0,1.873 L 2.003,9.48 C 1.217,10.133 0,9.557 0,8.539 l 0,-3.654 -9.904,0 L -9.904,0 0,0 z"
             inkscape:connector-curvature="0"
             id="path32"
             style="fill:#ffffff;fill-opacity:1;fill-rule:nonzero;stroke:none" /></g><g
           transform="translate(22.2383,16.5718)"
           id="g34"><path
             d="m 0,0 0,-3.669 c 0,-1.006 1.217,-1.588 2.003,-0.928 l 7.324,6.101 c 0.58,0.479 0.58,1.387 0,1.873 L 2.003,9.482 C 1.217,10.134 0,9.558 0,8.539 l 0,-3.654 -9.904,0 L -9.904,0 0,0 z"
             inkscape:connector-curvature="0"
             id="path36"
             style="fill:#444443;fill-opacity:1;fill-rule:nonzero;stroke:none" /></g></g></g></g></svg>