<?xml version="1.0" encoding="UTF-8" standalone="no"?>
<!-- Created with Inkscape (http://www.inkscape.org/) -->

<svg
   xmlns:dc="http://purl.org/dc/elements/1.1/"
   xmlns:cc="http://creativecommons.org/ns#"
   xmlns:rdf="http://www.w3.org/1999/02/22-rdf-syntax-ns#"
   xmlns:svg="http://www.w3.org/2000/svg"
   xmlns="http://www.w3.org/2000/svg"
   xmlns:inkscape="http://www.inkscape.org/namespaces/inkscape"
   version="1.1"
   width="40"
   height="40"
   id="svg2"
   xml:space="preserve"><metadata
     id="metadata8"><rdf:RDF><cc:Work
         rdf:about=""><dc:format>image/svg+xml</dc:format><dc:type
           rdf:resource="http://purl.org/dc/dcmitype/StillImage" /></cc:Work></rdf:RDF></metadata><defs
     id="defs6"><clipPath
       id="clipPath16"><path
         d="M 0,32 32,32 32,0 0,0 0,32 z"
         inkscape:connector-curvature="0"
         id="path18" /></clipPath></defs><g
     transform="matrix(1.25,0,0,-1.25,0,40)"
     id="g10"><g
       id="g12"><g
         clip-path="url(#clipPath16)"
         id="g14"><g
           transform="translate(12.0483,11.1104)"
           id="g20"><path
             d="m 0,0 -4.935,-4.946 c -0.303,-0.291 -0.282,-0.733 0,-1.001 L 0,-10.909 c 0.442,-0.438 1.221,-0.112 1.221,0.497 l 0,3.277 0,3.366 0,3.27 C 1.221,0.108 0.442,0.433 0,0"
             inkscape:connector-curvature="0"
             id="path22"
             style="fill:#444443;fill-opacity:1;fill-rule:nonzero;stroke:none" /></g><g
           transform="translate(7.1138,5.1631)"
           id="g24"><path
             d="M 0,0 C 0,0 -0.282,0.269 0,0"
             inkscape:connector-curvature="0"
             id="path26"
             style="fill:#444443;fill-opacity:1;fill-rule:nonzero;stroke:none" /></g><g
           transform="translate(23.9102,5.168)"
           id="g28"><path
             d="m 0,0 -4.936,-4.962 c -0.441,-0.437 -1.219,-0.113 -1.219,0.497 l 0,3.278 0,3.367 0,3.269 c 0,0.606 0.776,0.932 1.219,0.5 L 0,1 C 0.303,0.711 0.283,0.271 0,0 0,0 0.283,0.271 0,0"
             inkscape:connector-curvature="0"
             id="path30"
             style="fill:#444443;fill-opacity:1;fill-rule:nonzero;stroke:none" /></g><g
           transform="translate(0.5376,20.5806)"
           id="g32"><path
             d="m 0,0 c -0.298,0 -0.538,-0.277 -0.538,-0.626 0,-0.35 0.24,-0.633 0.538,-0.633 l 4.461,0 c 0.297,0 0.542,0.283 0.542,0.633 C 5.003,-0.277 4.758,0 4.461,0"
             inkscape:connector-curvature="0"
             id="path34"
             style="fill:#9e9e9e;fill-opacity:1;fill-rule:nonzero;stroke:none" /></g><g
           transform="translate(0.5308,27.3853)"
           id="g36"><path
             d="m 0,0 c -0.294,0 -0.531,-0.278 -0.531,-0.627 0,-0.35 0.237,-0.633 0.531,-0.633 l 4.604,0 c 0.293,0 0.019,0.318 0.019,0.668 C 4.623,-0.243 4.897,0 4.604,0"
             inkscape:connector-curvature="0"
             id="path38"
             style="fill:#9e9e9e;fill-opacity:1;fill-rule:nonzero;stroke:none" /></g><g
           transform="translate(12.4541,24.0806)"
           id="g40"><path
             d="m 0,0 c -0.298,0 -0.537,-0.276 -0.537,-0.625 0,-0.351 0.239,-0.634 0.537,-0.634 l 3.221,0 c 0.298,0 0.542,0.283 0.542,0.634 C 3.763,-0.276 3.519,0 3.221,0"
             inkscape:connector-curvature="0"
             id="path42"
             style="fill:#9e9e9e;fill-opacity:1;fill-rule:nonzero;stroke:none" /></g><g
           transform="translate(5.1348,31.0229)"
           id="g44"><path
             d="m 0,0 0,-15.223 c 0,0 7.051,0.778 7.051,7.277 C 7.051,-0.731 1.352,0 0,0"
             inkscape:connector-curvature="0"
             id="path46"
             style="fill:#9e9e9e;fill-opacity:1;fill-rule:nonzero;stroke:none" /></g><g
           transform="translate(5.1348,31.0229)"
           id="g48"><path
             d="m 0,0 0,-15.223 c 0,0 7.051,0.778 7.051,7.277 C 7.051,-0.731 1.352,0 0,0 z"
             inkscape:connector-curvature="0"
             id="path50"
             style="fill:none;stroke:#9e9e9e;stroke-width:2;stroke-linecap:butt;stroke-linejoin:round;stroke-miterlimit:10;stroke-opacity:1;stroke-dasharray:none" /></g><g
           transform="translate(16.3213,20.5806)"
           id="g52"><path
             d="m 0,0 c -0.298,0 -0.538,-0.277 -0.538,-0.626 0,-0.35 0.24,-0.633 0.538,-0.633 l 4.461,0 c 0.298,0 0.542,0.283 0.542,0.633 C 5.003,-0.277 4.759,0 4.461,0"
             inkscape:connector-curvature="0"
             id="path54"
             style="fill:#9e9e9e;fill-opacity:1;fill-rule:nonzero;stroke:none" /></g><g
           transform="translate(16.3145,27.3853)"
           id="g56"><path
             d="m 0,0 c -0.294,0 -0.531,-0.278 -0.531,-0.627 0,-0.35 0.237,-0.633 0.531,-0.633 l 4.604,0 c 0.293,0 0.019,0.318 0.019,0.668 C 4.623,-0.243 4.897,0 4.604,0"
             inkscape:connector-curvature="0"
             id="path58"
             style="fill:#9e9e9e;fill-opacity:1;fill-rule:nonzero;stroke:none" /></g><g
           transform="translate(28.2383,24.0806)"
           id="g60"><path
             d="m 0,0 c -0.299,0 -0.537,-0.276 -0.537,-0.625 0,-0.351 0.238,-0.634 0.537,-0.634 l 3.221,0 c 0.297,0 0.541,0.283 0.541,0.634 C 3.762,-0.276 3.518,0 3.221,0"
             inkscape:connector-curvature="0"
             id="path62"
             style="fill:#9e9e9e;fill-opacity:1;fill-rule:nonzero;stroke:none" /></g><g
           transform="translate(20.918,31.0229)"
           id="g64"><path
             d="m 0,0 0,-15.223 c 0,0 7.051,0.778 7.051,7.277 C 7.051,-0.731 1.353,0 0,0"
             inkscape:connector-curvature="0"
             id="path66"
             style="fill:#9e9e9e;fill-opacity:1;fill-rule:nonzero;stroke:none" /></g><g
           transform="translate(20.918,31.0229)"
           id="g68"><path
             d="m 0,0 0,-15.223 c 0,0 7.051,0.778 7.051,7.277 C 7.051,-0.731 1.353,0 0,0 z"
             inkscape:connector-curvature="0"
             id="path70"
             style="fill:none;stroke:#9e9e9e;stroke-width:2;stroke-linecap:butt;stroke-linejoin:round;stroke-miterlimit:10;stroke-opacity:1;stroke-dasharray:none" /></g></g></g></g></svg>