<?xml version="1.0" encoding="UTF-8" standalone="no"?>
<!-- Created with Inkscape (http://www.inkscape.org/) -->

<svg
   xmlns:dc="http://purl.org/dc/elements/1.1/"
   xmlns:cc="http://creativecommons.org/ns#"
   xmlns:rdf="http://www.w3.org/1999/02/22-rdf-syntax-ns#"
   xmlns:svg="http://www.w3.org/2000/svg"
   xmlns="http://www.w3.org/2000/svg"
   xmlns:inkscape="http://www.inkscape.org/namespaces/inkscape"
   version="1.1"
   width="40"
   height="40"
   id="svg2"
   xml:space="preserve"><metadata
     id="metadata8"><rdf:RDF><cc:Work
         rdf:about=""><dc:format>image/svg+xml</dc:format><dc:type
           rdf:resource="http://purl.org/dc/dcmitype/StillImage" /></cc:Work></rdf:RDF></metadata><defs
     id="defs6"><clipPath
       id="clipPath16"><path
         d="M 0,32 32,32 32,0 0,0 0,32 z"
         inkscape:connector-curvature="0"
         id="path18" /></clipPath></defs><g
     transform="matrix(1.25,0,0,-1.25,0,40)"
     id="g10"><g
       id="g12"><g
         clip-path="url(#clipPath16)"
         id="g14"><g
           transform="translate(23.043,7.043)"
           id="g20"><path
             d="m 0,0 c 0,-3.893 -3.154,-7.043 -7.043,-7.043 -3.888,0 -7.042,3.15 -7.042,7.043 0,3.887 3.154,7.041 7.042,7.041 C -3.154,7.041 0,3.887 0,0"
             inkscape:connector-curvature="0"
             id="path22"
             style="fill:#79b935;fill-opacity:1;fill-rule:nonzero;stroke:none" /></g><g
           transform="translate(23.041,24.9575)"
           id="g24"><path
             d="m 0,0 c 0,-3.888 -3.152,-7.043 -7.042,-7.043 -3.888,0 -7.042,3.155 -7.042,7.043 0,3.89 3.154,7.042 7.042,7.042 C -3.152,7.042 0,3.89 0,0"
             inkscape:connector-curvature="0"
             id="path26"
             style="fill:#737372;fill-opacity:1;fill-rule:nonzero;stroke:none" /></g></g></g></g></svg>