<?xml version="1.0" encoding="UTF-8" standalone="no"?>
<!-- Created with Inkscape (http://www.inkscape.org/) -->

<svg
   xmlns:dc="http://purl.org/dc/elements/1.1/"
   xmlns:cc="http://creativecommons.org/ns#"
   xmlns:rdf="http://www.w3.org/1999/02/22-rdf-syntax-ns#"
   xmlns:svg="http://www.w3.org/2000/svg"
   xmlns="http://www.w3.org/2000/svg"
   xmlns:inkscape="http://www.inkscape.org/namespaces/inkscape"
   version="1.1"
   width="40"
   height="40"
   id="svg2"
   xml:space="preserve"><metadata
     id="metadata8"><rdf:RDF><cc:Work
         rdf:about=""><dc:format>image/svg+xml</dc:format><dc:type
           rdf:resource="http://purl.org/dc/dcmitype/StillImage" /></cc:Work></rdf:RDF></metadata><defs
     id="defs6"><clipPath
       id="clipPath16"><path
         d="M 0,32 32,32 32,0 0,0 0,32 z"
         inkscape:connector-curvature="0"
         id="path18" /></clipPath></defs><g
     transform="matrix(1.25,0,0,-1.25,0,40)"
     id="g10"><g
       id="g12"><g
         clip-path="url(#clipPath16)"
         id="g14"><g
           transform="translate(23.8398,26.8735)"
           id="g20"><path
             d="M 0,0 C 0,-15.12 0.004,-19.282 0.004,-26.874"
             inkscape:connector-curvature="0"
             id="path22"
             style="fill:#737372;fill-opacity:1;fill-rule:nonzero;stroke:#444443;stroke-width:3;stroke-linecap:round;stroke-linejoin:round;stroke-miterlimit:10;stroke-opacity:1;stroke-dasharray:none" /></g><g
           transform="translate(9.9927,7.458)"
           id="g24"><path
             d="M 0,0 C 0,18.554 -0.002,15.229 -0.004,24.542"
             inkscape:connector-curvature="0"
             id="path26"
             style="fill:none;stroke:#444443;stroke-width:3;stroke-linecap:round;stroke-linejoin:round;stroke-miterlimit:10;stroke-opacity:1;stroke-dasharray:none" /></g><g
           transform="translate(23.8418,28.4165)"
           id="g28"><path
             d="m 0,0 c 2.859,0 5.18,-2.319 5.18,-5.179 0,-2.86 -2.321,-5.177 -5.18,-5.177 -2.859,0 -5.178,2.317 -5.178,5.177 C -5.178,-2.319 -2.859,0 0,0"
             inkscape:connector-curvature="0"
             id="path30"
             style="fill:#444443;fill-opacity:1;fill-rule:nonzero;stroke:none" /></g><path
           d="m 3.071,11.697 13.84,0 0,-6.197 -13.84,0 0,6.197 z"
           inkscape:connector-curvature="0"
           id="path32"
           style="fill:#444443;fill-opacity:1;fill-rule:nonzero;stroke:none" /></g></g></g></svg>