<?xml version="1.0" encoding="UTF-8" standalone="no"?>
<!-- Created with Inkscape (http://www.inkscape.org/) -->

<svg
   xmlns:dc="http://purl.org/dc/elements/1.1/"
   xmlns:cc="http://creativecommons.org/ns#"
   xmlns:rdf="http://www.w3.org/1999/02/22-rdf-syntax-ns#"
   xmlns:svg="http://www.w3.org/2000/svg"
   xmlns="http://www.w3.org/2000/svg"
   xmlns:inkscape="http://www.inkscape.org/namespaces/inkscape"
   version="1.1"
   width="40"
   height="40"
   id="svg2"
   xml:space="preserve"><metadata
     id="metadata8"><rdf:RDF><cc:Work
         rdf:about=""><dc:format>image/svg+xml</dc:format><dc:type
           rdf:resource="http://purl.org/dc/dcmitype/StillImage" /></cc:Work></rdf:RDF></metadata><defs
     id="defs6"><clipPath
       id="clipPath16"><path
         d="M 0,32 32,32 32,0 0,0 0,32 z"
         inkscape:connector-curvature="0"
         id="path18" /></clipPath></defs><g
     transform="matrix(1.25,0,0,-1.25,0,40)"
     id="g10"><g
       id="g12"><g
         clip-path="url(#clipPath16)"
         id="g14"><g
           transform="translate(2.7183,26.8105)"
           id="g20"><path
             d="m 0,0 0,-0.746 0,-4.015 0,-4.006 0,-4.008 0,-4.016 0,-3.994 0,-0.768 c 0,-2.468 1.704,-4.54 4.009,-5.125 l 0,31.782 C 1.704,4.542 0,2.477 0,0"
             inkscape:connector-curvature="0"
             id="path22"
             style="fill:#444443;fill-opacity:1;fill-rule:nonzero;stroke:none" /></g><g
           transform="translate(24.0977,32.0767)"
           id="g24"><path
             d="m 0,0 -14.782,0 0,-32.084 14.782,0 c 2.912,0 5.272,2.374 5.272,5.265 l 0,21.553 C 5.272,-2.353 2.912,0 0,0"
             inkscape:connector-curvature="0"
             id="path26"
             style="fill:#444443;fill-opacity:1;fill-rule:nonzero;stroke:none" /></g><g
           transform="translate(16.585,12.0059)"
           id="g28"><path
             d="m 0,0 c -0.1,1.047 -0.05,1.936 0.151,2.67 0.202,0.733 0.477,1.367 0.829,1.898 0.352,0.534 0.755,0.997 1.206,1.389 0.454,0.392 0.877,0.768 1.266,1.13 0.395,0.362 0.719,0.738 0.981,1.131 0.261,0.392 0.394,0.86 0.394,1.403 0,0.702 -0.198,1.267 -0.589,1.689 -0.391,0.421 -1.092,0.632 -2.096,0.632 -0.322,0 -0.663,-0.035 -1.027,-0.106 -0.36,-0.07 -0.722,-0.17 -1.084,-0.3 -0.363,-0.131 -0.709,-0.282 -1.04,-0.453 -0.332,-0.171 -0.629,-0.347 -0.89,-0.527 l -1.507,2.895 c 0.763,0.521 1.643,0.954 2.638,1.296 0.994,0.341 2.195,0.513 3.604,0.513 1.89,0 3.367,-0.458 4.434,-1.372 C 8.333,12.972 8.866,11.741 8.866,10.193 8.866,9.168 8.73,8.318 8.459,7.645 8.188,6.972 7.852,6.398 7.45,5.926 7.046,5.454 6.605,5.037 6.122,4.675 5.64,4.313 5.198,3.925 4.796,3.515 4.393,3.101 4.052,2.625 3.771,2.081 3.489,1.538 3.349,0.846 3.349,0 L 0,0 z"
             inkscape:connector-curvature="0"
             id="path30"
             style="fill:#ffffff;fill-opacity:1;fill-rule:nonzero;stroke:none" /></g><g
           transform="translate(17.6738,5.6367)"
           id="g32"><path
             d="m 0,0 c -0.725,0 -1.257,0.307 -1.257,1.257 l 0,1.284 c 0,0.949 0.532,1.257 1.257,1.257 l 1.536,0 c 0.726,0 1.257,-0.308 1.257,-1.257 l 0,-1.284 C 2.793,0.307 2.262,0 1.536,0"
             inkscape:connector-curvature="0"
             id="path34"
             style="fill:#ffffff;fill-opacity:1;fill-rule:nonzero;stroke:none" /></g></g></g></g></svg>