<?xml version="1.0" encoding="UTF-8" standalone="no"?>
<!-- Created with Inkscape (http://www.inkscape.org/) -->

<svg
   xmlns:dc="http://purl.org/dc/elements/1.1/"
   xmlns:cc="http://creativecommons.org/ns#"
   xmlns:rdf="http://www.w3.org/1999/02/22-rdf-syntax-ns#"
   xmlns:svg="http://www.w3.org/2000/svg"
   xmlns="http://www.w3.org/2000/svg"
   xmlns:inkscape="http://www.inkscape.org/namespaces/inkscape"
   version="1.1"
   width="40"
   height="40"
   id="svg2"
   xml:space="preserve"><metadata
     id="metadata8"><rdf:RDF><cc:Work
         rdf:about=""><dc:format>image/svg+xml</dc:format><dc:type
           rdf:resource="http://purl.org/dc/dcmitype/StillImage" /></cc:Work></rdf:RDF></metadata><defs
     id="defs6"><clipPath
       id="clipPath16"><path
         d="M 0,32 32,32 32,0 0,0 0,32 z"
         inkscape:connector-curvature="0"
         id="path18" /></clipPath></defs><g
     transform="matrix(1.25,0,0,-1.25,0,40)"
     id="g10"><g
       id="g12"><g
         clip-path="url(#clipPath16)"
         id="g14"><g
           transform="translate(32,16)"
           id="g20"><path
             d="m 0,0 c 0,-8.837 -7.163,-16 -16,-16 -8.836,0 -16,7.163 -16,16 0,8.836 7.164,16 16,16 C -7.163,16 0,8.836 0,0"
             inkscape:connector-curvature="0"
             id="path22"
             style="fill:#444443;fill-opacity:1;fill-rule:nonzero;stroke:none" /></g><g
           transform="translate(13.2231,7.9844)"
           id="g24"><path
             d="m 0,0 c -0.125,1.311 -0.062,2.425 0.189,3.346 0.252,0.92 0.598,1.713 1.04,2.381 0.441,0.668 0.945,1.248 1.511,1.739 0.569,0.491 1.097,0.964 1.588,1.417 0.492,0.454 0.9,0.926 1.228,1.418 0.328,0.491 0.492,1.077 0.492,1.757 0,0.882 -0.246,1.588 -0.736,2.117 -0.492,0.529 -1.369,0.794 -2.628,0.794 -0.403,0 -0.83,-0.044 -1.286,-0.133 C 0.945,14.748 0.492,14.622 0.039,14.458 -0.416,14.294 -0.85,14.105 -1.266,13.892 -1.682,13.677 -2.054,13.457 -2.381,13.23 l -1.89,3.629 c 0.958,0.655 2.061,1.197 3.308,1.625 1.246,0.429 2.752,0.643 4.518,0.643 2.366,0 4.22,-0.574 5.556,-1.72 1.334,-1.147 2.002,-2.69 2.002,-4.631 0,-1.285 -0.17,-2.35 -0.51,-3.193 C 10.263,8.738 9.841,8.02 9.337,7.428 8.832,6.836 8.279,6.312 7.673,5.859 7.068,5.405 6.515,4.92 6.011,4.404 5.505,3.887 5.078,3.289 4.726,2.608 4.373,1.928 4.197,1.059 4.197,0 L 0,0 z"
             inkscape:connector-curvature="0"
             id="path26"
             style="fill:#ffffff;fill-opacity:1;fill-rule:nonzero;stroke:none" /></g><g
           transform="translate(14.5874,0)"
           id="g28"><path
             d="m 0,0 c -0.91,0 -1.576,0.385 -1.576,1.575 l 0,1.611 c 0,1.189 0.666,1.575 1.576,1.575 l 1.925,0 C 2.834,4.761 3.5,4.375 3.5,3.186 l 0,-1.611 C 3.5,0.385 2.834,0 1.925,0"
             inkscape:connector-curvature="0"
             id="path30"
             style="fill:#ffffff;fill-opacity:1;fill-rule:nonzero;stroke:none" /></g></g></g></g></svg>