<?xml version="1.0" encoding="UTF-8" standalone="no"?>
<!-- Created with Inkscape (http://www.inkscape.org/) -->

<svg
   xmlns:dc="http://purl.org/dc/elements/1.1/"
   xmlns:cc="http://creativecommons.org/ns#"
   xmlns:rdf="http://www.w3.org/1999/02/22-rdf-syntax-ns#"
   xmlns:svg="http://www.w3.org/2000/svg"
   xmlns="http://www.w3.org/2000/svg"
   xmlns:inkscape="http://www.inkscape.org/namespaces/inkscape"
   version="1.1"
   width="40"
   height="40"
   id="svg2"
   xml:space="preserve"><metadata
     id="metadata8"><rdf:RDF><cc:Work
         rdf:about=""><dc:format>image/svg+xml</dc:format><dc:type
           rdf:resource="http://purl.org/dc/dcmitype/StillImage" /></cc:Work></rdf:RDF></metadata><defs
     id="defs6"><clipPath
       id="clipPath18"><path
         d="M 0,32 32,32 32,0 0,0 0,32 z"
         inkscape:connector-curvature="0"
         id="path20" /></clipPath></defs><g
     transform="matrix(1.25,0,0,-1.25,0,40)"
     id="g10"><path
       d="m 0.013,0.026 31.954,0 0,31.974 -31.954,0 0,-31.974 z"
       inkscape:connector-curvature="0"
       id="path12"
       style="fill:#b4b3b3;fill-opacity:1;fill-rule:nonzero;stroke:none" /><g
       id="g14"><g
         clip-path="url(#clipPath18)"
         id="g16"><g
           transform="translate(17.0391,24.0825)"
           id="g22"><path
             d="m 0,0 c -0.848,0 -1.529,-0.674 -1.529,-1.52 0,-0.85 0.681,-1.536 1.529,-1.536 l 10.469,0 c 0.845,0 1.541,0.686 1.541,1.536 0,0.846 -0.696,1.52 -1.541,1.52"
             inkscape:connector-curvature="0"
             id="path24"
             style="fill:#444443;fill-opacity:1;fill-rule:nonzero;stroke:none" /></g><g
           transform="translate(17.0391,17.6035)"
           id="g26"><path
             d="m 0,0 c -0.848,0 -1.529,-0.674 -1.529,-1.521 0,-0.847 0.681,-1.536 1.529,-1.536 l 10.469,0 c 0.845,0 1.541,0.689 1.541,1.536 C 12.01,-0.674 11.314,0 10.469,0"
             inkscape:connector-curvature="0"
             id="path28"
             style="fill:#444443;fill-opacity:1;fill-rule:nonzero;stroke:none" /></g><g
           transform="translate(17.0391,11.1279)"
           id="g30"><path
             d="m 0,0 c -0.848,0 -1.529,-0.677 -1.529,-1.522 0,-0.846 0.681,-1.536 1.529,-1.536 l 6.354,0 c 0.843,0 1.542,0.69 1.542,1.536 C 7.896,-0.677 7.197,0 6.354,0"
             inkscape:connector-curvature="0"
             id="path32"
             style="fill:#444443;fill-opacity:1;fill-rule:nonzero;stroke:none" /></g><g
           transform="translate(6.1309,13.4268)"
           id="g34"><path
             d="m 0,0 c -0.083,0.88 -0.042,1.628 0.128,2.247 0.168,0.617 0.4,1.149 0.696,1.597 0.297,0.448 0.634,0.837 1.015,1.168 0.382,0.329 0.736,0.646 1.065,0.949 0.33,0.305 0.604,0.622 0.825,0.953 0.22,0.33 0.33,0.723 0.33,1.179 0,0.592 -0.165,1.066 -0.494,1.421 -0.331,0.355 -0.919,0.532 -1.764,0.532 -0.27,0 -0.557,-0.03 -0.863,-0.088 C 0.634,9.898 0.33,9.813 0.027,9.704 -0.279,9.594 -0.57,9.466 -0.849,9.323 -1.128,9.179 -1.379,9.031 -1.597,8.879 l -1.269,2.435 c 0.642,0.44 1.383,0.804 2.22,1.091 0.836,0.287 1.847,0.431 3.032,0.431 1.588,0 2.831,-0.384 3.728,-1.154 C 7.009,10.913 7.458,9.877 7.458,8.575 7.458,7.712 7.343,6.998 7.115,6.432 6.887,5.864 6.604,5.382 6.266,4.985 5.927,4.587 5.556,4.236 5.15,3.934 4.743,3.628 4.372,3.303 4.034,2.957 3.694,2.609 3.408,2.208 3.172,1.75 2.935,1.295 2.816,0.712 2.816,0 L 0,0 z"
             inkscape:connector-curvature="0"
             id="path36"
             style="fill:#444443;fill-opacity:1;fill-rule:nonzero;stroke:none" /></g><g
           transform="translate(7.0469,8.0703)"
           id="g38"><path
             d="m 0,0 c -0.611,0 -1.059,0.258 -1.059,1.058 l 0,1.08 c 0,0.797 0.448,1.057 1.059,1.057 l 1.291,0 c 0.611,0 1.058,-0.26 1.058,-1.057 l 0,-1.08 C 2.349,0.258 1.902,0 1.291,0"
             inkscape:connector-curvature="0"
             id="path40"
             style="fill:#444443;fill-opacity:1;fill-rule:nonzero;stroke:none" /></g></g></g></g></svg>