<?xml version="1.0" encoding="UTF-8" standalone="no"?>
<!-- Created with Inkscape (http://www.inkscape.org/) -->

<svg
   xmlns:dc="http://purl.org/dc/elements/1.1/"
   xmlns:cc="http://creativecommons.org/ns#"
   xmlns:rdf="http://www.w3.org/1999/02/22-rdf-syntax-ns#"
   xmlns:svg="http://www.w3.org/2000/svg"
   xmlns="http://www.w3.org/2000/svg"
   xmlns:inkscape="http://www.inkscape.org/namespaces/inkscape"
   version="1.1"
   width="40"
   height="40"
   id="svg2"
   xml:space="preserve"><metadata
     id="metadata8"><rdf:RDF><cc:Work
         rdf:about=""><dc:format>image/svg+xml</dc:format><dc:type
           rdf:resource="http://purl.org/dc/dcmitype/StillImage" /></cc:Work></rdf:RDF></metadata><defs
     id="defs6"><clipPath
       id="clipPath18"><path
         d="M 0,32 32,32 32,0 0,0 0,32 z"
         inkscape:connector-curvature="0"
         id="path20" /></clipPath></defs><g
     transform="matrix(1.25,0,0,-1.25,0,40)"
     id="g10"><g
       id="g14"><g
         clip-path="url(#clipPath18)"
         id="g16"><g
           transform="translate(30.8164,12.6309)"
           id="g22"><path
             d="m 0,0 c 0,2.863 -6.601,5.183 -14.743,5.183 -8.159,0 -14.891,-2.32 -14.891,-5.183 0,-0.127 0.047,-2.223 0.047,-2.223 0.543,-2.691 7.047,-4.808 14.844,-4.808 7.782,0 14.154,2.117 14.698,4.808 0,0 0.045,2.096 0.045,2.223"
             inkscape:connector-curvature="0"
             id="path24"
             style="fill:#5c5c5b;fill-opacity:1;fill-rule:nonzero;stroke:none" /></g><g
           transform="translate(30.7656,12.9492)"
           id="g26"><path
             d="m 0,0 c 0,-2.688 -6.599,-4.869 -14.752,-4.869 -8.142,0 -14.748,2.181 -14.748,4.869 0,2.684 6.606,4.869 14.748,4.869 C -6.599,4.869 0,2.684 0,0"
             inkscape:connector-curvature="0"
             id="path28"
             style="fill:#8a8a89;fill-opacity:1;fill-rule:nonzero;stroke:none" /></g><g
           transform="translate(18.3242,12.8828)"
           id="g30"><path
             d="m 0,0 c 0,-0.588 -1.096,-1.066 -2.449,-1.066 -1.352,0 -2.448,0.478 -2.448,1.066 0,0.588 1.096,1.066 2.448,1.066 C -1.096,1.066 0,0.588 0,0"
             inkscape:connector-curvature="0"
             id="path32"
             style="fill:#ffffff;fill-opacity:1;fill-rule:nonzero;stroke:none" /></g><g
           transform="translate(30.8164,18.2129)"
           id="g34"><path
             d="m 0,0 c 0,2.864 -6.601,5.184 -14.743,5.184 -8.159,0 -14.891,-2.32 -14.891,-5.184 0,-0.126 0.047,-2.221 0.047,-2.221 0.543,-2.693 7.047,-4.81 14.844,-4.81 7.782,0 14.154,2.117 14.698,4.81 0,0 0.045,2.095 0.045,2.221"
             inkscape:connector-curvature="0"
             id="path36"
             style="fill:#ffffff;fill-opacity:1;fill-rule:nonzero;stroke:none" /></g><g
           transform="translate(30.8164,21.2129)"
           id="g38"><path
             d="m 0,0 c 0,2.864 -6.601,5.184 -14.743,5.184 -8.159,0 -14.891,-2.32 -14.891,-5.184 0,-0.126 0.047,-2.221 0.047,-2.221 0.543,-2.692 7.047,-4.81 14.844,-4.81 7.782,0 14.154,2.118 14.698,4.81 0,0 0.045,2.095 0.045,2.221"
             inkscape:connector-curvature="0"
             id="path40"
             style="fill:#5c5c5b;fill-opacity:1;fill-rule:nonzero;stroke:none" /></g><g
           transform="translate(30.75,21.5762)"
           id="g42"><path
             d="m 0,0 c 0,-2.688 -6.599,-4.869 -14.753,-4.869 -8.142,0 -14.747,2.181 -14.747,4.869 0,2.684 6.605,4.868 14.747,4.868 C -6.599,4.868 0,2.684 0,0"
             inkscape:connector-curvature="0"
             id="path44"
             style="fill:#8a8a89;fill-opacity:1;fill-rule:nonzero;stroke:none" /></g><g
           transform="translate(23.625,21.5757)"
           id="g46"><path
             d="M 0,0 C 0,-1.104 -3.355,-2 -7.502,-2 -11.641,-2 -15,-1.104 -15,0 c 0,1.104 3.359,2 7.498,2 C -3.355,2 0,1.104 0,0"
             inkscape:connector-curvature="0"
             id="path48"
             style="fill:#ffffff;fill-opacity:1;fill-rule:nonzero;stroke:none" /></g></g></g></g></svg>