<?xml version="1.0" encoding="UTF-8" standalone="no"?>
<!-- Created with Inkscape (http://www.inkscape.org/) -->

<svg
   xmlns:dc="http://purl.org/dc/elements/1.1/"
   xmlns:cc="http://creativecommons.org/ns#"
   xmlns:rdf="http://www.w3.org/1999/02/22-rdf-syntax-ns#"
   xmlns:svg="http://www.w3.org/2000/svg"
   xmlns="http://www.w3.org/2000/svg"
   xmlns:inkscape="http://www.inkscape.org/namespaces/inkscape"
   version="1.1"
   width="40"
   height="40"
   id="svg2"
   xml:space="preserve"><metadata
     id="metadata8"><rdf:RDF><cc:Work
         rdf:about=""><dc:format>image/svg+xml</dc:format><dc:type
           rdf:resource="http://purl.org/dc/dcmitype/StillImage" /></cc:Work></rdf:RDF></metadata><defs
     id="defs6"><clipPath
       id="clipPath20"><path
         d="M 0,32 32,32 32,0 0,0 0,32 z"
         inkscape:connector-curvature="0"
         id="path22" /></clipPath><clipPath
       id="clipPath36"><path
         d="M 0,32 32,32 32,0 0,0 0,32 z"
         inkscape:connector-curvature="0"
         id="path38" /></clipPath></defs><g
     transform="matrix(1.25,0,0,-1.25,0,40)"
     id="g10"><g
       transform="translate(1.7496,16.0002)"
       id="g12"><path
         d="M 0,0 28.5,0 0,0 z"
         inkscape:connector-curvature="0"
         id="path14"
         style="fill:#8a8a89;fill-opacity:1;fill-rule:nonzero;stroke:none" /></g><g
       id="g16"><g
         clip-path="url(#clipPath20)"
         id="g18"><g
           transform="translate(1.75,16)"
           id="g24"><path
             d="M 0,0 28.5,0"
             inkscape:connector-curvature="0"
             id="path26"
             style="fill:none;stroke:#8a8a89;stroke-width:3.5;stroke-linecap:round;stroke-linejoin:miter;stroke-miterlimit:10;stroke-opacity:1;stroke-dasharray:none" /></g></g></g><g
       transform="translate(16.029,1.7496)"
       id="g28"><path
         d="M 0,0 -0.058,28.5 0,0 z"
         inkscape:connector-curvature="0"
         id="path30"
         style="fill:#8a8a89;fill-opacity:1;fill-rule:nonzero;stroke:none" /></g><g
       id="g32"><g
         clip-path="url(#clipPath36)"
         id="g34"><g
           transform="translate(15.9712,30.25)"
           id="g40"><path
             d="M 0,0 0.058,-28.5"
             inkscape:connector-curvature="0"
             id="path42"
             style="fill:none;stroke:#8a8a89;stroke-width:3.5;stroke-linecap:round;stroke-linejoin:miter;stroke-miterlimit:10;stroke-opacity:1;stroke-dasharray:none" /></g><g
           transform="translate(11.0952,19.4536)"
           id="g44"><path
             d="m 0,0 c 1.899,2.699 5.649,3.37 8.382,1.444 2.686,-1.898 3.33,-5.661 1.431,-8.361 C 7.903,-9.625 4.16,-10.258 1.468,-8.361 -1.263,-6.436 -1.909,-2.705 0,0"
             inkscape:connector-curvature="0"
             id="path46"
             style="fill:#42ab3d;fill-opacity:1;fill-rule:nonzero;stroke:none" /></g></g></g></g></svg>