<?xml version="1.0" encoding="UTF-8" standalone="no"?>
<!-- Created with Inkscape (http://www.inkscape.org/) -->

<svg
   xmlns:dc="http://purl.org/dc/elements/1.1/"
   xmlns:cc="http://creativecommons.org/ns#"
   xmlns:rdf="http://www.w3.org/1999/02/22-rdf-syntax-ns#"
   xmlns:svg="http://www.w3.org/2000/svg"
   xmlns="http://www.w3.org/2000/svg"
   xmlns:inkscape="http://www.inkscape.org/namespaces/inkscape"
   version="1.1"
   width="40"
   height="40"
   id="svg2"
   xml:space="preserve"><metadata
     id="metadata8"><rdf:RDF><cc:Work
         rdf:about=""><dc:format>image/svg+xml</dc:format><dc:type
           rdf:resource="http://purl.org/dc/dcmitype/StillImage" /></cc:Work></rdf:RDF></metadata><defs
     id="defs6"><clipPath
       id="clipPath16"><path
         d="M 0,32 32,32 32,0 0,0 0,32 z"
         inkscape:connector-curvature="0"
         id="path18" /></clipPath></defs><g
     transform="matrix(1.25,0,0,-1.25,0,40)"
     id="g10"><g
       id="g12"><g
         clip-path="url(#clipPath16)"
         id="g14"><g
           transform="translate(2.7183,26.8105)"
           id="g20"><path
             d="m 0,0 0,-0.746 0,-4.015 0,-4.006 0,-4.008 0,-4.016 0,-3.994 0,-0.768 c 0,-2.468 1.704,-4.54 4.009,-5.125 l 0,31.782 C 1.704,4.542 0,2.477 0,0"
             inkscape:connector-curvature="0"
             id="path22"
             style="fill:#444443;fill-opacity:1;fill-rule:nonzero;stroke:none" /></g><g
           transform="translate(24.0977,32.0767)"
           id="g24"><path
             d="m 0,0 -14.782,0 0,-32.084 14.782,0 c 2.912,0 5.272,2.374 5.272,5.265 l 0,21.553 C 5.272,-2.353 2.912,0 0,0"
             inkscape:connector-curvature="0"
             id="path26"
             style="fill:#444443;fill-opacity:1;fill-rule:nonzero;stroke:none" /></g><path
           d="m 24.25,16.167 -10,0 0,10 10,0 0,-10 z"
           inkscape:connector-curvature="0"
           id="path28"
           style="fill:#dedd00;fill-opacity:1;fill-rule:nonzero;stroke:none" /></g></g></g></svg>