<?xml version="1.0" encoding="UTF-8" standalone="no"?>
<!-- Created with Inkscape (http://www.inkscape.org/) -->

<svg
   xmlns:dc="http://purl.org/dc/elements/1.1/"
   xmlns:cc="http://creativecommons.org/ns#"
   xmlns:rdf="http://www.w3.org/1999/02/22-rdf-syntax-ns#"
   xmlns:svg="http://www.w3.org/2000/svg"
   xmlns="http://www.w3.org/2000/svg"
   xmlns:inkscape="http://www.inkscape.org/namespaces/inkscape"
   version="1.1"
   width="40"
   height="40"
   id="svg2"
   xml:space="preserve"><metadata
     id="metadata8"><rdf:RDF><cc:Work
         rdf:about=""><dc:format>image/svg+xml</dc:format><dc:type
           rdf:resource="http://purl.org/dc/dcmitype/StillImage" /></cc:Work></rdf:RDF></metadata><defs
     id="defs6"><clipPath
       id="clipPath16"><path
         d="M 0,32 32,32 32,0 0,0 0,32 z"
         inkscape:connector-curvature="0"
         id="path18" /></clipPath></defs><g
     transform="matrix(1.25,0,0,-1.25,0,40)"
     id="g10"><g
       id="g12"><g
         clip-path="url(#clipPath16)"
         id="g14"><g
           transform="translate(1.0601,10.4346)"
           id="g20"><path
             d="m 0,0 c -0.588,0 -1.06,-0.547 -1.06,-1.233 0,-0.691 0.472,-1.248 1.06,-1.248 l 7.353,0 c 0.586,0 1.068,0.557 1.068,1.248 C 8.421,-0.547 7.939,0 7.353,0"
             inkscape:connector-curvature="0"
             id="path22"
             style="fill:#444443;fill-opacity:1;fill-rule:nonzero;stroke:none" /></g><g
           transform="translate(1.0464,23.8433)"
           id="g24"><path
             d="m 0,0 c -0.58,0 -1.046,-0.547 -1.046,-1.233 0,-0.691 0.466,-1.248 1.046,-1.248 l 8.004,0 c 0.578,0 0.036,0.626 0.036,1.316 C 8.04,-0.478 8.582,0 8.004,0"
             inkscape:connector-curvature="0"
             id="path26"
             style="fill:#444443;fill-opacity:1;fill-rule:nonzero;stroke:none" /></g><g
           transform="translate(1.0464,23.8433)"
           id="g28"><path
             d="m 0,0 c -0.58,0 -1.046,-0.547 -1.046,-1.233 0,-0.691 0.466,-1.248 1.046,-1.248 l 9.073,0 c 0.578,0 0.036,0.626 0.036,1.316 C 9.109,-0.478 9.651,0 9.073,0"
             inkscape:connector-curvature="0"
             id="path30"
             style="fill:#444443;fill-opacity:1;fill-rule:nonzero;stroke:none" /></g><g
           transform="translate(10.1191,31.0142)"
           id="g32"><path
             d="m 0,0 0,-30 c 0,0 13.896,1.533 13.896,14.34 C 13.896,-1.44 2.666,0 0,0 z"
             inkscape:connector-curvature="0"
             id="path34"
             style="fill:none;stroke:#444443;stroke-width:2;stroke-linecap:butt;stroke-linejoin:round;stroke-miterlimit:10;stroke-opacity:1;stroke-dasharray:none" /></g><g
           transform="translate(1.0601,10.4346)"
           id="g36"><path
             d="m 0,0 c -0.588,0 -1.06,-0.547 -1.06,-1.233 0,-0.691 0.472,-1.248 1.06,-1.248 l 8.792,0 c 0.585,0 1.068,0.557 1.068,1.248 C 9.86,-0.547 9.377,0 8.792,0"
             inkscape:connector-curvature="0"
             id="path38"
             style="fill:#444443;fill-opacity:1;fill-rule:nonzero;stroke:none" /></g><path
           d="m 32,7.947 -20.891,0 0,15.895 20.891,0 0,-15.895 z"
           inkscape:connector-curvature="0"
           id="path40"
           style="fill:#b4b3b3;fill-opacity:1;fill-rule:nonzero;stroke:none" /><g
           transform="translate(16.7568,22.271)"
           id="g42"><path
             d="m 0,0 c -0.701,0 -1.266,-0.561 -1.266,-1.261 0,-0.701 0.565,-1.272 1.266,-1.272 l 9.939,0 c 0.699,0 1.278,0.571 1.278,1.272 0,0.7 -0.579,1.261 -1.278,1.261"
             inkscape:connector-curvature="0"
             id="path44"
             style="fill:#444443;fill-opacity:1;fill-rule:nonzero;stroke:none" /></g><g
           transform="translate(16.7568,16.9912)"
           id="g46"><path
             d="m 0,0 c -0.701,0 -1.266,-0.561 -1.266,-1.261 0,-0.702 0.565,-1.272 1.266,-1.272 l 9.939,0 c 0.699,0 1.278,0.57 1.278,1.272 0,0.7 -0.579,1.261 -1.278,1.261"
             inkscape:connector-curvature="0"
             id="path48"
             style="fill:#444443;fill-opacity:1;fill-rule:nonzero;stroke:none" /></g><g
           transform="translate(16.7568,11.9824)"
           id="g50"><path
             d="m 0,0 c -0.701,0 -1.266,-0.561 -1.266,-1.261 0,-0.701 0.565,-1.271 1.266,-1.271 l 3.189,0 c 0.699,0 1.278,0.57 1.278,1.271 C 4.467,-0.561 3.888,0 3.189,0"
             inkscape:connector-curvature="0"
             id="path52"
             style="fill:#444443;fill-opacity:1;fill-rule:nonzero;stroke:none" /></g></g></g></g></svg>