<?xml version="1.0" encoding="UTF-8" standalone="no"?>
<!-- Created with Inkscape (http://www.inkscape.org/) -->

<svg
   xmlns:dc="http://purl.org/dc/elements/1.1/"
   xmlns:cc="http://creativecommons.org/ns#"
   xmlns:rdf="http://www.w3.org/1999/02/22-rdf-syntax-ns#"
   xmlns:svg="http://www.w3.org/2000/svg"
   xmlns="http://www.w3.org/2000/svg"
   xmlns:inkscape="http://www.inkscape.org/namespaces/inkscape"
   version="1.1"
   width="40"
   height="40"
   id="svg2"
   xml:space="preserve"><metadata
     id="metadata8"><rdf:RDF><cc:Work
         rdf:about=""><dc:format>image/svg+xml</dc:format><dc:type
           rdf:resource="http://purl.org/dc/dcmitype/StillImage" /></cc:Work></rdf:RDF></metadata><defs
     id="defs6"><clipPath
       id="clipPath16"><path
         d="M 0,32 32,32 32,0 0,0 0,32 z"
         inkscape:connector-curvature="0"
         id="path18" /></clipPath></defs><g
     transform="matrix(1.25,0,0,-1.25,0,40)"
     id="g10"><g
       id="g12"><g
         clip-path="url(#clipPath16)"
         id="g14"><g
           transform="translate(18.2432,9.332)"
           id="g20"><path
             d="m 0,0 0,-3.435 c 0,-1.175 -0.933,-2.132 -2.09,-2.132 -1.157,0 -2.094,0.957 -2.094,2.132 l 0,3.435 c -0.908,0.665 -1.498,1.749 -1.498,2.96 0,2 1.611,3.655 3.592,3.655 1.984,0 3.6,-1.652 3.6,-3.655 C 1.51,1.749 0.904,0.665 0,0 m -14.243,11.04 0,-15.435 c 0,-2.709 2.168,-4.937 4.844,-4.937 l 14.327,0 c 2.658,0 4.829,2.228 4.829,4.937 l 0,15.435 -24,0 z"
             inkscape:connector-curvature="0"
             id="path22"
             style="fill:#444443;fill-opacity:1;fill-rule:nonzero;stroke:none" /></g><g
           transform="translate(16.1772,32)"
           id="g24"><path
             d="m 0,0 c -5.408,0 -9.805,-4.483 -9.805,-9.994 l -0.068,-16.485 3.7,-0.006 0.056,16.491 c 0,3.445 2.744,6.229 6.117,6.229 3.382,0 6.119,-2.784 6.119,-6.229 l 0.011,-15.825 3.703,0 -0.014,15.825 C 9.819,-4.483 5.408,0 0,0"
             inkscape:connector-curvature="0"
             id="path26"
             style="fill:#444443;fill-opacity:1;fill-rule:nonzero;stroke:none" /></g></g></g></g></svg>