<?xml version="1.0" encoding="UTF-8" standalone="no"?>
<!-- Created with Inkscape (http://www.inkscape.org/) -->

<svg
   xmlns:dc="http://purl.org/dc/elements/1.1/"
   xmlns:cc="http://creativecommons.org/ns#"
   xmlns:rdf="http://www.w3.org/1999/02/22-rdf-syntax-ns#"
   xmlns:svg="http://www.w3.org/2000/svg"
   xmlns="http://www.w3.org/2000/svg"
   xmlns:inkscape="http://www.inkscape.org/namespaces/inkscape"
   version="1.1"
   width="40"
   height="40"
   id="svg2"
   xml:space="preserve"><metadata
     id="metadata8"><rdf:RDF><cc:Work
         rdf:about=""><dc:format>image/svg+xml</dc:format><dc:type
           rdf:resource="http://purl.org/dc/dcmitype/StillImage" /></cc:Work></rdf:RDF></metadata><defs
     id="defs6"><clipPath
       id="clipPath16"><path
         d="M 0,32 32,32 32,0 0,0 0,32 z"
         inkscape:connector-curvature="0"
         id="path18" /></clipPath></defs><g
     transform="matrix(1.25,0,0,-1.25,0,40)"
     id="g10"><g
       id="g12"><g
         clip-path="url(#clipPath16)"
         id="g14"><g
           transform="translate(8.1069,30.5)"
           id="g20"><path
             d="M 0,0 0,-29"
             inkscape:connector-curvature="0"
             id="path22"
             style="fill:none;stroke:#8a8a89;stroke-width:3;stroke-linecap:round;stroke-linejoin:round;stroke-miterlimit:10;stroke-opacity:1;stroke-dasharray:none" /></g><g
           transform="translate(23.7471,17.73)"
           id="g24"><path
             d="m 0,0 -2.975,0 0,-2.97 c 0,-0.832 -0.683,-1.51 -1.505,-1.51 -0.795,0 -1.499,0.678 -1.499,1.51 l 0,2.97 -2.97,0 c -0.818,0 -1.485,0.684 -1.485,1.502 0,0.811 0.667,1.484 1.485,1.484 l 2.97,0 0,3.017 c 0,0.794 0.704,1.481 1.499,1.481 0.822,0 1.505,-0.687 1.505,-1.481 l 0,-3.017 2.975,0 C 0.818,2.986 1.502,2.313 1.502,1.502 1.502,0.684 0.818,0 0,0 0,0 0.826,0 0,0"
             inkscape:connector-curvature="0"
             id="path26"
             style="fill:#444443;fill-opacity:1;fill-rule:nonzero;stroke:none" /></g><g
           transform="translate(1.5,8.0332)"
           id="g28"><path
             d="M 0,0 29,0"
             inkscape:connector-curvature="0"
             id="path30"
             style="fill:none;stroke:#8a8a89;stroke-width:3;stroke-linecap:round;stroke-linejoin:round;stroke-miterlimit:10;stroke-opacity:1;stroke-dasharray:none" /></g></g></g></g></svg>