<?xml version="1.0" encoding="UTF-8" standalone="no"?>
<!-- Created with Inkscape (http://www.inkscape.org/) -->

<svg
   xmlns:dc="http://purl.org/dc/elements/1.1/"
   xmlns:cc="http://creativecommons.org/ns#"
   xmlns:rdf="http://www.w3.org/1999/02/22-rdf-syntax-ns#"
   xmlns:svg="http://www.w3.org/2000/svg"
   xmlns="http://www.w3.org/2000/svg"
   xmlns:inkscape="http://www.inkscape.org/namespaces/inkscape"
   version="1.1"
   width="40"
   height="40"
   id="svg2"
   xml:space="preserve"><metadata
     id="metadata8"><rdf:RDF><cc:Work
         rdf:about=""><dc:format>image/svg+xml</dc:format><dc:type
           rdf:resource="http://purl.org/dc/dcmitype/StillImage" /></cc:Work></rdf:RDF></metadata><defs
     id="defs6"><clipPath
       id="clipPath16"><path
         d="M 0,32 32,32 32,0 0,0 0,32 z"
         inkscape:connector-curvature="0"
         id="path18" /></clipPath></defs><g
     transform="matrix(1.25,0,0,-1.25,0,40)"
     id="g10"><g
       id="g12"><g
         clip-path="url(#clipPath16)"
         id="g14"><g
           transform="translate(32.042,16)"
           id="g20"><path
             d="m 0,0 c 0,-8.837 -7.163,-16 -16,-16 -8.836,0 -16,7.163 -16,16 0,8.836 7.164,16 16,16 C -7.163,16 0,8.836 0,0"
             inkscape:connector-curvature="0"
             id="path22"
             style="fill:#444443;fill-opacity:1;fill-rule:nonzero;stroke:none" /></g><g
           transform="translate(16.5498,5.4131)"
           id="g24"><path
             d="m 0,0 c 1.47,0 2.165,-0.736 2.165,-2.203 l 0,-1.007 C 2.165,-4.676 1.47,-5.413 0,-5.413 l -1.004,0 c -1.471,0 -2.166,0.737 -2.166,2.203 l 0,1.007 C -3.17,-0.736 -2.475,0 -1.004,0 L 0,0 z m 0.503,21.317 c 1.662,0 1.738,-1.007 1.662,-2.864 L 1.47,5.197 C 1.39,3.844 1.082,2.724 -0.502,2.724 c -1.585,0 -1.895,1.12 -1.973,2.473 L -3.17,18.453 c -0.117,1.857 0.04,2.864 1.701,2.864 l 1.972,0 z"
             inkscape:connector-curvature="0"
             id="path26"
             style="fill:#ffffff;fill-opacity:1;fill-rule:nonzero;stroke:none" /></g></g></g></g></svg>