<?xml version="1.0" encoding="UTF-8" standalone="no"?>
<!-- Created with Inkscape (http://www.inkscape.org/) -->

<svg
   xmlns:dc="http://purl.org/dc/elements/1.1/"
   xmlns:cc="http://creativecommons.org/ns#"
   xmlns:rdf="http://www.w3.org/1999/02/22-rdf-syntax-ns#"
   xmlns:svg="http://www.w3.org/2000/svg"
   xmlns="http://www.w3.org/2000/svg"
   xmlns:inkscape="http://www.inkscape.org/namespaces/inkscape"
   version="1.1"
   width="40"
   height="40"
   id="svg2"
   xml:space="preserve"><metadata
     id="metadata8"><rdf:RDF><cc:Work
         rdf:about=""><dc:format>image/svg+xml</dc:format><dc:type
           rdf:resource="http://purl.org/dc/dcmitype/StillImage" /></cc:Work></rdf:RDF></metadata><defs
     id="defs6"><clipPath
       id="clipPath16"><path
         d="M 0,32 32,32 32,0 0,0 0,32 z"
         inkscape:connector-curvature="0"
         id="path18" /></clipPath></defs><g
     transform="matrix(1.25,0,0,-1.25,0,40)"
     id="g10"><g
       id="g12"><g
         clip-path="url(#clipPath16)"
         id="g14"><g
           transform="translate(10.9658,27.5024)"
           id="g20"><path
             d="m 0,0 4.31,4.314 c 0.239,0.245 0.634,0.245 0.874,0 L 9.498,0 c 0.37,-0.371 0.098,-1.04 -0.439,-1.04 l -2.85,0 0,-3.724 -2.93,0 0,3.724 -2.85,0 C -0.103,-1.04 -0.381,-0.371 0,0"
             inkscape:connector-curvature="0"
             id="path22"
             style="fill:#686767;fill-opacity:1;fill-rule:nonzero;stroke:none" /></g><g
           transform="translate(20.457,4.498)"
           id="g24"><path
             d="m 0,0 -4.31,-4.314 c -0.239,-0.245 -0.634,-0.245 -0.874,0 L -9.498,0 c -0.37,0.371 -0.098,1.039 0.439,1.039 l 2.85,0 0,3.725 2.93,0 0,-3.725 2.849,0 C 0.103,1.039 0.381,0.371 0,0"
             inkscape:connector-curvature="0"
             id="path26"
             style="fill:#686767;fill-opacity:1;fill-rule:nonzero;stroke:none" /></g><g
           transform="translate(4.4976,11.5879)"
           id="g28"><path
             d="m 0,0 -4.314,4.31 c -0.245,0.239 -0.245,0.634 0,0.874 L 0,9.498 c 0.371,0.37 1.04,0.098 1.04,-0.439 l 0,-2.85 3.724,0 0,-2.93 -3.724,0 0,-2.85 C 1.04,-0.103 0.371,-0.381 0,0"
             inkscape:connector-curvature="0"
             id="path30"
             style="fill:#686767;fill-opacity:1;fill-rule:nonzero;stroke:none" /></g><g
           transform="translate(27.502,21.0791)"
           id="g32"><path
             d="m 0,0 4.314,-4.31 c 0.245,-0.239 0.245,-0.634 0,-0.874 L 0,-9.498 c -0.371,-0.37 -1.039,-0.098 -1.039,0.439 l 0,2.85 -3.725,0 0,2.93 3.725,0 0,2.849 C -1.039,0.103 -0.371,0.381 0,0"
             inkscape:connector-curvature="0"
             id="path34"
             style="fill:#686767;fill-opacity:1;fill-rule:nonzero;stroke:none" /></g></g></g></g></svg>