<?xml version="1.0" encoding="UTF-8" standalone="no"?>
<!-- Created with Inkscape (http://www.inkscape.org/) -->

<svg
   xmlns:dc="http://purl.org/dc/elements/1.1/"
   xmlns:cc="http://creativecommons.org/ns#"
   xmlns:rdf="http://www.w3.org/1999/02/22-rdf-syntax-ns#"
   xmlns:svg="http://www.w3.org/2000/svg"
   xmlns="http://www.w3.org/2000/svg"
   xmlns:inkscape="http://www.inkscape.org/namespaces/inkscape"
   version="1.1"
   width="40"
   height="40"
   id="svg2"
   xml:space="preserve"><metadata
     id="metadata8"><rdf:RDF><cc:Work
         rdf:about=""><dc:format>image/svg+xml</dc:format><dc:type
           rdf:resource="http://purl.org/dc/dcmitype/StillImage" /></cc:Work></rdf:RDF></metadata><defs
     id="defs6"><clipPath
       id="clipPath16"><path
         d="M 0,32 32,32 32,0 0,0 0,32 z"
         inkscape:connector-curvature="0"
         id="path18" /></clipPath></defs><g
     transform="matrix(1.25,0,0,-1.25,0,40)"
     id="g10"><g
       id="g12"><g
         clip-path="url(#clipPath16)"
         id="g14"><g
           transform="translate(5.6143,28.2944)"
           id="g20"><path
             d="m 0,0 3.213,0 c 0.406,0 1.043,0.029 1.043,0.607 l 0,0.999 c 0,0.579 -0.593,0.651 -1.028,0.651 L 0,2.257 0,0 z m 0,-6.834 c 0,-0.463 -0.203,-0.724 -0.724,-0.724 -0.522,0 -0.724,0.261 -0.724,0.724 l 0,10.54 4.864,0 c 1.144,0 2.288,-0.811 2.288,-2.1 l 0,-0.999 c 0,-1.36 -1.13,-2.056 -2.288,-2.056 l -1.332,0 3.257,-4.661 c 0.16,-0.217 0.363,-0.493 0.363,-0.767 0,-0.406 -0.333,-0.681 -0.739,-0.681 -0.29,0 -0.478,0.174 -0.637,0.406 l -3.995,5.703 -0.333,0 0,-5.385 z"
             inkscape:connector-curvature="0"
             id="path22"
             style="fill:#444443;fill-opacity:1;fill-rule:nonzero;stroke:none" /></g><g
           transform="translate(14.5391,22.1846)"
           id="g24"><path
             d="m 0,0 4.98,0 c 0.375,0 0.724,-0.203 0.724,-0.724 0,-0.521 -0.349,-0.724 -0.724,-0.724 l -6.428,0 0,4.719 c 0,1.087 0.551,1.637 1.636,1.637 l 4.068,0 0,3.459 -4.98,0 c -0.376,0 -0.724,0.203 -0.724,0.725 0,0.52 0.348,0.723 0.724,0.723 l 4.808,0 C 4.562,9.815 4.893,9.743 5.256,9.41 5.659,9.033 5.704,8.643 5.704,8.121 l 0,-2.967 C 5.704,4.632 5.659,4.242 5.256,3.866 4.893,3.532 4.562,3.46 4.084,3.46 L 0,3.46 0,0 z"
             inkscape:connector-curvature="0"
             id="path26"
             style="fill:#444443;fill-opacity:1;fill-rule:nonzero;stroke:none" /></g><g
           transform="translate(13.2383,2.8145)"
           id="g28"><path
             d="m 0,0 c 0,-0.313 0.11,-0.518 0.551,-0.896 0.33,-0.283 0.566,-0.407 1.038,-0.407 l 1.195,0 c 0.471,0 0.709,0.124 1.038,0.407 0.44,0.378 0.55,0.583 0.55,0.896 l 0,5.996 c 0,0.315 -0.11,0.518 -0.55,0.898 C 3.493,7.175 3.255,7.3 2.784,7.3 l -1.195,0 C 1.117,7.3 0.881,7.175 0.551,6.894 0.11,6.514 0,6.311 0,5.996 L 0,0 z m -1.51,5.996 c 0,1.006 0.205,1.354 0.96,1.965 0.739,0.616 1.086,0.851 2.139,0.851 l 1.195,0 c 1.056,0 1.4,-0.235 2.139,-0.851 C 5.679,7.35 5.882,7.002 5.882,5.996 L 5.882,0 c 0,-0.989 -0.251,-1.368 -1.037,-2.028 -0.786,-0.66 -1.102,-0.786 -2.061,-0.786 l -1.195,0 c -0.96,0 -1.274,0.126 -2.06,0.786 C -1.258,-1.368 -1.51,-0.989 -1.51,0 l 0,5.996 z"
             inkscape:connector-curvature="0"
             id="path30"
             style="fill:#9e9e9e;fill-opacity:1;fill-rule:nonzero;stroke:none" /></g><g
           transform="translate(25.3438,7.8643)"
           id="g32"><path
             d="m 0,0 c 0.268,0.236 0.646,0.613 1.006,0.613 0.424,0 0.756,-0.343 0.756,-0.77 0,-0.362 -0.237,-0.534 -0.504,-0.756 l -2.926,-2.422 3.557,-2.957 c 0.281,-0.236 0.533,-0.409 0.533,-0.802 0,-0.425 -0.33,-0.77 -0.754,-0.77 -0.301,0 -0.488,0.188 -0.709,0.361 l -3.793,3.162 -0.627,-0.565 0,-1.92 c 0,-0.52 -0.109,-1.038 -0.755,-1.038 -0.645,0 -0.756,0.518 -0.756,1.038 l 0,9.514 c 0,0.521 0.111,1.041 0.756,1.041 0.646,0 0.755,-0.52 0.755,-1.041 l 0,-5.599 L 0,0 z"
             inkscape:connector-curvature="0"
             id="path34"
             style="fill:#9e9e9e;fill-opacity:1;fill-rule:nonzero;stroke:none" /></g><g
           transform="translate(5.4995,16.0005)"
           id="g36"><path
             d="M 0,0 20.834,0"
             inkscape:connector-curvature="0"
             id="path38"
             style="fill:#8a8a89;fill-opacity:1;fill-rule:nonzero;stroke:#444443;stroke-width:2.5;stroke-linecap:round;stroke-linejoin:miter;stroke-miterlimit:10;stroke-opacity:1;stroke-dasharray:none" /></g><g
           transform="translate(9.4404,1.3564)"
           id="g40"><path
             d="m 0,0 0,0.568 c 0,0.393 0.178,0.679 0.679,0.679 0.502,0 0.677,-0.286 0.677,-0.679 l 0,-1.247 c 0,-0.487 -0.325,-0.677 -0.677,-0.677 l -5.343,0 c -0.354,0 -0.678,0.19 -0.678,0.677 0,0.489 0.324,0.679 0.678,0.679 L -2.671,0 -1.314,0 0,0 z"
             inkscape:connector-curvature="0"
             id="path42"
             style="fill:#9e9e9e;fill-opacity:1;fill-rule:nonzero;stroke:none" /></g><g
           transform="translate(4.5293,9.1875)"
           id="g44"><path
             d="m 0,0 2.833,1.648 0,-9.631"
             inkscape:connector-curvature="0"
             id="path46"
             style="fill:none;stroke:#9e9e9e;stroke-width:1.5;stroke-linecap:round;stroke-linejoin:round;stroke-miterlimit:10;stroke-opacity:1;stroke-dasharray:none" /></g></g></g></g></svg>