<?xml version="1.0" encoding="UTF-8" standalone="no"?>
<!-- Created with Inkscape (http://www.inkscape.org/) -->

<svg
   xmlns:dc="http://purl.org/dc/elements/1.1/"
   xmlns:cc="http://creativecommons.org/ns#"
   xmlns:rdf="http://www.w3.org/1999/02/22-rdf-syntax-ns#"
   xmlns:svg="http://www.w3.org/2000/svg"
   xmlns="http://www.w3.org/2000/svg"
   xmlns:inkscape="http://www.inkscape.org/namespaces/inkscape"
   version="1.1"
   width="40"
   height="40"
   id="svg2"
   xml:space="preserve"><metadata
     id="metadata8"><rdf:RDF><cc:Work
         rdf:about=""><dc:format>image/svg+xml</dc:format><dc:type
           rdf:resource="http://purl.org/dc/dcmitype/StillImage" /></cc:Work></rdf:RDF></metadata><defs
     id="defs6"><clipPath
       id="clipPath16"><path
         d="M 0,32 32,32 32,0 0,0 0,32 z"
         inkscape:connector-curvature="0"
         id="path18" /></clipPath></defs><g
     transform="matrix(1.25,0,0,-1.25,0,40)"
     id="g10"><g
       id="g12"><g
         clip-path="url(#clipPath16)"
         id="g14"><g
           transform="translate(29.4844,25.5366)"
           id="g20"><path
             d="m 0,0 c -1.427,1.427 -3.731,1.427 -5.151,0 l -11.507,-11.344 -5.168,5.177 c -1.417,1.418 -3.729,1.418 -5.157,0 -1.418,-1.435 -1.418,-3.75 0,-5.177 l 7.74,-7.738 c 1.43,-1.415 3.742,-1.415 5.169,0 L 0,-5.152 C 1.437,-3.724 1.437,-1.422 0,0"
             inkscape:connector-curvature="0"
             id="path22"
             style="fill:#79b935;fill-opacity:1;fill-rule:nonzero;stroke:none" /></g></g></g></g></svg>