<?xml version="1.0" encoding="UTF-8" standalone="no"?>
<!-- Created with Inkscape (http://www.inkscape.org/) -->

<svg
   xmlns:dc="http://purl.org/dc/elements/1.1/"
   xmlns:cc="http://creativecommons.org/ns#"
   xmlns:rdf="http://www.w3.org/1999/02/22-rdf-syntax-ns#"
   xmlns:svg="http://www.w3.org/2000/svg"
   xmlns="http://www.w3.org/2000/svg"
   xmlns:inkscape="http://www.inkscape.org/namespaces/inkscape"
   version="1.1"
   width="40"
   height="40"
   id="svg2"
   xml:space="preserve"><metadata
     id="metadata8"><rdf:RDF><cc:Work
         rdf:about=""><dc:format>image/svg+xml</dc:format><dc:type
           rdf:resource="http://purl.org/dc/dcmitype/StillImage" /></cc:Work></rdf:RDF></metadata><defs
     id="defs6"><clipPath
       id="clipPath18"><path
         d="M 0,32 32,32 32,0 0,0 0,32 z"
         inkscape:connector-curvature="0"
         id="path20" /></clipPath></defs><g
     transform="matrix(1.25,0,0,-1.25,0,40)"
     id="g10"><g
       id="g14"><g
         clip-path="url(#clipPath18)"
         id="g16"><g
           transform="translate(1.0601,10.4346)"
           id="g22"><path
             d="m 0,0 c -0.588,0 -1.06,-0.547 -1.06,-1.233 0,-0.691 0.472,-1.248 1.06,-1.248 l 8.792,0 c 0.585,0 1.068,0.557 1.068,1.248 C 9.86,-0.547 9.377,0 8.792,0"
             inkscape:connector-curvature="0"
             id="path24"
             style="fill:#737372;fill-opacity:1;fill-rule:nonzero;stroke:none" /></g><g
           transform="translate(1.0464,23.8433)"
           id="g26"><path
             d="m 0,0 c -0.58,0 -1.046,-0.547 -1.046,-1.233 0,-0.691 0.466,-1.248 1.046,-1.248 l 9.073,0 c 0.578,0 0.036,0.626 0.036,1.316 C 9.109,-0.478 9.651,0 9.073,0"
             inkscape:connector-curvature="0"
             id="path28"
             style="fill:#737372;fill-opacity:1;fill-rule:nonzero;stroke:none" /></g><g
           transform="translate(10.1191,31.0142)"
           id="g30"><path
             d="m 0,0 0,-30 c 0,0 13.896,1.533 13.896,14.34 C 13.896,-1.44 2.666,0 0,0 z"
             inkscape:connector-curvature="0"
             id="path32"
             style="fill:none;stroke:#737372;stroke-width:2;stroke-linecap:butt;stroke-linejoin:round;stroke-miterlimit:10;stroke-opacity:1;stroke-dasharray:none" /></g><g
           transform="translate(20.0986,16.5039)"
           id="g34"><path
             d="m 0,0 0,-3.67 c 0,-1.006 1.217,-1.588 2.003,-0.928 l 7.324,6.102 c 0.58,0.478 0.58,1.387 0,1.873 L 2.003,9.481 C 1.217,10.132 0,9.556 0,8.539 l 0,-3.654 -7.932,0 L -7.932,0 0,0 z"
             inkscape:connector-curvature="0"
             id="path36"
             style="fill:#ffffff;fill-opacity:1;fill-rule:nonzero;stroke:none" /></g><g
           transform="translate(20.8154,11.9727)"
           id="g38"><path
             d="m 0,0 0,-3.67 c 0,-1.006 1.217,-1.588 2.003,-0.928 l 7.324,6.102 c 0.58,0.478 0.58,1.387 0,1.873 L 2.003,9.48 C 1.217,10.133 0,9.557 0,8.539 l 0,-3.654 -8.482,0 L -8.482,0 0,0 z"
             inkscape:connector-curvature="0"
             id="path40"
             style="fill:#ffffff;fill-opacity:1;fill-rule:nonzero;stroke:none" /></g><g
           transform="translate(21.5254,14.2793)"
           id="g42"><path
             d="M 0,0 0,-3.553 C 0,-4.527 1.178,-5.091 1.938,-4.451 L 9.03,1.457 c 0.562,0.462 0.562,1.342 0,1.813 L 1.938,9.18 C 1.178,9.812 0,9.253 0,8.268 l 0,-3.539 -7.775,0 L -7.775,0 0,0 z"
             inkscape:connector-curvature="0"
             id="path44"
             style="fill:#444443;fill-opacity:1;fill-rule:nonzero;stroke:none" /></g></g></g></g></svg>