<?xml version="1.0" encoding="UTF-8" standalone="no"?>
<!-- Created with Inkscape (http://www.inkscape.org/) -->

<svg
   xmlns:dc="http://purl.org/dc/elements/1.1/"
   xmlns:cc="http://creativecommons.org/ns#"
   xmlns:rdf="http://www.w3.org/1999/02/22-rdf-syntax-ns#"
   xmlns:svg="http://www.w3.org/2000/svg"
   xmlns="http://www.w3.org/2000/svg"
   xmlns:inkscape="http://www.inkscape.org/namespaces/inkscape"
   version="1.1"
   width="40"
   height="40"
   id="svg2"
   xml:space="preserve"><metadata
     id="metadata8"><rdf:RDF><cc:Work
         rdf:about=""><dc:format>image/svg+xml</dc:format><dc:type
           rdf:resource="http://purl.org/dc/dcmitype/StillImage" /></cc:Work></rdf:RDF></metadata><defs
     id="defs6"><clipPath
       id="clipPath18"><path
         d="M 0,32 32,32 32,0 0,0 0,32 z"
         inkscape:connector-curvature="0"
         id="path20" /></clipPath></defs><g
     transform="matrix(1.25,0,0,-1.25,0,40)"
     id="g10"><g
       id="g14"><g
         clip-path="url(#clipPath18)"
         id="g16"><g
           transform="translate(5.752,29.5249)"
           id="g22"><path
             d="M 0,0 C 0,-15.329 -0.002,-12.58 -0.004,-20.275"
             inkscape:connector-curvature="0"
             id="path24"
             style="fill:none;stroke:#444443;stroke-width:5;stroke-linecap:round;stroke-linejoin:round;stroke-miterlimit:10;stroke-opacity:1;stroke-dasharray:none" /></g><g
           transform="translate(15.9961,29.5249)"
           id="g26"><path
             d="M 0,0 C 0,-15.329 -0.002,-12.58 -0.004,-20.275"
             inkscape:connector-curvature="0"
             id="path28"
             style="fill:none;stroke:#444443;stroke-width:5;stroke-linecap:round;stroke-linejoin:round;stroke-miterlimit:10;stroke-opacity:1;stroke-dasharray:none" /></g><g
           transform="translate(26.248,29.5249)"
           id="g30"><path
             d="M 0,0 C 0,-15.329 -0.001,-12.58 -0.003,-20.275"
             inkscape:connector-curvature="0"
             id="path32"
             style="fill:none;stroke:#444443;stroke-width:5;stroke-linecap:round;stroke-linejoin:round;stroke-miterlimit:10;stroke-opacity:1;stroke-dasharray:none" /></g><g
           transform="translate(0.002,27.292)"
           id="g34"><path
             d="m 0,0 0,-22.334 31.992,0 0,22.334"
             inkscape:connector-curvature="0"
             id="path36"
             style="fill:#b4b3b3;fill-opacity:1;fill-rule:nonzero;stroke:none" /></g><path
           d="m 32,3.333 -9.333,0 0,5.084 9.333,0 0,-5.084 z"
           inkscape:connector-curvature="0"
           id="path38"
           style="fill:#ffffff;fill-opacity:1;fill-rule:nonzero;stroke:none" /><g
           transform="translate(22.2373,4.75)"
           id="g40"><path
             d="M 0,0 0,-2.174 C 0,-3.18 1.217,-3.762 2.003,-3.102 L 9.327,3 c 0.58,0.479 0.58,2.514 0,3 l -7.324,5.833 c -0.786,0.652 -3.74,0.688 -3.74,-1.979 l 0,-3.187 -9.667,0 0,-6.667 L 0,0 z"
             inkscape:connector-curvature="0"
             id="path42"
             style="fill:#ffffff;fill-opacity:1;fill-rule:nonzero;stroke:none" /></g><g
           transform="translate(22.5488,5)"
           id="g44"><path
             d="M 0,0 0,-3.829 C 0,-4.804 1.178,-5.367 1.938,-4.728 L 9.03,1.181 c 0.562,0.463 0.562,1.341 0,1.812 L 1.938,8.903 C 1.178,9.535 0,8.978 0,7.991 l 0,-3.538 -9.59,0 L -9.59,0 0,0 z"
             inkscape:connector-curvature="0"
             id="path46"
             style="fill:#444443;fill-opacity:1;fill-rule:nonzero;stroke:none" /></g></g></g></g></svg>