<?xml version="1.0" encoding="UTF-8" standalone="no"?>
<!-- Created with Inkscape (http://www.inkscape.org/) -->

<svg
   xmlns:dc="http://purl.org/dc/elements/1.1/"
   xmlns:cc="http://creativecommons.org/ns#"
   xmlns:rdf="http://www.w3.org/1999/02/22-rdf-syntax-ns#"
   xmlns:svg="http://www.w3.org/2000/svg"
   xmlns="http://www.w3.org/2000/svg"
   xmlns:inkscape="http://www.inkscape.org/namespaces/inkscape"
   version="1.1"
   width="40"
   height="40"
   id="svg2"
   xml:space="preserve"><metadata
     id="metadata8"><rdf:RDF><cc:Work
         rdf:about=""><dc:format>image/svg+xml</dc:format><dc:type
           rdf:resource="http://purl.org/dc/dcmitype/StillImage" /></cc:Work></rdf:RDF></metadata><defs
     id="defs6"><clipPath
       id="clipPath18"><path
         d="M 0,32 32,32 32,0 0,0 0,32 z"
         inkscape:connector-curvature="0"
         id="path20" /></clipPath></defs><g
     transform="matrix(1.25,0,0,-1.25,0,40)"
     id="g10"><g
       id="g14"><g
         clip-path="url(#clipPath18)"
         id="g16"><g
           transform="translate(0.5376,17.7734)"
           id="g22"><path
             d="m 0,0 c -0.298,0 -0.538,-0.277 -0.538,-0.626 0,-0.35 0.24,-0.633 0.538,-0.633 l 4.461,0 c 0.297,0 0.542,0.283 0.542,0.633 C 5.003,-0.277 4.758,0 4.461,0"
             inkscape:connector-curvature="0"
             id="path24"
             style="fill:#b4b3b3;fill-opacity:1;fill-rule:nonzero;stroke:none" /></g><g
           transform="translate(0.5308,24.5776)"
           id="g26"><path
             d="m 0,0 c -0.294,0 -0.531,-0.278 -0.531,-0.626 0,-0.35 0.237,-0.633 0.531,-0.633 l 4.604,0 c 0.293,0 0.019,0.317 0.019,0.668 C 4.623,-0.243 4.897,0 4.604,0"
             inkscape:connector-curvature="0"
             id="path28"
             style="fill:#b4b3b3;fill-opacity:1;fill-rule:nonzero;stroke:none" /></g><g
           transform="translate(12.4541,21.2739)"
           id="g30"><path
             d="m 0,0 c -0.298,0 -0.537,-0.277 -0.537,-0.626 0,-0.35 0.239,-0.633 0.537,-0.633 l 3.221,0 c 0.297,0 0.542,0.283 0.542,0.633 C 3.763,-0.277 3.518,0 3.221,0"
             inkscape:connector-curvature="0"
             id="path32"
             style="fill:#b4b3b3;fill-opacity:1;fill-rule:nonzero;stroke:none" /></g><g
           transform="translate(5.1348,28.2158)"
           id="g34"><path
             d="m 0,0 0,-15.223 c 0,0 7.051,0.778 7.051,7.277 C 7.051,-0.731 1.352,0 0,0"
             inkscape:connector-curvature="0"
             id="path36"
             style="fill:#b4b3b3;fill-opacity:1;fill-rule:nonzero;stroke:none" /></g><g
           transform="translate(5.1348,28.2158)"
           id="g38"><path
             d="m 0,0 0,-15.223 c 0,0 7.051,0.778 7.051,7.277 C 7.051,-0.731 1.352,0 0,0 z"
             inkscape:connector-curvature="0"
             id="path40"
             style="fill:none;stroke:#b4b3b3;stroke-width:2;stroke-linecap:butt;stroke-linejoin:round;stroke-miterlimit:10;stroke-opacity:1;stroke-dasharray:none" /></g><g
           transform="translate(16.3213,17.7734)"
           id="g42"><path
             d="m 0,0 c -0.298,0 -0.538,-0.277 -0.538,-0.626 0,-0.35 0.24,-0.633 0.538,-0.633 l 4.461,0 c 0.298,0 0.542,0.283 0.542,0.633 C 5.003,-0.277 4.759,0 4.461,0"
             inkscape:connector-curvature="0"
             id="path44"
             style="fill:#b4b3b3;fill-opacity:1;fill-rule:nonzero;stroke:none" /></g><g
           transform="translate(16.3145,24.5776)"
           id="g46"><path
             d="m 0,0 c -0.294,0 -0.531,-0.278 -0.531,-0.626 0,-0.35 0.237,-0.633 0.531,-0.633 l 4.604,0 c 0.293,0 0.019,0.317 0.019,0.668 C 4.623,-0.243 4.897,0 4.604,0"
             inkscape:connector-curvature="0"
             id="path48"
             style="fill:#b4b3b3;fill-opacity:1;fill-rule:nonzero;stroke:none" /></g><g
           transform="translate(28.2383,21.2739)"
           id="g50"><path
             d="m 0,0 c -0.299,0 -0.537,-0.277 -0.537,-0.626 0,-0.35 0.238,-0.633 0.537,-0.633 l 3.221,0 c 0.297,0 0.541,0.283 0.541,0.633 C 3.762,-0.277 3.518,0 3.221,0"
             inkscape:connector-curvature="0"
             id="path52"
             style="fill:#b4b3b3;fill-opacity:1;fill-rule:nonzero;stroke:none" /></g><g
           transform="translate(20.918,28.2158)"
           id="g54"><path
             d="m 0,0 0,-15.223 c 0,0 7.051,0.778 7.051,7.277 C 7.051,-0.731 1.353,0 0,0"
             inkscape:connector-curvature="0"
             id="path56"
             style="fill:#b4b3b3;fill-opacity:1;fill-rule:nonzero;stroke:none" /></g><g
           transform="translate(20.918,28.2158)"
           id="g58"><path
             d="m 0,0 0,-15.223 c 0,0 7.051,0.778 7.051,7.277 C 7.051,-0.731 1.353,0 0,0 z"
             inkscape:connector-curvature="0"
             id="path60"
             style="fill:none;stroke:#b4b3b3;stroke-width:2;stroke-linecap:butt;stroke-linejoin:round;stroke-miterlimit:10;stroke-opacity:1;stroke-dasharray:none" /></g><g
           transform="translate(18.3652,6.3301)"
           id="g62"><path
             d="m 0,0 0,-3.67 c 0,-1.006 1.217,-1.588 2.003,-0.928 l 7.324,6.102 c 0.58,0.478 0.58,1.387 0,1.873 L 2.003,9.482 C 1.217,10.133 0,9.557 0,8.539 l 0,-3.654 -9.904,0 L -9.904,0 0,0 z"
             inkscape:connector-curvature="0"
             id="path64"
             style="fill:#ffffff;fill-opacity:1;fill-rule:nonzero;stroke:none" /></g><g
           transform="translate(18.542,4.7236)"
           id="g66"><path
             d="M 0,0 0,-3.553 C 0,-4.527 1.178,-5.091 1.938,-4.451 L 9.03,1.457 c 0.562,0.463 0.562,1.342 0,1.813 L 1.938,9.18 C 1.178,9.812 0,9.254 0,8.268 l 0,-3.539 -9.59,0 L -9.59,0 0,0 z"
             inkscape:connector-curvature="0"
             id="path68"
             style="fill:#444443;fill-opacity:1;fill-rule:nonzero;stroke:none" /></g></g></g></g></svg>