<?xml version="1.0" encoding="UTF-8" standalone="no"?>
<!-- Created with Inkscape (http://www.inkscape.org/) -->

<svg
   xmlns:dc="http://purl.org/dc/elements/1.1/"
   xmlns:cc="http://creativecommons.org/ns#"
   xmlns:rdf="http://www.w3.org/1999/02/22-rdf-syntax-ns#"
   xmlns:svg="http://www.w3.org/2000/svg"
   xmlns="http://www.w3.org/2000/svg"
   xmlns:inkscape="http://www.inkscape.org/namespaces/inkscape"
   version="1.1"
   width="40"
   height="40"
   id="svg2"
   xml:space="preserve"><metadata
     id="metadata8"><rdf:RDF><cc:Work
         rdf:about=""><dc:format>image/svg+xml</dc:format><dc:type
           rdf:resource="http://purl.org/dc/dcmitype/StillImage" /></cc:Work></rdf:RDF></metadata><defs
     id="defs6"><clipPath
       id="clipPath16"><path
         d="M 0,32 32,32 32,0 0,0 0,32 z"
         inkscape:connector-curvature="0"
         id="path18" /></clipPath></defs><g
     transform="matrix(1.25,0,0,-1.25,0,40)"
     id="g10"><g
       id="g12"><g
         clip-path="url(#clipPath16)"
         id="g14"><g
           transform="translate(22.5,20.75)"
           id="g20"><path
             d="m 0,0 c 0,-6.213 -5.037,-11.25 -11.25,-11.25 -6.213,0 -11.25,5.037 -11.25,11.25 0,6.213 5.037,11.25 11.25,11.25 C -5.037,11.25 0,6.213 0,0"
             inkscape:connector-curvature="0"
             id="path22"
             style="fill:#ffdf26;fill-opacity:1;fill-rule:nonzero;stroke:none" /></g><g
           transform="translate(32,5.125)"
           id="g24"><path
             d="m 0,0 c 0,-2.83 -2.295,-5.125 -5.125,-5.125 -2.83,0 -5.125,2.295 -5.125,5.125 0,2.83 2.295,5.125 5.125,5.125 C -2.295,5.125 0,2.83 0,0"
             inkscape:connector-curvature="0"
             id="path26"
             style="fill:#444443;fill-opacity:1;fill-rule:nonzero;stroke:none" /></g></g></g></g></svg>