<?xml version="1.0" encoding="UTF-8" standalone="no"?>
<!-- Created with Inkscape (http://www.inkscape.org/) -->

<svg
   xmlns:dc="http://purl.org/dc/elements/1.1/"
   xmlns:cc="http://creativecommons.org/ns#"
   xmlns:rdf="http://www.w3.org/1999/02/22-rdf-syntax-ns#"
   xmlns:svg="http://www.w3.org/2000/svg"
   xmlns="http://www.w3.org/2000/svg"
   xmlns:inkscape="http://www.inkscape.org/namespaces/inkscape"
   version="1.1"
   width="40"
   height="40"
   id="svg2"
   xml:space="preserve"><metadata
     id="metadata8"><rdf:RDF><cc:Work
         rdf:about=""><dc:format>image/svg+xml</dc:format><dc:type
           rdf:resource="http://purl.org/dc/dcmitype/StillImage" /></cc:Work></rdf:RDF></metadata><defs
     id="defs6"><clipPath
       id="clipPath18"><path
         d="M 0,32 32,32 32,0 0,0 0,32 z"
         inkscape:connector-curvature="0"
         id="path20" /></clipPath></defs><g
     transform="matrix(1.25,0,0,-1.25,0,40)"
     id="g10"><path
       d="m 0,0 13.5,0 0,31.992 -13.5,0 L 0,0 z"
       inkscape:connector-curvature="0"
       id="path12"
       style="fill:#b4b3b3;fill-opacity:1;fill-rule:nonzero;stroke:none" /><g
       id="g14"><g
         clip-path="url(#clipPath18)"
         id="g16"><g
           transform="translate(29.4551,15.998)"
           id="g22"><path
             d="M 0,0 C -3.08,0 -2.527,-0.002 -4.074,-0.004"
             inkscape:connector-curvature="0"
             id="path24"
             style="fill:none;stroke:#444443;stroke-width:5;stroke-linecap:round;stroke-linejoin:round;stroke-miterlimit:10;stroke-opacity:1;stroke-dasharray:none" /></g><g
           transform="translate(17.8721,13.5527)"
           id="g26"><path
             d="M 0,0 C 1.335,-0.939 3.158,-0.617 4.086,0.701 5.032,2.043 4.735,3.885 3.401,4.828 2.067,5.767 0.233,5.425 -0.713,4.083 -1.642,2.765 -1.335,0.941 0,0 M 5.22,7.407 C 7.97,5.468 8.652,1.648 6.691,-1.137 4.759,-3.875 0.921,-4.533 -1.83,-2.596 -4.587,-0.652 -5.232,3.166 -3.302,5.906 -1.339,8.691 2.462,9.352 5.22,7.407"
             inkscape:connector-curvature="0"
             id="path28"
             style="fill:#444443;fill-opacity:1;fill-rule:nonzero;stroke:none" /></g></g></g></g></svg>