<?xml version="1.0" encoding="UTF-8" standalone="no"?>
<!-- Created with Inkscape (http://www.inkscape.org/) -->

<svg
   xmlns:dc="http://purl.org/dc/elements/1.1/"
   xmlns:cc="http://creativecommons.org/ns#"
   xmlns:rdf="http://www.w3.org/1999/02/22-rdf-syntax-ns#"
   xmlns:svg="http://www.w3.org/2000/svg"
   xmlns="http://www.w3.org/2000/svg"
   xmlns:inkscape="http://www.inkscape.org/namespaces/inkscape"
   version="1.1"
   width="40"
   height="40"
   id="svg2"
   xml:space="preserve"><metadata
     id="metadata8"><rdf:RDF><cc:Work
         rdf:about=""><dc:format>image/svg+xml</dc:format><dc:type
           rdf:resource="http://purl.org/dc/dcmitype/StillImage" /></cc:Work></rdf:RDF></metadata><defs
     id="defs6"><clipPath
       id="clipPath16"><path
         d="M 0,32 32,32 32,0 0,0 0,32 z"
         inkscape:connector-curvature="0"
         id="path18" /></clipPath></defs><g
     transform="matrix(1.25,0,0,-1.25,0,40)"
     id="g10"><g
       id="g12"><g
         clip-path="url(#clipPath16)"
         id="g14"><g
           transform="translate(16.1274,27.5762)"
           id="g20"><path
             d="M 0,0 C 9.583,0 7.862,-0.002 12.67,-0.005"
             inkscape:connector-curvature="0"
             id="path22"
             style="fill:none;stroke:#737372;stroke-width:5;stroke-linecap:round;stroke-linejoin:round;stroke-miterlimit:10;stroke-opacity:1;stroke-dasharray:none" /></g><g
           transform="translate(16.1646,4.4932)"
           id="g24"><path
             d="M 0,0 C 8.015,0 6.576,-0.002 10.599,-0.004"
             inkscape:connector-curvature="0"
             id="path26"
             style="fill:#737372;fill-opacity:1;fill-rule:nonzero;stroke:#737372;stroke-width:5;stroke-linecap:round;stroke-linejoin:round;stroke-miterlimit:10;stroke-opacity:1;stroke-dasharray:none" /></g><path
           d="m 26.392,0 5.592,0 0,31.992 -5.592,0 0,-31.992 z"
           inkscape:connector-curvature="0"
           id="path28"
           style="fill:#b4b3b3;fill-opacity:1;fill-rule:nonzero;stroke:none" /><g
           transform="translate(10.6162,14.0088)"
           id="g30"><path
             d="m 0,0 -3.277,0 -3.368,0 -3.269,0 c -0.607,0 -0.931,-0.778 -0.499,-1.221 l 4.946,-4.934 c 0.291,-0.304 0.733,-0.282 1.002,0 l 4.962,4.934 C 0.934,-0.778 0.609,0 0,0"
             inkscape:connector-curvature="0"
             id="path32"
             style="fill:#444443;fill-opacity:1;fill-rule:nonzero;stroke:none" /></g><g
           transform="translate(6.1509,7.8535)"
           id="g34"><path
             d="M 0,0 C 0,0 -0.269,-0.282 0,0"
             inkscape:connector-curvature="0"
             id="path36"
             style="fill:#444443;fill-opacity:1;fill-rule:nonzero;stroke:none" /></g><g
           transform="translate(6.1465,24.6494)"
           id="g38"><path
             d="M 0,0 4.962,-4.935 C 5.399,-5.376 5.074,-6.156 4.464,-6.156 l -3.277,0 -3.367,0 -3.269,0 c -0.606,0 -0.932,0.777 -0.5,1.221 L -1.001,0 c 0.29,0.304 0.73,0.284 1.001,0 0,0 -0.271,0.284 0,0"
             inkscape:connector-curvature="0"
             id="path40"
             style="fill:#444443;fill-opacity:1;fill-rule:nonzero;stroke:none" /></g></g></g></g></svg>