<?xml version="1.0" encoding="UTF-8" standalone="no"?>
<!-- Created with Inkscape (http://www.inkscape.org/) -->

<svg
   xmlns:dc="http://purl.org/dc/elements/1.1/"
   xmlns:cc="http://creativecommons.org/ns#"
   xmlns:rdf="http://www.w3.org/1999/02/22-rdf-syntax-ns#"
   xmlns:svg="http://www.w3.org/2000/svg"
   xmlns="http://www.w3.org/2000/svg"
   xmlns:inkscape="http://www.inkscape.org/namespaces/inkscape"
   version="1.1"
   width="40"
   height="40"
   id="svg2"
   xml:space="preserve"><metadata
     id="metadata8"><rdf:RDF><cc:Work
         rdf:about=""><dc:format>image/svg+xml</dc:format><dc:type
           rdf:resource="http://purl.org/dc/dcmitype/StillImage" /></cc:Work></rdf:RDF></metadata><defs
     id="defs6"><clipPath
       id="clipPath20"><path
         d="M 0,32 32,32 32,0 0,0 0,32 z"
         inkscape:connector-curvature="0"
         id="path22" /></clipPath></defs><g
     transform="matrix(1.25,0,0,-1.25,0,40)"
     id="g10"><path
       d="m 15.996,0 16.005,0 0,32 -16.005,0 0,-32 z"
       inkscape:connector-curvature="0"
       id="path12"
       style="fill:#444443;fill-opacity:1;fill-rule:nonzero;stroke:none" /><path
       d="m 0,0.031 16,0 0,31.97 -16,0 0,-31.97 z"
       inkscape:connector-curvature="0"
       id="path14"
       style="fill:#b4b3b3;fill-opacity:1;fill-rule:nonzero;stroke:none" /><g
       id="g16"><g
         clip-path="url(#clipPath20)"
         id="g18"><g
           transform="translate(26.8359,11.0371)"
           id="g24"><path
             d="M 0,0 0,0.808 C 0,1.367 0.253,1.773 0.965,1.773 1.68,1.773 1.93,1.367 1.93,0.808 l 0,-1.774 c 0,-0.693 -0.463,-0.965 -0.965,-0.965 l -7.603,0 c -0.502,0 -0.964,0.272 -0.964,0.965 0,0.695 0.462,0.966 0.964,0.966 l 2.837,0 1.93,0 L 0,0 z"
             inkscape:connector-curvature="0"
             id="path26"
             style="fill:#ffffff;fill-opacity:1;fill-rule:nonzero;stroke:none" /></g><g
           transform="translate(19.8477,20.7754)"
           id="g28"><path
             d="m 0,0 4.031,2.345 0,-12.3"
             inkscape:connector-curvature="0"
             id="path30"
             style="fill:none;stroke:#ffffff;stroke-width:2;stroke-linecap:round;stroke-linejoin:round;stroke-miterlimit:10;stroke-opacity:1;stroke-dasharray:none" /></g></g></g></g></svg>