<?xml version="1.0" encoding="UTF-8" standalone="no"?>
<!-- Created with Inkscape (http://www.inkscape.org/) -->

<svg
   xmlns:dc="http://purl.org/dc/elements/1.1/"
   xmlns:cc="http://creativecommons.org/ns#"
   xmlns:rdf="http://www.w3.org/1999/02/22-rdf-syntax-ns#"
   xmlns:svg="http://www.w3.org/2000/svg"
   xmlns="http://www.w3.org/2000/svg"
   xmlns:inkscape="http://www.inkscape.org/namespaces/inkscape"
   version="1.1"
   width="40"
   height="40"
   id="svg2"
   xml:space="preserve"><metadata
     id="metadata8"><rdf:RDF><cc:Work
         rdf:about=""><dc:format>image/svg+xml</dc:format><dc:type
           rdf:resource="http://purl.org/dc/dcmitype/StillImage" /></cc:Work></rdf:RDF></metadata><defs
     id="defs6"><clipPath
       id="clipPath20"><path
         d="M 0,32 32,32 32,0 0,0 0,32 z"
         inkscape:connector-curvature="0"
         id="path22" /></clipPath></defs><g
     transform="matrix(1.25,0,0,-1.25,0,40)"
     id="g10"><path
       d="m 15.996,0 16.005,0 0,32 -16.005,0 0,-32 z"
       inkscape:connector-curvature="0"
       id="path12"
       style="fill:#444443;fill-opacity:1;fill-rule:nonzero;stroke:none" /><path
       d="m 0,0.031 16,0 0,31.97 -16,0 0,-31.97 z"
       inkscape:connector-curvature="0"
       id="path14"
       style="fill:#b4b3b3;fill-opacity:1;fill-rule:nonzero;stroke:none" /><g
       id="g16"><g
         clip-path="url(#clipPath20)"
         id="g18"><g
           transform="translate(11.8032,10.96)"
           id="g24"><path
             d="M 0,0 C 0.502,0 0.966,-0.271 0.966,-0.965 0.966,-1.661 0.502,-1.931 0,-1.931 l -8.572,0 0,15.022 8.572,0 c 0.502,0 0.966,-0.27 0.966,-0.966 C 0.966,11.431 0.502,11.16 0,11.16 l -6.642,0 0,-4.614 2.839,0 c 0.502,0 0.966,-0.271 0.966,-0.966 0,-0.696 -0.464,-0.965 -0.966,-0.965 l -2.839,0 L -6.642,0 0,0 z"
             inkscape:connector-curvature="0"
             id="path26"
             style="fill:#444443;fill-opacity:1;fill-rule:nonzero;stroke:none" /></g></g></g></g></svg>