<?xml version="1.0" encoding="UTF-8" standalone="no"?>
<!-- Created with Inkscape (http://www.inkscape.org/) -->

<svg
   xmlns:dc="http://purl.org/dc/elements/1.1/"
   xmlns:cc="http://creativecommons.org/ns#"
   xmlns:rdf="http://www.w3.org/1999/02/22-rdf-syntax-ns#"
   xmlns:svg="http://www.w3.org/2000/svg"
   xmlns="http://www.w3.org/2000/svg"
   xmlns:inkscape="http://www.inkscape.org/namespaces/inkscape"
   version="1.1"
   width="40"
   height="40"
   id="svg2"
   xml:space="preserve"><metadata
     id="metadata8"><rdf:RDF><cc:Work
         rdf:about=""><dc:format>image/svg+xml</dc:format><dc:type
           rdf:resource="http://purl.org/dc/dcmitype/StillImage" /></cc:Work></rdf:RDF></metadata><defs
     id="defs6"><clipPath
       id="clipPath22"><path
         d="M 0,32 32,32 32,0 0,0 0,32 z"
         inkscape:connector-curvature="0"
         id="path24" /></clipPath></defs><g
     transform="matrix(1.25,0,0,-1.25,0,40)"
     id="g10"><g
       transform="translate(17.3709,32.0004)"
       id="g14"><path
         d="m 0,0 0,-4.022 -9.136,-8.949 -4.021,0 0,-6.254 0,-12.775 23.594,0 0,32 L 0,0 z"
         inkscape:connector-curvature="0"
         id="path16"
         style="fill:#b4b3b3;fill-opacity:1;fill-rule:nonzero;stroke:none" /></g><g
       id="g18"><g
         clip-path="url(#clipPath22)"
         id="g20"><g
           transform="translate(21.168,10.2012)"
           id="g26"><path
             d="m 0,0 c 0,-2.7 -2.189,-4.89 -4.89,-4.89 -2.7,0 -4.889,2.19 -4.889,4.89 0,2.7 2.189,4.889 4.889,4.889 C -2.189,4.889 0,2.7 0,0"
             inkscape:connector-curvature="0"
             id="path28"
             style="fill:#444443;fill-opacity:1;fill-rule:nonzero;stroke:none" /></g><g
           transform="translate(4.2134,10.3789)"
           id="g30"><path
             d="M 0,0 23.595,0"
             inkscape:connector-curvature="0"
             id="path32"
             style="fill:#444443;fill-opacity:1;fill-rule:nonzero;stroke:#444443;stroke-width:2;stroke-linecap:butt;stroke-linejoin:miter;stroke-miterlimit:10;stroke-opacity:1;stroke-dasharray:none" /></g><g
           transform="translate(16.3501,0.0352)"
           id="g34"><path
             d="M 0,0 0,28.117 0,0 z"
             inkscape:connector-curvature="0"
             id="path36"
             style="fill:#444443;fill-opacity:1;fill-rule:nonzero;stroke:none" /></g><g
           transform="translate(16.3501,0.0352)"
           id="g38"><path
             d="M 0,0 0,28.117 0,0 z"
             inkscape:connector-curvature="0"
             id="path40"
             style="fill:none;stroke:#444443;stroke-width:2;stroke-linecap:butt;stroke-linejoin:miter;stroke-miterlimit:10;stroke-opacity:1;stroke-dasharray:none" /></g><g
           transform="translate(8.2349,19.0293)"
           id="g42"></g></g></g></g></svg>