<?xml version="1.0" encoding="UTF-8" standalone="no"?>
<!-- Created with Inkscape (http://www.inkscape.org/) -->

<svg
   xmlns:dc="http://purl.org/dc/elements/1.1/"
   xmlns:cc="http://creativecommons.org/ns#"
   xmlns:rdf="http://www.w3.org/1999/02/22-rdf-syntax-ns#"
   xmlns:svg="http://www.w3.org/2000/svg"
   xmlns="http://www.w3.org/2000/svg"
   xmlns:inkscape="http://www.inkscape.org/namespaces/inkscape"
   version="1.1"
   width="40"
   height="40"
   id="svg2"
   xml:space="preserve"><metadata
     id="metadata8"><rdf:RDF><cc:Work
         rdf:about=""><dc:format>image/svg+xml</dc:format><dc:type
           rdf:resource="http://purl.org/dc/dcmitype/StillImage" /></cc:Work></rdf:RDF></metadata><defs
     id="defs6" /><g
     transform="matrix(1.25,0,0,-1.25,0,40)"
     id="g10"><g
       transform="translate(17.3601,32.0004)"
       id="g12"><path
         d="m 0,0 0,-4.022 -9.136,-8.949 -4.021,0 0,-6.254 0,-12.775 23.593,0 0,32 L 0,0 z"
         inkscape:connector-curvature="0"
         id="path14"
         style="fill:#444443;fill-opacity:1;fill-rule:nonzero;stroke:none" /></g><path
       d="m 9.368,12.091 -3,0 0,3 3,0 0,-3 z"
       inkscape:connector-curvature="0"
       id="path16"
       style="fill:#ffffff;fill-opacity:1;fill-rule:nonzero;stroke:none" /><path
       d="m 9.335,6.899 -3,0 0,2.999 3,0 0,-2.999 z"
       inkscape:connector-curvature="0"
       id="path18"
       style="fill:#ffffff;fill-opacity:1;fill-rule:nonzero;stroke:none" /><path
       d="m 9.3,1.957 -3,0 0,2.999 3,0 0,-2.999 z"
       inkscape:connector-curvature="0"
       id="path20"
       style="fill:#ffffff;fill-opacity:1;fill-rule:nonzero;stroke:none" /><path
       d="m 14.688,12.096 -3,0 0,3 3,0 0,-3 z"
       inkscape:connector-curvature="0"
       id="path22"
       style="fill:#ffffff;fill-opacity:1;fill-rule:nonzero;stroke:none" /><path
       d="m 14.656,6.905 -3,0 0,2.998 3,0 0,-2.998 z"
       inkscape:connector-curvature="0"
       id="path24"
       style="fill:#ffffff;fill-opacity:1;fill-rule:nonzero;stroke:none" /><path
       d="m 14.621,1.962 -3,0 0,3 3,0 0,-3 z"
       inkscape:connector-curvature="0"
       id="path26"
       style="fill:#ffffff;fill-opacity:1;fill-rule:nonzero;stroke:none" /><path
       d="m 20.07,12.102 -3,0 0,3 3,0 0,-3 z"
       inkscape:connector-curvature="0"
       id="path28"
       style="fill:#ffffff;fill-opacity:1;fill-rule:nonzero;stroke:none" /><path
       d="m 20.039,6.911 -3,0 0,2.998 3,0 0,-2.998 z"
       inkscape:connector-curvature="0"
       id="path30"
       style="fill:#ffffff;fill-opacity:1;fill-rule:nonzero;stroke:none" /><path
       d="m 20.003,1.968 -3,0 0,3 3,0 0,-3 z"
       inkscape:connector-curvature="0"
       id="path32"
       style="fill:#ffffff;fill-opacity:1;fill-rule:nonzero;stroke:none" /><path
       d="m 25.464,12.036 -2.999,0 0,3 2.999,0 0,-3 z"
       inkscape:connector-curvature="0"
       id="path34"
       style="fill:#ffffff;fill-opacity:1;fill-rule:nonzero;stroke:none" /><path
       d="m 25.433,6.846 -3.001,0 0,2.998 3.001,0 0,-2.998 z"
       inkscape:connector-curvature="0"
       id="path36"
       style="fill:#ffffff;fill-opacity:1;fill-rule:nonzero;stroke:none" /><path
       d="m 25.396,1.902 -3,0 0,3 3,0 0,-3 z"
       inkscape:connector-curvature="0"
       id="path38"
       style="fill:#ffffff;fill-opacity:1;fill-rule:nonzero;stroke:none" /><path
       d="m 14.656,17.006 -3,0 0,2.998 3,0 0,-2.998 z"
       inkscape:connector-curvature="0"
       id="path40"
       style="fill:#ffffff;fill-opacity:1;fill-rule:nonzero;stroke:none" /><path
       d="m 20.07,22.203 -3,0 0,3 3,0 0,-3 z"
       inkscape:connector-curvature="0"
       id="path42"
       style="fill:#ffffff;fill-opacity:1;fill-rule:nonzero;stroke:none" /><path
       d="m 20.039,17.012 -3,0 0,2.998 3,0 0,-2.998 z"
       inkscape:connector-curvature="0"
       id="path44"
       style="fill:#ffffff;fill-opacity:1;fill-rule:nonzero;stroke:none" /><path
       d="m 25.464,22.137 -2.999,0 0,3 2.999,0 0,-3 z"
       inkscape:connector-curvature="0"
       id="path46"
       style="fill:#ffffff;fill-opacity:1;fill-rule:nonzero;stroke:none" /><path
       d="m 25.433,16.947 -3.001,0 0,2.998 3.001,0 0,-2.998 z"
       inkscape:connector-curvature="0"
       id="path48"
       style="fill:#ffffff;fill-opacity:1;fill-rule:nonzero;stroke:none" /><path
       d="m 25.491,27.165 -2.999,0 0,3 2.999,0 0,-3 z"
       inkscape:connector-curvature="0"
       id="path50"
       style="fill:#ffffff;fill-opacity:1;fill-rule:nonzero;stroke:none" /></g></svg>