<?xml version="1.0" encoding="UTF-8" standalone="no"?>
<!-- Created with Inkscape (http://www.inkscape.org/) -->

<svg
   xmlns:dc="http://purl.org/dc/elements/1.1/"
   xmlns:cc="http://creativecommons.org/ns#"
   xmlns:rdf="http://www.w3.org/1999/02/22-rdf-syntax-ns#"
   xmlns:svg="http://www.w3.org/2000/svg"
   xmlns="http://www.w3.org/2000/svg"
   xmlns:inkscape="http://www.inkscape.org/namespaces/inkscape"
   version="1.1"
   width="40"
   height="40"
   id="svg2"
   xml:space="preserve"><metadata
     id="metadata8"><rdf:RDF><cc:Work
         rdf:about=""><dc:format>image/svg+xml</dc:format><dc:type
           rdf:resource="http://purl.org/dc/dcmitype/StillImage" /></cc:Work></rdf:RDF></metadata><defs
     id="defs6"><clipPath
       id="clipPath16"><path
         d="M 0,32 32,32 32,0 0,0 0,32 z"
         inkscape:connector-curvature="0"
         id="path18" /></clipPath></defs><g
     transform="matrix(1.25,0,0,-1.25,0,40)"
     id="g10"><g
       id="g12"><g
         clip-path="url(#clipPath16)"
         id="g14"><g
           transform="translate(27.5049,19.8979)"
           id="g20"><path
             d="m 0,0 0,-3.843 -22.867,0 0,3.843 c -2.625,-0.56 -4.571,-2.622 -4.571,-5.073 l 0,-5.481 c 0,-2.46 1.946,-4.532 4.571,-5.071 l 0,3.823 22.867,0 0,-3.823 c 2.618,0.539 4.562,2.611 4.562,5.071 l 0,5.481 C 4.562,-2.622 2.618,-0.56 0,0"
             inkscape:connector-curvature="0"
             id="path22"
             style="fill:#444443;fill-opacity:1;fill-rule:nonzero;stroke:none" /></g><g
           transform="translate(8.0879,3.9893)"
           id="g24"><path
             d="m 0,0 0,-2 c 0,-1.088 1.131,-1.989 2.506,-1.989 l 10.951,0 c 1.377,0 2.49,0.901 2.49,1.989 l 0,2 L 0,0 z"
             inkscape:connector-curvature="0"
             id="path26"
             style="fill:#444443;fill-opacity:1;fill-rule:nonzero;stroke:none" /></g><g
           transform="translate(21.5449,32)"
           id="g28"><path
             d="m 0,0 -10.951,0 c -1.375,0 -2.506,-1.119 -2.506,-2.487 l 0,-7.476 0,-1.986 15.947,0 0,1.986 0,7.476 C 2.49,-1.119 1.377,0 0,0"
             inkscape:connector-curvature="0"
             id="path30"
             style="fill:#b4b3b3;fill-opacity:1;fill-rule:nonzero;stroke:none" /></g><g
           transform="translate(10.7266,28.4653)"
           id="g32"><path
             d="m 0,0 c -0.423,0 -0.761,-0.335 -0.761,-0.756 0,-0.423 0.338,-0.765 0.761,-0.765 l 10.637,0 c 0.42,0 0.765,0.342 0.765,0.765 0,0.421 -0.345,0.756 -0.765,0.756"
             inkscape:connector-curvature="0"
             id="path34"
             style="fill:#444443;fill-opacity:1;fill-rule:nonzero;stroke:none" /></g><g
           transform="translate(10.7266,24.4097)"
           id="g36"><path
             d="m 0,0 c -0.423,0 -0.761,-0.335 -0.761,-0.756 0,-0.422 0.338,-0.764 0.761,-0.764 l 10.637,0 c 0.42,0 0.765,0.342 0.765,0.764 0,0.421 -0.345,0.756 -0.765,0.756"
             inkscape:connector-curvature="0"
             id="path38"
             style="fill:#444443;fill-opacity:1;fill-rule:nonzero;stroke:none" /></g></g></g></g></svg>