<?xml version="1.0" encoding="UTF-8" standalone="no"?>
<!-- Created with Inkscape (http://www.inkscape.org/) -->

<svg
   xmlns:dc="http://purl.org/dc/elements/1.1/"
   xmlns:cc="http://creativecommons.org/ns#"
   xmlns:rdf="http://www.w3.org/1999/02/22-rdf-syntax-ns#"
   xmlns:svg="http://www.w3.org/2000/svg"
   xmlns="http://www.w3.org/2000/svg"
   xmlns:inkscape="http://www.inkscape.org/namespaces/inkscape"
   version="1.1"
   width="40"
   height="40"
   id="svg2"
   xml:space="preserve"><metadata
     id="metadata8"><rdf:RDF><cc:Work
         rdf:about=""><dc:format>image/svg+xml</dc:format><dc:type
           rdf:resource="http://purl.org/dc/dcmitype/StillImage" /></cc:Work></rdf:RDF></metadata><defs
     id="defs6"><clipPath
       id="clipPath18"><path
         d="M 0,32 32,32 32,0 0,0 0,32 z"
         inkscape:connector-curvature="0"
         id="path20" /></clipPath></defs><g
     transform="matrix(1.25,0,0,-1.25,0,40)"
     id="g10"><g
       id="g14"><g
         clip-path="url(#clipPath18)"
         id="g16"><g
           transform="translate(27.002,22.9331)"
           id="g22"><path
             d="m 0,0 -11.763,0 c 0,0 -2.01,5.792 -5.089,5.861 l -5.146,0 c -5.547,0 -4.99,0.483 -4.99,-4.987 l 0,-5.844 0,-9.988 c 0,-2.755 2.226,-4.978 4.99,-4.978 l 21.998,0 c 2.764,0 4.996,2.223 4.996,4.978 l 0,9.988 C 4.996,-2.226 2.764,0 0,0"
             inkscape:connector-curvature="0"
             id="path24"
             style="fill:#444443;fill-opacity:1;fill-rule:nonzero;stroke:none" /></g><g
           transform="translate(0,23.9502)"
           id="g26"><path
             d="M 0,0 15.802,0"
             inkscape:connector-curvature="0"
             id="path28"
             style="fill:none;stroke:#ffffff;stroke-width:2;stroke-linecap:butt;stroke-linejoin:miter;stroke-miterlimit:10;stroke-opacity:1;stroke-dasharray:none" /></g><path
           d="m 8.796,10.016 -6.07,0 0,6.07 6.07,0 0,-6.07 z"
           inkscape:connector-curvature="0"
           id="path30"
           style="fill:#b4b3b3;fill-opacity:1;fill-rule:nonzero;stroke:none" /><path
           d="m 19.216,10.016 -6.105,0 0,6.106 6.105,0 0,-6.106 z"
           inkscape:connector-curvature="0"
           id="path32"
           style="fill:#b4b3b3;fill-opacity:1;fill-rule:nonzero;stroke:none" /><path
           d="m 29.244,10.016 -6.142,0 0,6.142 6.142,0 0,-6.142 z"
           inkscape:connector-curvature="0"
           id="path34"
           style="fill:#b4b3b3;fill-opacity:1;fill-rule:nonzero;stroke:none" /></g></g></g></svg>