<?xml version="1.0" encoding="UTF-8" standalone="no"?>
<!-- Created with Inkscape (http://www.inkscape.org/) -->

<svg
   xmlns:dc="http://purl.org/dc/elements/1.1/"
   xmlns:cc="http://creativecommons.org/ns#"
   xmlns:rdf="http://www.w3.org/1999/02/22-rdf-syntax-ns#"
   xmlns:svg="http://www.w3.org/2000/svg"
   xmlns="http://www.w3.org/2000/svg"
   xmlns:inkscape="http://www.inkscape.org/namespaces/inkscape"
   version="1.1"
   width="40"
   height="40"
   id="svg2"
   xml:space="preserve"><metadata
     id="metadata8"><rdf:RDF><cc:Work
         rdf:about=""><dc:format>image/svg+xml</dc:format><dc:type
           rdf:resource="http://purl.org/dc/dcmitype/StillImage" /></cc:Work></rdf:RDF></metadata><defs
     id="defs6"><clipPath
       id="clipPath20"><path
         d="M 0,32 32,32 32,0 0,0 0,32 z"
         inkscape:connector-curvature="0"
         id="path22" /></clipPath></defs><g
     transform="matrix(1.25,0,0,-1.25,0,40)"
     id="g10"><path
       d="m 17.859,10.97 14.142,0 0,14.139 -14.142,0 0,-14.139 z"
       inkscape:connector-curvature="0"
       id="path12"
       style="fill:#9e9e9e;fill-opacity:1;fill-rule:nonzero;stroke:none" /><path
       d="m 0,10.97 9.616,0 0,9.614 -9.616,0 0,-9.614 z"
       inkscape:connector-curvature="0"
       id="path14"
       style="fill:#9e9e9e;fill-opacity:1;fill-rule:nonzero;stroke:none" /><g
       id="g16"><g
         clip-path="url(#clipPath20)"
         id="g18"><g
           transform="translate(20.9023,5.7939)"
           id="g24"><path
             d="M 0,0 C -3.519,-3.519 -9.215,-3.519 -12.733,0"
             inkscape:connector-curvature="0"
             id="path26"
             style="fill:none;stroke:#444443;stroke-width:2.5;stroke-linecap:round;stroke-linejoin:round;stroke-miterlimit:10;stroke-opacity:1;stroke-dasharray:none" /></g><g
           transform="translate(22.8291,7.373)"
           id="g28"><path
             d="M 0,0 0.001,-3.984 C -0.003,-4.338 -0.446,-4.52 -0.691,-4.273 l -1.316,1.322 -1.351,1.358 -1.313,1.32 c -0.243,0.246 -0.06,0.687 0.291,0.691 L -0.401,0.402 C -0.163,0.406 0.007,0.221 0,0 0,0 0.007,0.221 0,0"
             inkscape:connector-curvature="0"
             id="path30"
             style="fill:#444443;fill-opacity:1;fill-rule:nonzero;stroke:none" /></g></g></g></g></svg>