<?xml version="1.0" encoding="UTF-8" standalone="no"?>
<!-- Created with Inkscape (http://www.inkscape.org/) -->

<svg
   xmlns:dc="http://purl.org/dc/elements/1.1/"
   xmlns:cc="http://creativecommons.org/ns#"
   xmlns:rdf="http://www.w3.org/1999/02/22-rdf-syntax-ns#"
   xmlns:svg="http://www.w3.org/2000/svg"
   xmlns="http://www.w3.org/2000/svg"
   xmlns:inkscape="http://www.inkscape.org/namespaces/inkscape"
   version="1.1"
   width="40"
   height="40"
   id="svg2"
   xml:space="preserve"><metadata
     id="metadata8"><rdf:RDF><cc:Work
         rdf:about=""><dc:format>image/svg+xml</dc:format><dc:type
           rdf:resource="http://purl.org/dc/dcmitype/StillImage" /></cc:Work></rdf:RDF></metadata><defs
     id="defs6"><clipPath
       id="clipPath22"><path
         d="M 0,32 32,32 32,0 0,0 0,32 z"
         inkscape:connector-curvature="0"
         id="path24" /></clipPath><clipPath
       id="clipPath38"><path
         d="M 0,32 32,32 32,0 0,0 0,32 z"
         inkscape:connector-curvature="0"
         id="path40" /></clipPath><clipPath
       id="clipPath54"><path
         d="M 0,32 32,32 32,0 0,0 0,32 z"
         inkscape:connector-curvature="0"
         id="path56" /></clipPath></defs><g
     transform="matrix(1.25,0,0,-1.25,0,40)"
     id="g10"><g
       transform="translate(3.5253,27.4347)"
       id="g14"><path
         d="M 0,0 13.631,0 0,0 z"
         inkscape:connector-curvature="0"
         id="path16"
         style="fill:#8a8a89;fill-opacity:1;fill-rule:nonzero;stroke:none" /></g><g
       id="g18"><g
         clip-path="url(#clipPath22)"
         id="g20"><g
           transform="translate(3.5254,27.4346)"
           id="g26"><path
             d="M 0,0 13.631,0"
             inkscape:connector-curvature="0"
             id="path28"
             style="fill:none;stroke:#2b74b9;stroke-width:4.5;stroke-linecap:round;stroke-linejoin:miter;stroke-miterlimit:10;stroke-opacity:1;stroke-dasharray:none" /></g></g></g><g
       transform="translate(17.2071,18.0621)"
       id="g30"><path
         d="M 0,0 -0.006,8.886 0,0 z"
         inkscape:connector-curvature="0"
         id="path32"
         style="fill:#8a8a89;fill-opacity:1;fill-rule:nonzero;stroke:none" /></g><g
       id="g34"><g
         clip-path="url(#clipPath38)"
         id="g36"><g
           transform="translate(17.2012,26.9482)"
           id="g42"><path
             d="M 0,0 0.006,-8.886"
             inkscape:connector-curvature="0"
             id="path44"
             style="fill:none;stroke:#2b74b9;stroke-width:4.5;stroke-linecap:round;stroke-linejoin:miter;stroke-miterlimit:10;stroke-opacity:1;stroke-dasharray:none" /></g></g></g><g
       transform="translate(17.2813,17.7813)"
       id="g46"><path
         d="M 0,0 9.969,-12.813"
         inkscape:connector-curvature="0"
         id="path48"
         style="fill:#8a8a89;fill-opacity:1;fill-rule:nonzero;stroke:none" /></g><g
       id="g50"><g
         clip-path="url(#clipPath54)"
         id="g52"><g
           transform="translate(17.2813,17.7813)"
           id="g58"><path
             d="M 0,0 9.969,-12.813"
             inkscape:connector-curvature="0"
             id="path60"
             style="fill:none;stroke:#2b74b9;stroke-width:4.5;stroke-linecap:round;stroke-linejoin:miter;stroke-miterlimit:10;stroke-opacity:1;stroke-dasharray:none" /></g><g
           transform="translate(26.5469,9.2383)"
           id="g62"><path
             d="M 0,0 C 2.521,0.438 4.942,-1.248 5.386,-3.802 5.818,-6.314 4.108,-8.732 1.587,-9.17 -0.943,-9.607 -3.343,-7.902 -3.777,-5.387 -4.22,-2.835 -2.529,-0.436 0,0"
             inkscape:connector-curvature="0"
             id="path64"
             style="fill:#42ab3d;fill-opacity:1;fill-rule:nonzero;stroke:none" /></g><g
           transform="translate(3.8477,31.9307)"
           id="g66"><path
             d="M 0,0 C 2.521,0.438 4.942,-1.248 5.386,-3.802 5.818,-6.314 4.108,-8.732 1.587,-9.17 -0.943,-9.607 -3.343,-7.902 -3.777,-5.387 -4.22,-2.835 -2.529,-0.436 0,0"
             inkscape:connector-curvature="0"
             id="path68"
             style="fill:#42ab3d;fill-opacity:1;fill-rule:nonzero;stroke:none" /></g><path
           d="m 25.375,12.75 -13.531,0 0,12.438 13.531,0 0,-12.438 z"
           inkscape:connector-curvature="0"
           id="path70"
           style="fill:#ffffff;fill-opacity:0.5;fill-rule:nonzero;stroke:none" /><g
           transform="translate(21.4756,14.7891)"
           id="g72"><path
             d="M 0,0 -2.102,2.104 -4.203,0.002 C -4.79,-0.584 -5.754,-0.582 -6.336,0 -6.897,0.562 -6.914,1.541 -6.328,2.127 l 2.101,2.103 -2.101,2.1 c -0.578,0.579 -0.566,1.533 0.014,2.111 0.572,0.574 1.519,0.58 2.098,10e-4 L -2.115,6.341 0.018,8.474 C 0.58,9.037 1.564,9.025 2.125,8.462 2.707,7.881 2.705,6.912 2.143,6.349 L 0.01,4.216 2.113,2.113 C 2.691,1.533 2.697,0.574 2.125,0 1.547,-0.578 0.58,-0.578 0,0 0,0 0.586,-0.584 0,0"
             inkscape:connector-curvature="0"
             id="path74"
             style="fill:#dd203c;fill-opacity:1;fill-rule:nonzero;stroke:none" /></g></g></g></g></svg>