<?xml version="1.0" encoding="UTF-8" standalone="no"?>
<!-- Created with Inkscape (http://www.inkscape.org/) -->

<svg
   xmlns:dc="http://purl.org/dc/elements/1.1/"
   xmlns:cc="http://creativecommons.org/ns#"
   xmlns:rdf="http://www.w3.org/1999/02/22-rdf-syntax-ns#"
   xmlns:svg="http://www.w3.org/2000/svg"
   xmlns="http://www.w3.org/2000/svg"
   xmlns:inkscape="http://www.inkscape.org/namespaces/inkscape"
   version="1.1"
   width="40"
   height="40"
   id="svg2"
   xml:space="preserve"><metadata
     id="metadata8"><rdf:RDF><cc:Work
         rdf:about=""><dc:format>image/svg+xml</dc:format><dc:type
           rdf:resource="http://purl.org/dc/dcmitype/StillImage" /></cc:Work></rdf:RDF></metadata><defs
     id="defs6"><clipPath
       id="clipPath16"><path
         d="M 0,32 32,32 32,0 0,0 0,32 z"
         inkscape:connector-curvature="0"
         id="path18" /></clipPath></defs><g
     transform="matrix(1.25,0,0,-1.25,0,40)"
     id="g10"><g
       id="g12"><g
         clip-path="url(#clipPath16)"
         id="g14"><g
           transform="translate(30.5,16)"
           id="g20"><path
             d="m 0,0 c 0,-8.008 -6.492,-14.5 -14.5,-14.5 -8.008,0 -14.5,6.492 -14.5,14.5 0,8.008 6.492,14.5 14.5,14.5 C -6.492,14.5 0,8.008 0,0 z"
             inkscape:connector-curvature="0"
             id="path22"
             style="fill:none;stroke:#b4b3b3;stroke-width:3;stroke-linecap:round;stroke-linejoin:round;stroke-miterlimit:10;stroke-opacity:1;stroke-dasharray:none" /></g><g
           transform="translate(27.5156,30.4419)"
           id="g24"><path
             d="m 0,0 -5.921,-0.581 c -0.342,-0.017 -0.59,-0.316 -0.539,-0.655 l 0.579,-5.922 c 0.039,-0.522 0.72,-0.728 1.062,-0.314 l 1.14,1.385 3.051,3.715 1.15,1.404 C 0.848,-0.57 0.514,0.053 0,0"
             inkscape:connector-curvature="0"
             id="path26"
             style="fill:#ffffff;fill-opacity:1;fill-rule:nonzero;stroke:none" /></g><g
           transform="translate(20.3184,15.9785)"
           id="g28"><path
             d="m 0,0 c 0,-2.235 -1.812,-4.047 -4.047,-4.047 -2.235,0 -4.046,1.812 -4.046,4.047 0,2.235 1.811,4.046 4.046,4.046 C -1.812,4.046 0,2.235 0,0"
             inkscape:connector-curvature="0"
             id="path30"
             style="fill:#444443;fill-opacity:1;fill-rule:nonzero;stroke:none" /></g><g
           transform="translate(29.9766,28.1987)"
           id="g32"><path
             d="m 0,0 -5.921,-0.581 c -0.342,-0.017 -0.59,-0.316 -0.539,-0.655 l 0.579,-5.922 c 0.039,-0.522 0.72,-0.728 1.062,-0.314 l 1.14,1.385 3.051,3.715 1.15,1.404 C 0.848,-0.57 0.514,0.053 0,0"
             inkscape:connector-curvature="0"
             id="path34"
             style="fill:#ffffff;fill-opacity:1;fill-rule:nonzero;stroke:none" /></g><g
           transform="translate(29.0117,29.2207)"
           id="g36"><path
             d="m 0,0 -5.921,-0.581 c -0.342,-0.017 -0.59,-0.316 -0.539,-0.655 l 0.579,-5.922 c 0.039,-0.522 0.72,-0.729 1.062,-0.314 l 1.14,1.384 3.051,3.716 1.15,1.404 C 0.848,-0.57 0.514,0.053 0,0"
             inkscape:connector-curvature="0"
             id="path38"
             style="fill:#444443;fill-opacity:1;fill-rule:nonzero;stroke:none" /></g></g></g></g></svg>