<?xml version="1.0" encoding="UTF-8" standalone="no"?>
<!-- Created with Inkscape (http://www.inkscape.org/) -->

<svg
   xmlns:dc="http://purl.org/dc/elements/1.1/"
   xmlns:cc="http://creativecommons.org/ns#"
   xmlns:rdf="http://www.w3.org/1999/02/22-rdf-syntax-ns#"
   xmlns:svg="http://www.w3.org/2000/svg"
   xmlns="http://www.w3.org/2000/svg"
   xmlns:inkscape="http://www.inkscape.org/namespaces/inkscape"
   version="1.1"
   width="40"
   height="40"
   id="svg2"
   xml:space="preserve"><metadata
     id="metadata8"><rdf:RDF><cc:Work
         rdf:about=""><dc:format>image/svg+xml</dc:format><dc:type
           rdf:resource="http://purl.org/dc/dcmitype/StillImage" /></cc:Work></rdf:RDF></metadata><defs
     id="defs6"><clipPath
       id="clipPath18"><path
         d="M 0,32 32,32 32,0 0,0 0,32 z"
         inkscape:connector-curvature="0"
         id="path20" /></clipPath></defs><g
     transform="matrix(1.25,0,0,-1.25,0,40)"
     id="g10"><path
       d="m 0.013,0.026 31.954,0 0,31.974 -31.954,0 0,-31.974 z"
       inkscape:connector-curvature="0"
       id="path12"
       style="fill:#b4b3b3;fill-opacity:1;fill-rule:nonzero;stroke:none" /><g
       id="g14"><g
         clip-path="url(#clipPath18)"
         id="g16"><g
           transform="translate(5.8828,10.416)"
           id="g22"><path
             d="m 0,0 c -0.776,0 -1.381,0.187 -1.925,0.793 -0.513,0.573 -0.59,1.132 -0.59,1.847 l 0,8.663 c 0,0.497 0.218,0.776 0.776,0.776 0.559,0 0.777,-0.279 0.777,-0.776 l 0,-8.663 C -0.962,1.77 -0.699,1.552 0,1.552 l 2.64,0 c 0.698,0 0.962,0.218 0.962,1.088 l 0,8.663 c 0,0.497 0.218,0.776 0.776,0.776 0.56,0 0.776,-0.279 0.776,-0.776 l 0,-8.663 C 5.154,1.925 5.077,1.366 4.565,0.793 4.021,0.187 3.416,0 2.64,0 L 0,0 z"
             inkscape:connector-curvature="0"
             id="path24"
             style="fill:#f39415;fill-opacity:1;fill-rule:nonzero;stroke:none" /></g><g
           transform="translate(19.6826,11.9678)"
           id="g26"><path
             d="M 0,0 C 0.403,0 0.776,-0.217 0.776,-0.775 0.776,-1.334 0.403,-1.552 0,-1.552 l -6.894,0 0,11.303 c 0,0.497 0.218,0.776 0.777,0.776 0.559,0 0.776,-0.279 0.776,-0.776 L -5.341,0 0,0 z"
             inkscape:connector-curvature="0"
             id="path28"
             style="fill:#f39415;fill-opacity:1;fill-rule:nonzero;stroke:none" /></g><g
           transform="translate(23.0967,16.5332)"
           id="g30"><path
             d="m 0,0 3.445,0 c 0.917,0 1.119,0.233 1.119,1.118 l 0,2.174 c 0,0.884 -0.202,1.117 -1.119,1.117 L 0,4.409 0,0 z m 0,-5.341 c 0,-0.497 -0.218,-0.776 -0.776,-0.776 -0.559,0 -0.777,0.279 -0.777,0.776 l 0,11.303 5.155,0 C 4.314,5.962 4.827,5.853 5.388,5.326 6.055,4.704 6.117,4.13 6.117,3.292 l 0,-2.113 C 6.117,0.388 6.055,-0.171 5.479,-0.807 4.874,-1.491 4.238,-1.553 3.4,-1.553 l -3.4,0 0,-3.788 z"
             inkscape:connector-curvature="0"
             id="path32"
             style="fill:#f39415;fill-opacity:1;fill-rule:nonzero;stroke:none" /></g></g></g></g></svg>