<?xml version="1.0" encoding="UTF-8" standalone="no"?>
<!-- Created with Inkscape (http://www.inkscape.org/) -->

<svg
   xmlns:dc="http://purl.org/dc/elements/1.1/"
   xmlns:cc="http://creativecommons.org/ns#"
   xmlns:rdf="http://www.w3.org/1999/02/22-rdf-syntax-ns#"
   xmlns:svg="http://www.w3.org/2000/svg"
   xmlns="http://www.w3.org/2000/svg"
   xmlns:inkscape="http://www.inkscape.org/namespaces/inkscape"
   version="1.1"
   width="40"
   height="40"
   id="svg2"
   xml:space="preserve"><metadata
     id="metadata8"><rdf:RDF><cc:Work
         rdf:about=""><dc:format>image/svg+xml</dc:format><dc:type
           rdf:resource="http://purl.org/dc/dcmitype/StillImage" /></cc:Work></rdf:RDF></metadata><defs
     id="defs6"><clipPath
       id="clipPath16"><path
         d="M 0,32 32,32 32,0 0,0 0,32 z"
         inkscape:connector-curvature="0"
         id="path18" /></clipPath></defs><g
     transform="matrix(1.25,0,0,-1.25,0,40)"
     id="g10"><g
       id="g12"><g
         clip-path="url(#clipPath16)"
         id="g14"><g
           transform="translate(26.4629,27)"
           id="g20"><path
             d="m 0,0 c 0,0.817 -0.308,1.555 -0.847,2.125 -0.545,0.573 -1.272,0.873 -2.038,0.873 l -13.366,0 c -0.774,0 -1.494,-0.3 -2.029,-0.873 C -18.825,1.555 -19.124,0.817 -19.124,0 l 0,-22.004 c 0,-1.648 1.29,-2.994 2.873,-2.994 l 4.795,0 3.771,0 1.933,0 0.016,0 0,6.143 5.736,0 L 0,0 z m 1.904,-19.07 c -0.031,-0.504 -0.229,-0.98 -0.559,-1.34 l -5.734,-6.004 C -4.759,-26.787 -5.232,-27 -5.752,-27 l -1.933,0 -3.771,0 -4.795,0 c -2.655,0 -4.782,2.241 -4.782,4.996 l 0,22.004 c 0,1.388 0.541,2.642 1.403,3.547 C -18.76,4.439 -17.577,5 -16.251,5 L -2.885,5 C -1.56,5 -0.362,4.439 0.497,3.547 1.359,2.642 1.904,1.388 1.904,0 l 0,-18.855 0,-0.215 z"
             inkscape:connector-curvature="0"
             id="path22"
             style="fill:#444443;fill-opacity:1;fill-rule:nonzero;stroke:none" /></g><path
           d="m 26.459,12.143 -22.831,0 0,14 22.831,0 0,-14 z"
           inkscape:connector-curvature="0"
           id="path24"
           style="fill:#b4b3b3;fill-opacity:1;fill-rule:nonzero;stroke:none" /><g
           transform="translate(10.9561,16.9507)"
           id="g26"><path
             d="m 0,0 c 0.229,-0.298 0.401,-0.562 0.401,-0.953 0,-0.86 -0.654,-1.297 -1.445,-1.297 l -2.525,0 c -0.437,0 -0.815,0.081 -1.16,0.368 -0.31,0.252 -0.539,0.665 -0.539,1.067 0,0.367 0.206,0.689 0.608,0.689 0.333,0 0.539,-0.275 0.539,-0.585 0,-0.345 0.184,-0.391 0.506,-0.391 l 2.49,0 c 0.092,0 0.378,-0.035 0.378,0.139 0,0.091 -0.16,0.263 -0.206,0.332 L -4.89,4.43 c -0.241,0.31 -0.378,0.54 -0.378,0.942 0,0.459 0.218,0.849 0.608,1.101 0.321,0.207 0.585,0.207 0.952,0.207 l 2.434,0 c 0.436,0 0.803,-0.092 1.136,-0.379 0.299,-0.264 0.539,-0.689 0.539,-1.09 0,-0.368 -0.183,-0.666 -0.596,-0.666 -0.345,0 -0.552,0.218 -0.552,0.539 0,0.391 -0.194,0.448 -0.55,0.448 l -2.433,0 c -0.126,0 -0.391,0.034 -0.391,-0.16 0,-0.104 0.127,-0.242 0.172,-0.311 L 0,0 z"
             inkscape:connector-curvature="0"
             id="path28"
             style="fill:#bf272f;fill-opacity:1;fill-rule:nonzero;stroke:none" /></g><g
           transform="translate(14.9019,14.7012)"
           id="g30"><path
             d="m 0,0 c -0.861,0 -1.354,0.344 -1.722,1.091 l -1.055,2.134 c -0.196,0.39 -0.31,0.757 -0.31,1.205 0,0.505 0.091,0.815 0.321,1.274 l 1.056,2.124 c 0.39,0.791 0.884,1.101 1.767,1.101 l 1.951,0 c 0.252,0 0.575,-0.137 0.575,-0.574 0,-0.413 -0.311,-0.574 -0.575,-0.574 l -1.916,0 C -0.402,7.781 -0.482,7.735 -0.7,7.299 L -1.699,5.302 C -1.848,4.993 -1.94,4.786 -1.94,4.43 c 0,-0.322 0.104,-0.516 0.241,-0.792 l 0.975,-1.985 c 0.23,-0.471 0.346,-0.506 0.861,-0.506 l 1.871,0 C 2.26,1.147 2.583,1.01 2.583,0.574 2.583,0.161 2.272,0 2.008,0 L 0,0 z"
             inkscape:connector-curvature="0"
             id="path32"
             style="fill:#bf272f;fill-opacity:1;fill-rule:nonzero;stroke:none" /></g><g
           transform="translate(19.8379,18.5918)"
           id="g34"><path
             d="m 0,0 0,-3.317 c 0,-0.368 -0.16,-0.574 -0.573,-0.574 -0.413,0 -0.574,0.206 -0.574,0.574 l 0,7.782 c 0,0.367 0.161,0.574 0.574,0.574 C -0.16,5.039 0,4.832 0,4.465 l 0,-3.317 3.375,0 0,3.317 c 0,0.367 0.16,0.574 0.573,0.574 0.413,0 0.574,-0.207 0.574,-0.574 l 0,-7.782 c 0,-0.368 -0.161,-0.574 -0.574,-0.574 -0.413,0 -0.573,0.206 -0.573,0.574 L 3.375,0 0,0 z"
             inkscape:connector-curvature="0"
             id="path36"
             style="fill:#bf272f;fill-opacity:1;fill-rule:nonzero;stroke:none" /></g></g></g></g></svg>