<?xml version="1.0" encoding="UTF-8" standalone="no"?>
<!-- Created with Inkscape (http://www.inkscape.org/) -->

<svg
   xmlns:dc="http://purl.org/dc/elements/1.1/"
   xmlns:cc="http://creativecommons.org/ns#"
   xmlns:rdf="http://www.w3.org/1999/02/22-rdf-syntax-ns#"
   xmlns:svg="http://www.w3.org/2000/svg"
   xmlns="http://www.w3.org/2000/svg"
   xmlns:inkscape="http://www.inkscape.org/namespaces/inkscape"
   version="1.1"
   width="40"
   height="40"
   id="svg2"
   xml:space="preserve"><metadata
     id="metadata8"><rdf:RDF><cc:Work
         rdf:about=""><dc:format>image/svg+xml</dc:format><dc:type
           rdf:resource="http://purl.org/dc/dcmitype/StillImage" /></cc:Work></rdf:RDF></metadata><defs
     id="defs6"><clipPath
       id="clipPath16"><path
         d="M 0,32 32,32 32,0 0,0 0,32 z"
         inkscape:connector-curvature="0"
         id="path18" /></clipPath></defs><g
     transform="matrix(1.25,0,0,-1.25,0,40)"
     id="g10"><g
       id="g12"><g
         clip-path="url(#clipPath16)"
         id="g14"><g
           transform="translate(26.4629,27)"
           id="g20"><path
             d="m 0,0 c 0,0.817 -0.308,1.555 -0.847,2.125 -0.545,0.573 -1.272,0.873 -2.038,0.873 l -13.366,0 c -0.774,0 -1.494,-0.3 -2.029,-0.873 C -18.825,1.555 -19.124,0.817 -19.124,0 l 0,-22.004 c 0,-1.648 1.29,-2.994 2.873,-2.994 l 4.795,0 3.771,0 1.933,0 0.016,0 0,6.143 5.736,0 L 0,0 z m 1.904,-19.07 c -0.031,-0.504 -0.229,-0.98 -0.559,-1.34 l -5.734,-6.004 C -4.759,-26.787 -5.232,-27 -5.752,-27 l -1.933,0 -3.771,0 -4.795,0 c -2.655,0 -4.782,2.241 -4.782,4.996 l 0,22.004 c 0,1.388 0.541,2.642 1.403,3.547 C -18.76,4.439 -17.577,5 -16.251,5 L -2.885,5 C -1.56,5 -0.362,4.439 0.497,3.547 1.359,2.642 1.904,1.388 1.904,0 l 0,-18.855 0,-0.215 z"
             inkscape:connector-curvature="0"
             id="path22"
             style="fill:#444443;fill-opacity:1;fill-rule:nonzero;stroke:none" /></g><path
           d="m 26.463,12.164 -22.83,0 0,14 22.83,0 0,-14 z"
           inkscape:connector-curvature="0"
           id="path24"
           style="fill:#b4b3b3;fill-opacity:1;fill-rule:nonzero;stroke:none" /><g
           transform="translate(11.2827,17.0015)"
           id="g26"><path
             d="m 0,0 c 0.224,-0.297 0.392,-0.562 0.392,-0.953 0,-0.859 -0.64,-1.294 -1.413,-1.294 l -2.469,0 c -0.427,0 -0.797,0.081 -1.133,0.366 -0.303,0.254 -0.528,0.665 -0.528,1.066 0,0.368 0.202,0.689 0.595,0.689 0.325,0 0.527,-0.277 0.527,-0.586 0,-0.343 0.179,-0.39 0.495,-0.39 l 2.434,0 c 0.091,0 0.371,-0.032 0.371,0.138 0,0.092 -0.158,0.265 -0.202,0.334 l -3.85,5.05 c -0.236,0.31 -0.37,0.539 -0.37,0.94 0,0.458 0.214,0.848 0.595,1.101 0.314,0.206 0.571,0.206 0.932,0.206 l 2.377,0 c 0.428,0 0.787,-0.092 1.111,-0.379 C 0.156,6.024 0.392,5.601 0.392,5.2 c 0,-0.367 -0.18,-0.663 -0.583,-0.663 -0.336,0 -0.538,0.216 -0.538,0.538 0,0.388 -0.191,0.447 -0.539,0.447 l -2.379,0 c -0.124,0 -0.382,0.035 -0.382,-0.162 0,-0.102 0.124,-0.24 0.169,-0.309 L 0,0 z"
             inkscape:connector-curvature="0"
             id="path28"
             style="fill:#2b74b9;fill-opacity:1;fill-rule:nonzero;stroke:none" /></g><g
           transform="translate(14.9028,14.7236)"
           id="g30"><path
             d="m 0,0 c -0.842,0 -1.324,0.344 -1.683,1.087 l -1.032,2.132 c -0.191,0.39 -0.304,0.755 -0.304,1.202 0,0.504 0.091,0.813 0.314,1.271 l 1.034,2.12 c 0.38,0.792 0.862,1.101 1.728,1.101 l 1.906,0 c 0.249,0 0.56,-0.137 0.56,-0.573 0,-0.414 -0.301,-0.572 -0.56,-0.572 l -1.873,0 c -0.483,0 -0.561,-0.048 -0.774,-0.482 L -1.661,5.292 C -1.808,4.983 -1.897,4.777 -1.897,4.421 -1.897,4.1 -1.796,3.907 -1.661,3.633 L -0.708,1.649 C -0.483,1.179 -0.37,1.144 0.134,1.144 l 1.829,0 c 0.249,0 0.56,-0.135 0.56,-0.572 C 2.523,0.161 2.222,0 1.963,0 L 0,0 z"
             inkscape:connector-curvature="0"
             id="path32"
             style="fill:#2b74b9;fill-opacity:1;fill-rule:nonzero;stroke:none" /></g><g
           transform="translate(19.6729,20.7036)"
           id="g34"><path
             d="m 0,0 2.491,0 c 0.312,0 0.806,0.024 0.806,0.481 l 0,0.79 C 3.297,1.729 2.839,1.788 2.5,1.788 L 0,1.788 0,0 z m 0,-5.408 c 0,-0.366 -0.158,-0.572 -0.562,-0.572 -0.404,0 -0.561,0.206 -0.561,0.572 l 0,8.341 3.77,0 C 3.535,2.933 4.42,2.29 4.42,1.271 l 0,-0.79 c 0,-1.075 -0.875,-1.629 -1.773,-1.629 l -1.032,0 2.525,-3.688 c 0.123,-0.171 0.28,-0.389 0.28,-0.607 0,-0.321 -0.257,-0.537 -0.571,-0.537 -0.225,0 -0.371,0.136 -0.495,0.321 l -3.097,4.511 -0.257,0 0,-4.26 z"
             inkscape:connector-curvature="0"
             id="path36"
             style="fill:#2b74b9;fill-opacity:1;fill-rule:nonzero;stroke:none" /></g></g></g></g></svg>