<?xml version="1.0" encoding="UTF-8" standalone="no"?>
<!-- Created with Inkscape (http://www.inkscape.org/) -->

<svg
   xmlns:dc="http://purl.org/dc/elements/1.1/"
   xmlns:cc="http://creativecommons.org/ns#"
   xmlns:rdf="http://www.w3.org/1999/02/22-rdf-syntax-ns#"
   xmlns:svg="http://www.w3.org/2000/svg"
   xmlns="http://www.w3.org/2000/svg"
   xmlns:inkscape="http://www.inkscape.org/namespaces/inkscape"
   version="1.1"
   width="40"
   height="40"
   id="svg2"
   xml:space="preserve"><metadata
     id="metadata8"><rdf:RDF><cc:Work
         rdf:about=""><dc:format>image/svg+xml</dc:format><dc:type
           rdf:resource="http://purl.org/dc/dcmitype/StillImage" /></cc:Work></rdf:RDF></metadata><defs
     id="defs6"><clipPath
       id="clipPath18"><path
         d="M 0,32 32,32 32,0 0,0 0,32 z"
         inkscape:connector-curvature="0"
         id="path20" /></clipPath></defs><g
     transform="matrix(1.25,0,0,-1.25,0,40)"
     id="g10"><path
       d="m 0.013,0.026 31.954,0 0,31.974 -31.954,0 0,-31.974 z"
       inkscape:connector-curvature="0"
       id="path12"
       style="fill:#b4b3b3;fill-opacity:1;fill-rule:nonzero;stroke:none" /><g
       id="g14"><g
         clip-path="url(#clipPath18)"
         id="g16"><g
           transform="translate(10.689,13.3945)"
           id="g22"><path
             d="m 0,0 c 0.306,-0.408 0.537,-0.771 0.537,-1.307 0,-1.175 -0.876,-1.771 -1.935,-1.771 l -3.382,0 c -0.585,0 -1.092,0.111 -1.552,0.502 -0.415,0.346 -0.723,0.908 -0.723,1.457 0,0.506 0.277,0.945 0.815,0.945 0.445,0 0.722,-0.379 0.722,-0.803 0,-0.468 0.246,-0.533 0.678,-0.533 l 3.334,0 c 0.124,0 0.508,-0.045 0.508,0.188 0,0.125 -0.217,0.363 -0.277,0.457 l -5.273,6.917 c -0.324,0.425 -0.507,0.738 -0.507,1.287 0,0.627 0.293,1.161 0.815,1.508 0.43,0.282 0.782,0.282 1.277,0.282 l 3.255,0 c 0.585,0 1.077,-0.126 1.522,-0.52 0.399,-0.36 0.723,-0.94 0.723,-1.49 0,-0.501 -0.246,-0.907 -0.799,-0.907 -0.461,0 -0.736,0.296 -0.736,0.736 0,0.532 -0.263,0.613 -0.739,0.613 l -3.259,0 c -0.168,0 -0.522,0.047 -0.522,-0.222 0,-0.14 0.17,-0.329 0.231,-0.423 L 0,0 z"
             inkscape:connector-curvature="0"
             id="path24"
             style="fill:#2b74b9;fill-opacity:1;fill-rule:nonzero;stroke:none" /></g><g
           transform="translate(15.6465,10.2734)"
           id="g26"><path
             d="M 0,0 C -1.153,0 -1.812,0.471 -2.305,1.488 L -3.719,4.41 c -0.261,0.531 -0.415,1.031 -0.415,1.645 0,0.689 0.124,1.112 0.43,1.74 l 1.416,2.904 c 0.521,1.084 1.181,1.508 2.367,1.508 l 2.609,0 c 0.342,0 0.767,-0.188 0.767,-0.785 0,-0.567 -0.411,-0.784 -0.767,-0.784 l -2.565,0 c -0.661,0 -0.768,-0.066 -1.06,-0.659 L -2.275,7.247 C -2.476,6.824 -2.598,6.542 -2.598,6.055 c 0,-0.441 0.139,-0.704 0.323,-1.08 L -0.969,2.26 C -0.661,1.615 -0.507,1.566 0.184,1.566 l 2.504,0 C 3.03,1.566 3.455,1.381 3.455,0.783 3.455,0.221 3.044,0 2.688,0 L 0,0 z"
             inkscape:connector-curvature="0"
             id="path28"
             style="fill:#2b74b9;fill-opacity:1;fill-rule:nonzero;stroke:none" /></g><g
           transform="translate(22.1807,18.4629)"
           id="g30"><path
             d="m 0,0 3.41,0 c 0.428,0 1.105,0.033 1.105,0.659 l 0,1.081 c 0,0.629 -0.629,0.708 -1.091,0.708 L 0,2.448 0,0 z m 0,-7.406 c 0,-0.502 -0.217,-0.783 -0.771,-0.783 -0.553,0 -0.768,0.281 -0.768,0.783 l 0,11.423 5.163,0 c 1.217,0 2.429,-0.881 2.429,-2.277 l 0,-1.081 c 0,-1.472 -1.199,-2.231 -2.429,-2.231 l -1.412,0 3.456,-5.051 c 0.168,-0.232 0.385,-0.533 0.385,-0.83 0,-0.442 -0.353,-0.736 -0.783,-0.736 -0.308,0 -0.509,0.185 -0.677,0.439 l -4.243,6.178 -0.35,0 0,-5.834 z"
             inkscape:connector-curvature="0"
             id="path32"
             style="fill:#2b74b9;fill-opacity:1;fill-rule:nonzero;stroke:none" /></g></g></g></g></svg>