<?xml version="1.0" encoding="UTF-8" standalone="no"?>
<!-- Created with Inkscape (http://www.inkscape.org/) -->

<svg
   xmlns:dc="http://purl.org/dc/elements/1.1/"
   xmlns:cc="http://creativecommons.org/ns#"
   xmlns:rdf="http://www.w3.org/1999/02/22-rdf-syntax-ns#"
   xmlns:svg="http://www.w3.org/2000/svg"
   xmlns="http://www.w3.org/2000/svg"
   xmlns:inkscape="http://www.inkscape.org/namespaces/inkscape"
   version="1.1"
   width="40"
   height="40"
   id="svg2"
   xml:space="preserve"><metadata
     id="metadata8"><rdf:RDF><cc:Work
         rdf:about=""><dc:format>image/svg+xml</dc:format><dc:type
           rdf:resource="http://purl.org/dc/dcmitype/StillImage" /></cc:Work></rdf:RDF></metadata><defs
     id="defs6"><clipPath
       id="clipPath24"><path
         d="M 0,32 32,32 32,0 0,0 0,32 z"
         inkscape:connector-curvature="0"
         id="path26" /></clipPath></defs><g
     transform="matrix(1.25,0,0,-1.25,0,40)"
     id="g10"><g
       transform="translate(10.8867,2.4004)"
       id="g16"><path
         d="m 0,0 -8.487,8.519 0,10.217 L 0,27.2 10.138,27.2 18.691,18.736 18.713,8.591 10.138,0 0,0 z"
         inkscape:connector-curvature="0"
         id="path18"
         style="fill:#42ab3d;fill-opacity:1;fill-rule:nonzero;stroke:none" /></g><g
       id="g20"><g
         clip-path="url(#clipPath24)"
         id="g22"><g
           transform="translate(18.584,16.0703)"
           id="g28"><path
             d="m 0,0 c 0,-1.439 -1.17,-2.609 -2.61,-2.609 -1.441,0 -2.609,1.17 -2.609,2.609 0,1.441 1.168,2.609 2.609,2.609 C -1.17,2.609 0,1.441 0,0"
             inkscape:connector-curvature="0"
             id="path30"
             style="fill:#ffffff;fill-opacity:1;fill-rule:nonzero;stroke:none" /></g></g></g></g></svg>