<?xml version="1.0" encoding="UTF-8" standalone="no"?>
<!-- Created with Inkscape (http://www.inkscape.org/) -->

<svg
   xmlns:dc="http://purl.org/dc/elements/1.1/"
   xmlns:cc="http://creativecommons.org/ns#"
   xmlns:rdf="http://www.w3.org/1999/02/22-rdf-syntax-ns#"
   xmlns:svg="http://www.w3.org/2000/svg"
   xmlns="http://www.w3.org/2000/svg"
   xmlns:inkscape="http://www.inkscape.org/namespaces/inkscape"
   version="1.1"
   width="40"
   height="40"
   id="svg2"
   xml:space="preserve"><metadata
     id="metadata8"><rdf:RDF><cc:Work
         rdf:about=""><dc:format>image/svg+xml</dc:format><dc:type
           rdf:resource="http://purl.org/dc/dcmitype/StillImage" /></cc:Work></rdf:RDF></metadata><defs
     id="defs6"><clipPath
       id="clipPath18"><path
         d="M 0,32 32,32 32,0 0,0 0,32 z"
         inkscape:connector-curvature="0"
         id="path20" /></clipPath></defs><g
     transform="matrix(1.25,0,0,-1.25,0,40)"
     id="g10"><g
       id="g14"><g
         clip-path="url(#clipPath18)"
         id="g16"><g
           transform="translate(29.5996,16.001)"
           id="g22"><path
             d="m 0,0 c 0,-4.142 -3.018,-7.5 -6.74,-7.5 l -13.719,0 c -3.723,0 -6.741,3.358 -6.741,7.5 0,4.142 3.018,7.5 6.741,7.5 l 13.719,0 C -3.018,7.5 0,4.142 0,0"
             inkscape:connector-curvature="0"
             id="path24"
             style="fill:#42ab3d;fill-opacity:1;fill-rule:nonzero;stroke:none" /></g><g
           transform="translate(11.5874,16.0703)"
           id="g26"><path
             d="m 0,0 c 0,-1.439 -1.17,-2.609 -2.61,-2.609 -1.441,0 -2.609,1.17 -2.609,2.609 0,1.441 1.168,2.609 2.609,2.609 C -1.17,2.609 0,1.441 0,0"
             inkscape:connector-curvature="0"
             id="path28"
             style="fill:#ffffff;fill-opacity:1;fill-rule:nonzero;stroke:none" /></g></g></g></g></svg>