<?xml version="1.0" encoding="UTF-8" standalone="no"?>
<!-- Created with Inkscape (http://www.inkscape.org/) -->

<svg
   xmlns:dc="http://purl.org/dc/elements/1.1/"
   xmlns:cc="http://creativecommons.org/ns#"
   xmlns:rdf="http://www.w3.org/1999/02/22-rdf-syntax-ns#"
   xmlns:svg="http://www.w3.org/2000/svg"
   xmlns="http://www.w3.org/2000/svg"
   xmlns:inkscape="http://www.inkscape.org/namespaces/inkscape"
   version="1.1"
   width="40"
   height="40"
   id="svg2"
   xml:space="preserve"><metadata
     id="metadata8"><rdf:RDF><cc:Work
         rdf:about=""><dc:format>image/svg+xml</dc:format><dc:type
           rdf:resource="http://purl.org/dc/dcmitype/StillImage" /></cc:Work></rdf:RDF></metadata><defs
     id="defs6"><clipPath
       id="clipPath18"><path
         d="M 0,32 32,32 32,0 0,0 0,32 z"
         inkscape:connector-curvature="0"
         id="path20" /></clipPath></defs><g
     transform="matrix(1.25,0,0,-1.25,0,40)"
     id="g10"><g
       id="g14"><g
         clip-path="url(#clipPath18)"
         id="g16"><g
           transform="translate(22.834,27)"
           id="g22"><path
             d="m 0,0 c 0,0.817 -0.307,1.555 -0.846,2.125 -0.545,0.573 -1.273,0.873 -2.039,0.873 l -13.365,0 c -0.775,0 -1.495,-0.3 -2.03,-0.873 C -18.825,1.555 -19.124,0.817 -19.124,0 l 0,-22.004 c 0,-1.648 1.291,-2.994 2.874,-2.994 l 4.794,0 3.772,0 1.932,0 0.016,0 3.078,3.064 L 0,-18.855 0,0 z m 1.904,-19.07 c -0.031,-0.504 -0.228,-0.98 -0.558,-1.34 l -5.735,-6.004 C -4.758,-26.787 -5.232,-27 -5.752,-27 l -1.932,0 -3.772,0 -4.794,0 c -2.656,0 -4.783,2.241 -4.783,4.996 l 0,22.004 c 0,1.388 0.541,2.642 1.404,3.547 C -18.759,4.439 -17.577,5 -16.25,5 L -2.885,5 C -1.559,5 -0.361,4.439 0.498,3.547 1.359,2.642 1.904,1.388 1.904,0 l 0,-18.855 0,-0.215 z"
             inkscape:connector-curvature="0"
             id="path24"
             style="fill:#737372;fill-opacity:1;fill-rule:nonzero;stroke:none" /></g><path
           d="m 22.83,12.143 -22.83,0 0,14 22.83,0 0,-14 z"
           inkscape:connector-curvature="0"
           id="path26"
           style="fill:#b4b3b3;fill-opacity:1;fill-rule:nonzero;stroke:none" /><g
           transform="translate(28.7969,3.4805)"
           id="g28"></g><path
           d="m 26.739,6.739 -6.947,0 0,5.389 6.947,0 0,-5.389 z"
           inkscape:connector-curvature="0"
           id="path32"
           style="fill:#ffffff;fill-opacity:1;fill-rule:nonzero;stroke:none" /><g
           transform="translate(29.4375,0.4365)"
           id="g34"><path
             d="m 0,0 -2.103,2.104 -2.1,-2.101 C -4.79,-0.584 -5.754,-0.581 -6.336,0 -6.897,0.562 -6.914,1.541 -6.328,2.127 l 2.101,2.102 -2.101,2.099 c -0.578,0.579 -0.566,1.533 0.014,2.111 0.572,0.575 1.519,0.581 2.098,10e-4 l 2.101,-2.1 2.133,2.133 C 0.58,9.035 1.563,9.023 2.125,8.461 2.707,7.88 2.704,6.91 2.143,6.348 L 0.01,4.215 2.112,2.112 C 2.691,1.533 2.697,0.574 2.125,0 1.546,-0.578 0.579,-0.578 0,0 0,0 0.585,-0.584 0,0"
             inkscape:connector-curvature="0"
             id="path36"
             style="fill:#b4b3b3;fill-opacity:1;fill-rule:nonzero;stroke:none" /></g><path
           d="m 18.346,15.337 -13.861,0 0,7.657 13.861,0 0,-7.657 z"
           inkscape:connector-curvature="0"
           id="path38"
           style="fill:none;stroke:#737372;stroke-width:1.5;stroke-linecap:butt;stroke-linejoin:miter;stroke-miterlimit:10;stroke-opacity:1;stroke-dasharray:none" /></g></g></g></svg>