<?xml version="1.0" encoding="UTF-8" standalone="no"?>
<!-- Created with Inkscape (http://www.inkscape.org/) -->

<svg
   xmlns:dc="http://purl.org/dc/elements/1.1/"
   xmlns:cc="http://creativecommons.org/ns#"
   xmlns:rdf="http://www.w3.org/1999/02/22-rdf-syntax-ns#"
   xmlns:svg="http://www.w3.org/2000/svg"
   xmlns="http://www.w3.org/2000/svg"
   xmlns:inkscape="http://www.inkscape.org/namespaces/inkscape"
   version="1.1"
   width="40"
   height="40"
   id="svg2"
   xml:space="preserve"><metadata
     id="metadata8"><rdf:RDF><cc:Work
         rdf:about=""><dc:format>image/svg+xml</dc:format><dc:type
           rdf:resource="http://purl.org/dc/dcmitype/StillImage" /></cc:Work></rdf:RDF></metadata><defs
     id="defs6"><clipPath
       id="clipPath18"><path
         d="M 0,32 32,32 32,0 0,0 0,32 z"
         inkscape:connector-curvature="0"
         id="path20" /></clipPath></defs><g
     transform="matrix(1.25,0,0,-1.25,0,40)"
     id="g10"><g
       id="g14"><g
         clip-path="url(#clipPath18)"
         id="g16"><g
           transform="translate(22.834,27)"
           id="g22"><path
             d="m 0,0 c 0,0.817 -0.307,1.555 -0.846,2.125 -0.545,0.573 -1.273,0.873 -2.039,0.873 l -13.365,0 c -0.775,0 -1.495,-0.3 -2.03,-0.873 C -18.825,1.555 -19.124,0.817 -19.124,0 l 0,-22.004 c 0,-1.648 1.291,-2.994 2.874,-2.994 l 4.794,0 3.772,0 1.932,0 0.016,0 3.078,3.064 L 0,-18.855 0,0 z m 1.904,-19.07 c -0.031,-0.504 -0.228,-0.98 -0.558,-1.34 l -5.735,-6.004 C -4.758,-26.787 -5.232,-27 -5.752,-27 l -1.932,0 -3.772,0 -4.794,0 c -2.656,0 -4.783,2.241 -4.783,4.996 l 0,22.004 c 0,1.388 0.541,2.642 1.404,3.547 C -18.759,4.439 -17.577,5 -16.25,5 L -2.885,5 C -1.559,5 -0.361,4.439 0.498,3.547 1.359,2.642 1.904,1.388 1.904,0 l 0,-18.855 0,-0.215 z"
             inkscape:connector-curvature="0"
             id="path24"
             style="fill:#737372;fill-opacity:1;fill-rule:nonzero;stroke:none" /></g><path
           d="m 22.83,12.143 -22.83,0 0,14 22.83,0 0,-14 z"
           inkscape:connector-curvature="0"
           id="path26"
           style="fill:#b4b3b3;fill-opacity:1;fill-rule:nonzero;stroke:none" /><g
           transform="translate(28.7969,3.4805)"
           id="g28"></g><path
           d="m 26.739,6.739 -6.947,0 0,5.389 6.947,0 0,-5.389 z"
           inkscape:connector-curvature="0"
           id="path32"
           style="fill:#ffffff;fill-opacity:1;fill-rule:nonzero;stroke:none" /><g
           transform="translate(30.498,4.4805)"
           id="g34"><path
             d="m 0,0 -2.975,0 0,-2.971 c 0,-0.83 -0.683,-1.509 -1.505,-1.509 -0.795,0 -1.499,0.679 -1.499,1.509 l 0,2.971 -2.97,0 c -0.819,0 -1.485,0.684 -1.485,1.502 0,0.811 0.666,1.484 1.485,1.484 l 2.97,0 0,3.017 c 0,0.795 0.704,1.482 1.499,1.482 0.822,0 1.505,-0.687 1.505,-1.482 l 0,-3.017 2.975,0 C 0.818,2.986 1.502,2.313 1.502,1.502 1.502,0.684 0.818,0 0,0 0,0 0.826,0 0,0"
             inkscape:connector-curvature="0"
             id="path36"
             style="fill:#b4b3b3;fill-opacity:1;fill-rule:nonzero;stroke:none" /></g><path
           d="m 18.346,15.337 -13.861,0 0,7.657 13.861,0 0,-7.657 z"
           inkscape:connector-curvature="0"
           id="path38"
           style="fill:none;stroke:#737372;stroke-width:1.5;stroke-linecap:butt;stroke-linejoin:miter;stroke-miterlimit:10;stroke-opacity:1;stroke-dasharray:none" /></g></g></g></svg>