<?xml version="1.0" encoding="UTF-8" standalone="no"?>
<!-- Created with Inkscape (http://www.inkscape.org/) -->

<svg
   xmlns:dc="http://purl.org/dc/elements/1.1/"
   xmlns:cc="http://creativecommons.org/ns#"
   xmlns:rdf="http://www.w3.org/1999/02/22-rdf-syntax-ns#"
   xmlns:svg="http://www.w3.org/2000/svg"
   xmlns="http://www.w3.org/2000/svg"
   xmlns:inkscape="http://www.inkscape.org/namespaces/inkscape"
   version="1.1"
   width="40"
   height="40"
   id="svg2"
   xml:space="preserve"><metadata
     id="metadata8"><rdf:RDF><cc:Work
         rdf:about=""><dc:format>image/svg+xml</dc:format><dc:type
           rdf:resource="http://purl.org/dc/dcmitype/StillImage" /></cc:Work></rdf:RDF></metadata><defs
     id="defs6"><clipPath
       id="clipPath16"><path
         d="M 0,32 32,32 32,0 0,0 0,32 z"
         inkscape:connector-curvature="0"
         id="path18" /></clipPath></defs><g
     transform="matrix(1.25,0,0,-1.25,0,40)"
     id="g10"><g
       id="g12"><g
         clip-path="url(#clipPath16)"
         id="g14"><g
           transform="translate(29.7529,16.542)"
           id="g20"><path
             d="m 0,0 c 0,-5.551 -6.66,-10.05 -14.876,-10.05 -8.216,0 -14.876,4.499 -14.876,10.05 0,5.55 6.66,10.05 14.876,10.05 C -6.66,10.05 0,5.55 0,0"
             inkscape:connector-curvature="0"
             id="path22"
             style="fill:#ffffff;fill-opacity:1;fill-rule:nonzero;stroke:none" /></g><g
           transform="translate(22.0459,8.4883)"
           id="g24"><path
             d="m 0,0 c -5.839,-2.584 -14.181,-1.863 -18.662,1.808 0.124,-0.134 0.266,-0.26 0.396,-0.35 -0.124,0.081 -0.235,0.179 -0.346,0.288 l 0,-0.015 c 0,0.015 -0.019,0.025 -0.037,0.025 -0.049,0.052 -0.105,0.115 -0.162,0.153 -0.023,0.012 -0.048,0.043 -0.048,0.056 0.309,-0.266 0.407,-0.376 -0.087,0.041 -2.178,1.853 -0.788,0.683 -0.025,0.048 -0.13,0.098 -0.228,0.209 -0.326,0.3 -0.099,0.077 -0.198,0.149 -0.285,0.234 -0.172,0.15 -0.345,0.286 -0.505,0.405 0.16,-0.119 0.333,-0.255 0.505,-0.405 0.043,-0.024 0.093,-0.07 0.149,-0.115 -3.11,3.02 -3.476,7.245 -0.716,10.436 2.887,3.279 8.584,5.225 14.163,4.712 C 0.129,17.061 5.241,13.779 6.171,9.63 7.023,5.934 4.687,2.054 0,0 m 2.449,17.904 c -5.89,2.694 -13.944,2.193 -19.137,-1.148 -5.091,-3.304 -6.759,-8.95 -3.901,-13.469 2.831,-4.524 9.784,-7.389 16.577,-6.703 6.576,0.638 12.053,4.353 13.57,9.04 0.259,0.799 0.322,1.622 0.335,2.439 -0.005,3.94 -2.877,7.736 -7.444,9.841"
             inkscape:connector-curvature="0"
             id="path26"
             style="fill:#737372;fill-opacity:1;fill-rule:nonzero;stroke:none" /></g><g
           transform="translate(8.2822,17.8618)"
           id="g28"><path
             d="M 0,0 C -0.978,0 -1.916,0.196 -2.703,0.539 -2.721,0.368 -2.721,0.189 -2.721,0 c 0,-3.519 3.648,-6.383 8.164,-6.383 4.503,0 8.191,2.864 8.191,6.383 0,3.53 -3.688,6.377 -8.191,6.377 -0.219,0 -0.472,0 -0.697,-0.027 C 5.188,5.735 5.443,5.009 5.443,4.261 5.443,1.91 3.009,0 0,0"
             inkscape:connector-curvature="0"
             id="path30"
             style="fill:#00a0e4;fill-opacity:1;fill-rule:nonzero;stroke:none" /></g></g></g></g></svg>