<?xml version="1.0" encoding="UTF-8" standalone="no"?>
<!-- Created with Inkscape (http://www.inkscape.org/) -->

<svg
   xmlns:dc="http://purl.org/dc/elements/1.1/"
   xmlns:cc="http://creativecommons.org/ns#"
   xmlns:rdf="http://www.w3.org/1999/02/22-rdf-syntax-ns#"
   xmlns:svg="http://www.w3.org/2000/svg"
   xmlns="http://www.w3.org/2000/svg"
   xmlns:inkscape="http://www.inkscape.org/namespaces/inkscape"
   version="1.1"
   width="40"
   height="40"
   id="svg2"
   xml:space="preserve"><metadata
     id="metadata8"><rdf:RDF><cc:Work
         rdf:about=""><dc:format>image/svg+xml</dc:format><dc:type
           rdf:resource="http://purl.org/dc/dcmitype/StillImage" /></cc:Work></rdf:RDF></metadata><defs
     id="defs6"><clipPath
       id="clipPath16"><path
         d="M 0,32 32,32 32,0 0,0 0,32 z"
         inkscape:connector-curvature="0"
         id="path18" /></clipPath></defs><g
     transform="matrix(1.25,0,0,-1.25,0,40)"
     id="g10"><g
       id="g12"><g
         clip-path="url(#clipPath16)"
         id="g14"><g
           transform="translate(32,16)"
           id="g20"><path
             d="m 0,0 c 0,-8.837 -7.163,-16 -16,-16 -8.836,0 -16,7.163 -16,16 0,8.836 7.164,16 16,16 C -7.163,16 0,8.836 0,0"
             inkscape:connector-curvature="0"
             id="path22"
             style="fill:#dd203c;fill-opacity:1;fill-rule:nonzero;stroke:none" /></g><g
           transform="translate(6.0542,18.1943)"
           id="g24"><path
             d="m 0,0 c -0.848,0 -1.529,-0.968 -1.529,-2.183 0,-1.22 0.681,-2.207 1.529,-2.207 l 19.878,0 c 0.847,0 1.542,0.987 1.542,2.207 C 21.42,-0.968 20.725,0 19.878,0"
             inkscape:connector-curvature="0"
             id="path26"
             style="fill:#ffffff;fill-opacity:1;fill-rule:nonzero;stroke:none" /></g></g></g></g></svg>