<?xml version="1.0" encoding="UTF-8" standalone="no"?>
<!-- Created with Inkscape (http://www.inkscape.org/) -->

<svg
   xmlns:dc="http://purl.org/dc/elements/1.1/"
   xmlns:cc="http://creativecommons.org/ns#"
   xmlns:rdf="http://www.w3.org/1999/02/22-rdf-syntax-ns#"
   xmlns:svg="http://www.w3.org/2000/svg"
   xmlns="http://www.w3.org/2000/svg"
   xmlns:inkscape="http://www.inkscape.org/namespaces/inkscape"
   version="1.1"
   width="40"
   height="40"
   id="svg2"
   xml:space="preserve"><metadata
     id="metadata8"><rdf:RDF><cc:Work
         rdf:about=""><dc:format>image/svg+xml</dc:format><dc:type
           rdf:resource="http://purl.org/dc/dcmitype/StillImage" /></cc:Work></rdf:RDF></metadata><defs
     id="defs6"><clipPath
       id="clipPath16"><path
         d="M 0,32 32,32 32,0 0,0 0,32 z"
         inkscape:connector-curvature="0"
         id="path18" /></clipPath></defs><g
     transform="matrix(1.25,0,0,-1.25,0,40)"
     id="g10"><g
       id="g12"><g
         clip-path="url(#clipPath16)"
         id="g14"><g
           transform="translate(26.4629,27)"
           id="g20"><path
             d="m 0,0 c 0,0.817 -0.308,1.555 -0.847,2.125 -0.545,0.573 -1.272,0.873 -2.038,0.873 l -13.366,0 c -0.774,0 -1.494,-0.3 -2.029,-0.873 C -18.825,1.555 -19.124,0.817 -19.124,0 l 0,-22.004 c 0,-1.648 1.29,-2.994 2.873,-2.994 l 4.795,0 3.771,0 1.933,0 0.016,0 0,6.143 5.736,0 L 0,0 z m 1.904,-19.07 c -0.031,-0.504 -0.229,-0.98 -0.559,-1.34 l -5.734,-6.004 C -4.759,-26.787 -5.232,-27 -5.752,-27 l -1.933,0 -3.771,0 -4.795,0 c -2.655,0 -4.782,2.241 -4.782,4.996 l 0,22.004 c 0,1.388 0.541,2.642 1.403,3.547 C -18.76,4.439 -17.577,5 -16.251,5 L -2.885,5 C -1.56,5 -0.362,4.439 0.497,3.547 1.359,2.642 1.904,1.388 1.904,0 l 0,-18.855 0,-0.215 z"
             inkscape:connector-curvature="0"
             id="path22"
             style="fill:#444443;fill-opacity:1;fill-rule:nonzero;stroke:none" /></g><path
           d="m 26.463,12.164 -22.83,0 0,14 22.83,0 0,-14 z"
           inkscape:connector-curvature="0"
           id="path24"
           style="fill:#b4b3b3;fill-opacity:1;fill-rule:nonzero;stroke:none" /><g
           transform="translate(8.4746,24.0825)"
           id="g26"><path
             d="m 0,0 c -0.521,0 -0.939,-0.414 -0.939,-0.934 0,-0.522 0.418,-0.944 0.939,-0.944 l 13.14,0 c 0.518,0 0.946,0.422 0.946,0.944 0,0.52 -0.428,0.934 -0.946,0.934"
             inkscape:connector-curvature="0"
             id="path28"
             style="fill:#444443;fill-opacity:1;fill-rule:nonzero;stroke:none" /></g><g
           transform="translate(8.4746,20.1016)"
           id="g30"><path
             d="m 0,0 c -0.521,0 -0.939,-0.414 -0.939,-0.935 0,-0.52 0.418,-0.943 0.939,-0.943 l 13.14,0 c 0.518,0 0.946,0.423 0.946,0.943 C 14.086,-0.414 13.658,0 13.14,0"
             inkscape:connector-curvature="0"
             id="path32"
             style="fill:#444443;fill-opacity:1;fill-rule:nonzero;stroke:none" /></g><g
           transform="translate(8.4746,16.1226)"
           id="g34"><path
             d="m 0,0 c -0.521,0 -0.939,-0.416 -0.939,-0.935 0,-0.52 0.418,-0.943 0.939,-0.943 l 7.37,0 c 0.519,0 0.947,0.423 0.947,0.943 C 8.317,-0.416 7.889,0 7.37,0"
             inkscape:connector-curvature="0"
             id="path36"
             style="fill:#444443;fill-opacity:1;fill-rule:nonzero;stroke:none" /></g></g></g></g></svg>