<?xml version="1.0" encoding="UTF-8" standalone="no"?>
<!-- Created with Inkscape (http://www.inkscape.org/) -->

<svg
   xmlns:dc="http://purl.org/dc/elements/1.1/"
   xmlns:cc="http://creativecommons.org/ns#"
   xmlns:rdf="http://www.w3.org/1999/02/22-rdf-syntax-ns#"
   xmlns:svg="http://www.w3.org/2000/svg"
   xmlns="http://www.w3.org/2000/svg"
   xmlns:inkscape="http://www.inkscape.org/namespaces/inkscape"
   version="1.1"
   width="40"
   height="40"
   id="svg2"
   xml:space="preserve"><metadata
     id="metadata8"><rdf:RDF><cc:Work
         rdf:about=""><dc:format>image/svg+xml</dc:format><dc:type
           rdf:resource="http://purl.org/dc/dcmitype/StillImage" /></cc:Work></rdf:RDF></metadata><defs
     id="defs6"><clipPath
       id="clipPath16"><path
         d="M 0,32 32,32 32,0 0,0 0,32 z"
         inkscape:connector-curvature="0"
         id="path18" /></clipPath></defs><g
     transform="matrix(1.25,0,0,-1.25,0,40)"
     id="g10"><g
       id="g12"><g
         clip-path="url(#clipPath16)"
         id="g14"><g
           transform="translate(26.4629,27)"
           id="g20"><path
             d="m 0,0 c 0,0.817 -0.308,1.555 -0.847,2.125 -0.545,0.573 -1.272,0.873 -2.038,0.873 l -13.366,0 c -0.774,0 -1.494,-0.3 -2.029,-0.873 C -18.825,1.555 -19.124,0.817 -19.124,0 l 0,-22.004 c 0,-1.648 1.29,-2.994 2.873,-2.994 l 4.795,0 3.771,0 1.933,0 0.016,0 0,6.143 5.736,0 L 0,0 z m 1.904,-19.07 c -0.031,-0.504 -0.229,-0.98 -0.559,-1.34 l -5.734,-6.004 C -4.759,-26.787 -5.232,-27 -5.752,-27 l -1.933,0 -3.771,0 -4.795,0 c -2.655,0 -4.782,2.241 -4.782,4.996 l 0,22.004 c 0,1.388 0.541,2.642 1.403,3.547 C -18.76,4.439 -17.577,5 -16.251,5 L -2.885,5 C -1.56,5 -0.362,4.439 0.497,3.547 1.359,2.642 1.904,1.388 1.904,0 l 0,-18.855 0,-0.215 z"
             inkscape:connector-curvature="0"
             id="path22"
             style="fill:#444443;fill-opacity:1;fill-rule:nonzero;stroke:none" /></g><path
           d="m 26.463,12.164 -22.83,0 0,14 22.83,0 0,-14 z"
           inkscape:connector-curvature="0"
           id="path24"
           style="fill:#b4b3b3;fill-opacity:1;fill-rule:nonzero;stroke:none" /><g
           transform="translate(7.6792,14.666)"
           id="g26"><path
             d="m 0,0 c -0.581,0 -1.035,0.14 -1.442,0.593 -0.384,0.43 -0.441,0.849 -0.441,1.384 l 0,6.488 c 0,0.372 0.162,0.581 0.581,0.581 0.418,0 0.581,-0.209 0.581,-0.581 l 0,-6.488 C -0.721,1.325 -0.523,1.163 0,1.163 l 1.977,0 c 0.523,0 0.72,0.162 0.72,0.814 l 0,6.488 c 0,0.372 0.163,0.581 0.582,0.581 0.419,0 0.581,-0.209 0.581,-0.581 l 0,-6.488 C 3.86,1.442 3.802,1.023 3.418,0.593 3.011,0.14 2.558,0 1.977,0 L 0,0 z"
             inkscape:connector-curvature="0"
             id="path28"
             style="fill:#f39415;fill-opacity:1;fill-rule:nonzero;stroke:none" /></g><g
           transform="translate(18.0137,15.8286)"
           id="g30"><path
             d="M 0,0 C 0.302,0 0.581,-0.163 0.581,-0.582 0.581,-1 0.302,-1.163 0,-1.163 l -5.163,0 0,8.465 c 0,0.372 0.163,0.581 0.582,0.581 C -4.163,7.883 -4,7.674 -4,7.302 L -4,0 0,0 z"
             inkscape:connector-curvature="0"
             id="path32"
             style="fill:#f39415;fill-opacity:1;fill-rule:nonzero;stroke:none" /></g><g
           transform="translate(20.5703,19.2471)"
           id="g34"><path
             d="m 0,0 2.58,0 c 0.687,0 0.838,0.174 0.838,0.837 l 0,1.628 c 0,0.662 -0.151,0.837 -0.838,0.837 L 0,3.302 0,0 z M 0,-4 C 0,-4.372 -0.163,-4.581 -0.581,-4.581 -1,-4.581 -1.163,-4.372 -1.163,-4 l 0,8.465 3.86,0 C 3.231,4.465 3.615,4.383 4.035,3.988 4.534,3.523 4.581,3.093 4.581,2.465 l 0,-1.582 C 4.581,0.291 4.534,-0.128 4.104,-0.605 3.65,-1.116 3.174,-1.163 2.547,-1.163 L 0,-1.163 0,-4 z"
             inkscape:connector-curvature="0"
             id="path36"
             style="fill:#f39415;fill-opacity:1;fill-rule:nonzero;stroke:none" /></g></g></g></g></svg>