<?xml version="1.0" encoding="UTF-8" standalone="no"?>
<!-- Created with Inkscape (http://www.inkscape.org/) -->

<svg
   xmlns:dc="http://purl.org/dc/elements/1.1/"
   xmlns:cc="http://creativecommons.org/ns#"
   xmlns:rdf="http://www.w3.org/1999/02/22-rdf-syntax-ns#"
   xmlns:svg="http://www.w3.org/2000/svg"
   xmlns="http://www.w3.org/2000/svg"
   xmlns:inkscape="http://www.inkscape.org/namespaces/inkscape"
   version="1.1"
   width="40"
   height="40"
   id="svg2"
   xml:space="preserve"><metadata
     id="metadata8"><rdf:RDF><cc:Work
         rdf:about=""><dc:format>image/svg+xml</dc:format><dc:type
           rdf:resource="http://purl.org/dc/dcmitype/StillImage" /></cc:Work></rdf:RDF></metadata><defs
     id="defs6"><clipPath
       id="clipPath16"><path
         d="M 0,32 32,32 32,0 0,0 0,32 z"
         inkscape:connector-curvature="0"
         id="path18" /></clipPath></defs><g
     transform="matrix(1.25,0,0,-1.25,0,40)"
     id="g10"><g
       id="g12"><g
         clip-path="url(#clipPath16)"
         id="g14"><g
           transform="translate(31.9541,13.0322)"
           id="g20"><path
             d="M 0,0 C -2.153,5.368 -8.415,7.693 -14.076,5.462 -16.464,4.523 -18.408,2.854 -19.64,0.787 l 3.925,-1.605 c 0.9,-0.361 0.876,-1.627 -0.067,-1.997 l -5.441,-2.171 -5.115,-2.019 c -0.243,-0.094 -0.543,-0.099 -0.795,-0.007 -0.289,0.097 -0.549,0.282 -0.676,0.575 l -0.061,0.153 -0.558,1.388 -3.454,8.528 c -0.347,0.869 0.627,1.798 1.53,1.446 l 3.981,-1.653 c 0.543,1.007 1.184,1.943 1.905,2.849 0.955,1.191 2.045,2.25 3.272,3.184 1.361,1.03 2.88,1.87 4.506,2.512 C -7.249,15.688 -3.54,8.953 0.046,0.02 L 0,0 z"
             inkscape:connector-curvature="0"
             id="path22"
             style="fill:#444443;fill-opacity:1;fill-rule:nonzero;stroke:none" /></g></g></g></g></svg>