<?xml version="1.0" encoding="UTF-8" standalone="no"?>
<!-- Created with Inkscape (http://www.inkscape.org/) -->

<svg
   xmlns:dc="http://purl.org/dc/elements/1.1/"
   xmlns:cc="http://creativecommons.org/ns#"
   xmlns:rdf="http://www.w3.org/1999/02/22-rdf-syntax-ns#"
   xmlns:svg="http://www.w3.org/2000/svg"
   xmlns="http://www.w3.org/2000/svg"
   xmlns:inkscape="http://www.inkscape.org/namespaces/inkscape"
   version="1.1"
   width="40"
   height="40"
   id="svg2"
   xml:space="preserve"><metadata
     id="metadata8"><rdf:RDF><cc:Work
         rdf:about=""><dc:format>image/svg+xml</dc:format><dc:type
           rdf:resource="http://purl.org/dc/dcmitype/StillImage" /></cc:Work></rdf:RDF></metadata><defs
     id="defs6"><clipPath
       id="clipPath16"><path
         d="M 0,32 32,32 32,0 0,0 0,32 z"
         inkscape:connector-curvature="0"
         id="path18" /></clipPath></defs><g
     transform="matrix(1.25,0,0,-1.25,0,40)"
     id="g10"><g
       id="g12"><g
         clip-path="url(#clipPath16)"
         id="g14"><g
           transform="translate(18.001,18.0195)"
           id="g20"><path
             d="m 0,0 c 0,-0.682 -0.561,-1.237 -1.254,-1.237 l -1.494,0 c -0.691,0 -1.251,0.555 -1.251,1.237 l 0,10.765 c 0,0.681 0.56,1.236 1.251,1.236 l 1.494,0 C -0.561,12.001 0,11.446 0,10.765 L 0,0 z m -0.499,14.005 -2.996,0 c -1.387,0 -2.5,-1.336 -2.5,-3.001 l 0,-25.997 c 0,-1.657 1.113,-3.001 2.5,-3.001 l 2.996,0 c 1.379,0 2.5,1.344 2.5,3.001 l 0,25.997 c 0,1.665 -1.121,3.001 -2.5,3.001"
             inkscape:connector-curvature="0"
             id="path22"
             style="fill:#444443;fill-opacity:1;fill-rule:nonzero;stroke:none" /></g><g
           transform="translate(6.0063,18.0195)"
           id="g24"><path
             d="m 0,0 c 0,-0.682 -0.573,-1.237 -1.254,-1.237 l -1.501,0 c -0.692,0 -1.247,0.555 -1.247,1.237 l 0,10.765 c 0,0.681 0.555,1.236 1.247,1.236 l 1.501,0 C -0.573,12.001 0,11.446 0,10.765 L 0,0 z m -0.5,14.005 -3.012,0 c -1.374,0 -2.494,-1.336 -2.494,-3.001 l 0,-25.997 c 0,-1.657 1.12,-3.001 2.494,-3.001 l 3.012,0 c 1.377,0 2.498,1.344 2.498,3.001 l 0,25.997 c 0,1.665 -1.121,3.001 -2.498,3.001"
             inkscape:connector-curvature="0"
             id="path26"
             style="fill:#444443;fill-opacity:1;fill-rule:nonzero;stroke:none" /></g><g
           transform="translate(29.999,18.0195)"
           id="g28"><path
             d="m 0,0 c 0,-0.682 -0.561,-1.237 -1.255,-1.237 l -1.493,0 c -0.691,0 -1.251,0.555 -1.251,1.237 l 0,10.765 c 0,0.681 0.56,1.236 1.251,1.236 l 1.493,0 C -0.561,12.001 0,11.446 0,10.765 L 0,0 z m -0.499,14.005 -2.996,0 c -1.387,0 -2.5,-1.336 -2.5,-3.001 l 0,-25.997 c 0,-1.657 1.113,-3.001 2.5,-3.001 l 2.996,0 c 1.379,0 2.5,1.344 2.5,3.001 l 0,25.997 c 0,1.665 -1.121,3.001 -2.5,3.001"
             inkscape:connector-curvature="0"
             id="path30"
             style="fill:#444443;fill-opacity:1;fill-rule:nonzero;stroke:none" /></g></g></g></g></svg>