<?xml version="1.0" encoding="UTF-8" standalone="no"?>
<!-- Created with Inkscape (http://www.inkscape.org/) -->

<svg
   xmlns:dc="http://purl.org/dc/elements/1.1/"
   xmlns:cc="http://creativecommons.org/ns#"
   xmlns:rdf="http://www.w3.org/1999/02/22-rdf-syntax-ns#"
   xmlns:svg="http://www.w3.org/2000/svg"
   xmlns="http://www.w3.org/2000/svg"
   xmlns:inkscape="http://www.inkscape.org/namespaces/inkscape"
   version="1.1"
   width="40"
   height="40"
   id="svg2"
   xml:space="preserve"><metadata
     id="metadata8"><rdf:RDF><cc:Work
         rdf:about=""><dc:format>image/svg+xml</dc:format><dc:type
           rdf:resource="http://purl.org/dc/dcmitype/StillImage" /></cc:Work></rdf:RDF></metadata><defs
     id="defs6"><clipPath
       id="clipPath16"><path
         d="M 0,32 32,32 32,0 0,0 0,32 z"
         inkscape:connector-curvature="0"
         id="path18" /></clipPath></defs><g
     transform="matrix(1.25,0,0,-1.25,0,40)"
     id="g10"><g
       id="g12"><g
         clip-path="url(#clipPath16)"
         id="g14"><g
           transform="translate(21.542,11.8877)"
           id="g20"><path
             d="M 0,0 C -9.265,0 -7.604,0 -12.254,0.002"
             inkscape:connector-curvature="0"
             id="path22"
             style="fill:none;stroke:#9e9e9e;stroke-width:2;stroke-linecap:round;stroke-linejoin:round;stroke-miterlimit:10;stroke-opacity:1;stroke-dasharray:none" /></g><g
           transform="translate(21.542,7.2471)"
           id="g24"><path
             d="M 0,0 C -9.265,0 -7.604,0.001 -12.254,0.002"
             inkscape:connector-curvature="0"
             id="path26"
             style="fill:none;stroke:#9e9e9e;stroke-width:2;stroke-linecap:round;stroke-linejoin:round;stroke-miterlimit:10;stroke-opacity:1;stroke-dasharray:none" /></g><g
           transform="translate(21.542,2.6025)"
           id="g28"><path
             d="M 0,0 C -9.265,0 -7.604,0.001 -12.254,0.002"
             inkscape:connector-curvature="0"
             id="path30"
             style="fill:none;stroke:#9e9e9e;stroke-width:2;stroke-linecap:round;stroke-linejoin:round;stroke-miterlimit:10;stroke-opacity:1;stroke-dasharray:none" /></g><g
           transform="translate(20.5303,14.4922)"
           id="g32"><path
             d="m 0,0 -10.118,0 0,-14.492 10.118,0"
             inkscape:connector-curvature="0"
             id="path34"
             style="fill:#9e9e9e;fill-opacity:1;fill-rule:nonzero;stroke:none" /></g><g
           transform="translate(9.1855,21.644)"
           id="g36"><path
             d="m 0,0 c -0.267,0 -0.483,-0.25 -0.483,-0.563 0,-0.315 0.216,-0.57 0.483,-0.57 l 4.015,0 c 0.268,0 0.489,0.255 0.489,0.57 C 4.504,-0.25 4.283,0 4.015,0"
             inkscape:connector-curvature="0"
             id="path38"
             style="fill:#444443;fill-opacity:1;fill-rule:nonzero;stroke:none" /></g><g
           transform="translate(9.1807,27.7686)"
           id="g40"><path
             d="m 0,0 c -0.266,0 -0.479,-0.25 -0.479,-0.564 0,-0.315 0.213,-0.57 0.479,-0.57 l 4.143,0 c 0.263,0 0.016,0.286 0.016,0.601 C 4.159,-0.219 4.406,0 4.143,0"
             inkscape:connector-curvature="0"
             id="path42"
             style="fill:#444443;fill-opacity:1;fill-rule:nonzero;stroke:none" /></g><g
           transform="translate(19.9111,24.7939)"
           id="g44"><path
             d="m 0,0 c -0.268,0 -0.483,-0.249 -0.483,-0.562 0,-0.316 0.215,-0.571 0.483,-0.571 l 2.898,0 c 0.269,0 0.489,0.255 0.489,0.571 C 3.387,-0.249 3.167,0 2.898,0"
             inkscape:connector-curvature="0"
             id="path46"
             style="fill:#444443;fill-opacity:1;fill-rule:nonzero;stroke:none" /></g><g
           transform="translate(13.3232,31.0425)"
           id="g48"><path
             d="m 0,0 0,-13.701 c 0,0 6.346,0.7 6.346,6.549 C 6.346,-0.659 1.217,0 0,0"
             inkscape:connector-curvature="0"
             id="path50"
             style="fill:#444443;fill-opacity:1;fill-rule:nonzero;stroke:none" /></g><g
           transform="translate(13.3232,31.0425)"
           id="g52"><path
             d="m 0,0 0,-13.701 c 0,0 6.346,0.7 6.346,6.549 C 6.346,-0.659 1.217,0 0,0 z"
             inkscape:connector-curvature="0"
             id="path54"
             style="fill:none;stroke:#444443;stroke-width:2;stroke-linecap:butt;stroke-linejoin:round;stroke-miterlimit:10;stroke-opacity:1;stroke-dasharray:none" /></g></g></g></g></svg>