<?xml version="1.0" encoding="UTF-8" standalone="no"?>
<!-- Created with Inkscape (http://www.inkscape.org/) -->

<svg
   xmlns:dc="http://purl.org/dc/elements/1.1/"
   xmlns:cc="http://creativecommons.org/ns#"
   xmlns:rdf="http://www.w3.org/1999/02/22-rdf-syntax-ns#"
   xmlns:svg="http://www.w3.org/2000/svg"
   xmlns="http://www.w3.org/2000/svg"
   xmlns:inkscape="http://www.inkscape.org/namespaces/inkscape"
   version="1.1"
   width="40"
   height="40"
   id="svg2"
   xml:space="preserve"><metadata
     id="metadata8"><rdf:RDF><cc:Work
         rdf:about=""><dc:format>image/svg+xml</dc:format><dc:type
           rdf:resource="http://purl.org/dc/dcmitype/StillImage" /></cc:Work></rdf:RDF></metadata><defs
     id="defs6"><clipPath
       id="clipPath16"><path
         d="M 0,32 32,32 32,0 0,0 0,32 z"
         inkscape:connector-curvature="0"
         id="path18" /></clipPath></defs><g
     transform="matrix(1.25,0,0,-1.25,0,40)"
     id="g10"><g
       id="g12"><g
         clip-path="url(#clipPath16)"
         id="g14"><g
           transform="translate(16.3101,16)"
           id="g20"><path
             d="M 0,0 -24,0"
             inkscape:connector-curvature="0"
             id="path22"
             style="fill:none;stroke:#444443;stroke-width:32;stroke-linecap:square;stroke-linejoin:round;stroke-miterlimit:10;stroke-opacity:1;stroke-dasharray:none" /></g><g
           transform="translate(21.25,16.0625)"
           id="g24"><path
             d="M 0,0 -22.375,0"
             inkscape:connector-curvature="0"
             id="path26"
             style="fill:none;stroke:#8a8a89;stroke-width:3;stroke-linecap:butt;stroke-linejoin:miter;stroke-miterlimit:10;stroke-opacity:1;stroke-dasharray:none" /></g><g
           transform="translate(24.3516,16.043)"
           id="g28"><path
             d="m 0,0 c 0,-0.977 -0.792,-1.77 -1.77,-1.77 -0.977,0 -1.769,0.793 -1.769,1.77 0,0.977 0.792,1.77 1.769,1.77 C -0.792,1.77 0,0.977 0,0"
             inkscape:connector-curvature="0"
             id="path30"
             style="fill:#8a8a89;fill-opacity:1;fill-rule:nonzero;stroke:none" /></g><g
           transform="translate(24.3516,16.043)"
           id="g32"><path
             d="m 0,0 c 0,-0.977 -0.792,-1.77 -1.77,-1.77 -0.977,0 -1.769,0.793 -1.769,1.77 0,0.977 0.792,1.77 1.769,1.77 C -0.792,1.77 0,0.977 0,0 z"
             inkscape:connector-curvature="0"
             id="path34"
             style="fill:none;stroke:#8a8a89;stroke-width:3;stroke-linecap:butt;stroke-linejoin:miter;stroke-miterlimit:10;stroke-opacity:1;stroke-dasharray:none" /></g></g></g></g></svg>